<?xml version="1.0" encoding="utf-8"?>
<!-- Generator: Adobe Illustrator 16.0.0, SVG Export Plug-In . SVG Version: 6.00 Build 0)  -->
<!DOCTYPE svg PUBLIC "-//W3C//DTD SVG 1.1//EN" "http://www.w3.org/Graphics/SVG/1.1/DTD/svg11.dtd">
<svg version="1.1" id="Layer_1" xmlns="http://www.w3.org/2000/svg" xmlns:xlink="http://www.w3.org/1999/xlink" x="0px" y="0px"
	 width="512px" height="512px" viewBox="0 0 512 512" enable-background="new 0 0 512 512" xml:space="preserve">
<g>
	<defs>
		<rect id="SVGID_1_" width="512" height="512"/>
	</defs>
	<clipPath id="SVGID_2_">
		<use xlink:href="#SVGID_1_"  overflow="visible"/>
	</clipPath>
	<path clip-path="url(#SVGID_2_)" fill="#DDD" d="M214.544,358.24l32.24,32.072c2.436,2.416,5.688,3.76,9.124,3.752
		c2.092-0.008,4.115-0.524,5.943-1.488c1.156-0.604,2.217-1.393,3.152-2.336l32.068-32.328c3.68-3.721,4.771-9.276,2.744-14.1
		c-2.021-4.84-6.092-7.812-11.324-7.812H272V132c0-8.836-7.164-16-16-16s-16,7.164-16,16v204h-15.9
		c-5.243,0-9.792,2.324-11.771,7.156C210.344,348.004,210.836,354.557,214.544,358.24z"/>
</g>
</svg>
