<?xml version="1.0" ?><!DOCTYPE svg  PUBLIC '-//W3C//DTD SVG 1.1//EN'  'http://www.w3.org/Graphics/SVG/1.1/DTD/svg11.dtd'><svg height="202px" style="shape-rendering:geometricPrecision; text-rendering:geometricPrecision; image-rendering:optimizeQuality; fill-rule:evenodd; clip-rule:evenodd" version="1.1" viewBox="0 0 4286 4286" width="202px" xml:space="preserve" xmlns="http://www.w3.org/2000/svg" xmlns:xlink="http://www.w3.org/1999/xlink"><defs><style type="text/css">
   <![CDATA[
    .fil1 {fill:#F2C53F}
    .fil0 {fill:#FF7069}
    .fil2 {fill:#FFE356}
    .fil3 {fill:white}
   ]]>
  </style></defs><g id="Layer_x0020_1"><g id="_449335760"><circle class="fil0" cx="2143" cy="2143" r="2143"/><g><path class="fil1" d="M3091 4033c0,140 -425,253 -949,253 -524,0 -949,-113 -949,-253l0 -253 949 0 949 0 0 253z"/><path class="fil2" d="M2142 3571c524,0 949,104 949,231 0,128 -425,231 -949,231 -524,0 -949,-104 -949,-231 0,-128 425,-231 949,-231z"/><path class="fil1" d="M2933 3664c0,140 -425,253 -949,253 -524,0 -949,-113 -949,-253l0 -253 949 0 949 0 0 253z"/><path class="fil2" d="M1984 3202c524,0 949,104 949,231 0,128 -425,231 -949,231 -524,0 -949,-104 -949,-231 0,-128 425,-231 949,-231z"/><path class="fil1" d="M3254 3224c0,140 -425,253 -949,253 -524,0 -949,-113 -949,-253l0 -253 949 0 949 0 0 253z"/><path class="fil2" d="M2305 2762c524,0 949,104 949,231 0,128 -425,231 -949,231 -524,0 -949,-104 -949,-231 0,-128 425,-231 949,-231z"/><path class="fil1" d="M3544 2865c0,140 -425,253 -949,253 -524,0 -949,-113 -949,-253l0 -253 949 0 949 0 0 253z"/><path class="fil2" d="M2595 2403c524,0 949,104 949,231 0,128 -425,231 -949,231 -524,0 -949,-104 -949,-231 0,-128 425,-231 949,-231z"/><path class="fil1" d="M3254 2464c0,140 -425,253 -949,253 -524,0 -949,-113 -949,-253l0 -253 949 0 949 0 0 253z"/><path class="fil2" d="M2305 2002c524,0 949,104 949,231 0,128 -425,231 -949,231 -524,0 -949,-104 -949,-231 0,-128 425,-231 949,-231z"/><path class="fil1" d="M2940 2058c0,140 -425,253 -949,253 -524,0 -949,-113 -949,-253l0 -253 949 0 949 0 0 253z"/><path class="fil2" d="M1990 1596c524,0 949,104 949,231 0,128 -425,231 -949,231 -524,0 -949,-104 -949,-231 0,-128 425,-231 949,-231z"/><path class="fil1" d="M3190 1708c0,140 -425,253 -949,253 -524,0 -949,-113 -949,-253l0 -253 949 0 949 0 0 253z"/><path class="fil2" d="M2241 1246c524,0 949,104 949,231 0,128 -425,231 -949,231 -524,0 -949,-104 -949,-231 0,-128 425,-231 949,-231z"/><path class="fil3" d="M1966 1620c59,12 119,18 178,21 60,2 114,0 165,-7 50,-7 92,-17 126,-30 27,-11 45,-22 55,-34 9,-12 10,-24 2,-36 -7,-12 -21,-22 -41,-32 -20,-10 -50,-23 -89,-38l185 -73c37,16 44,33 20,51 -20,15 -11,27 28,36 20,5 43,7 68,6 25,-1 45,-4 60,-10 13,-5 23,-12 30,-21 6,-9 8,-18 6,-28 -3,-13 -14,-25 -34,-36 -20,-11 -50,-22 -88,-33l48 -19c24,-10 24,-17 -1,-23 -25,-6 -50,-4 -74,6l-47 19c-86,-17 -167,-24 -243,-21 -75,3 -139,15 -190,35 -39,16 -60,31 -63,46 -3,15 6,29 28,43 22,14 53,29 95,45l-207 82c-21,-8 -33,-17 -39,-24 -5,-8 -5,-15 0,-22 5,-7 15,-17 28,-29 6,-6 7,-11 1,-16 -6,-5 -18,-10 -36,-14 -22,-5 -46,-7 -72,-6 -26,1 -46,4 -60,10 -19,8 -34,17 -43,27 -9,10 -11,22 -7,35 4,13 18,26 39,38 22,13 54,26 96,38l-1 0 -27 11c-16,6 -12,15 9,20l0 0c21,5 50,4 66,-3l29 -12zm338 -182l170 -68c-40,-5 -76,-7 -106,-6 -31,1 -58,6 -83,15 -23,9 -32,18 -27,27 5,9 21,19 46,31zm-57 70l-195 77c45,7 88,9 128,7 40,-2 71,-8 96,-18 26,-10 35,-21 28,-31 -7,-10 -26,-22 -57,-36z"/></g></g></g></svg>