<?xml version="1.0" encoding="utf-8"?>
<!-- Generator: Adobe Illustrator 16.0.0, SVG Export Plug-In . SVG Version: 6.00 Build 0)  -->
<!DOCTYPE svg PUBLIC "-//W3C//DTD SVG 1.1//EN" "http://www.w3.org/Graphics/SVG/1.1/DTD/svg11.dtd">
<svg version="1.1" id="Layer_1" xmlns="http://www.w3.org/2000/svg" xmlns:xlink="http://www.w3.org/1999/xlink" x="0px" y="0px"
	 width="202px" height="202px" viewBox="0 0 202 202" enable-background="new 0 0 202 202" xml:space="preserve">
<g id="Layer_x0020_1">
	<g id="_449335760">
		<circle fill="#FF7069" cx="101" cy="101" r="101"/>
		<g>
			<path fill="#F2C53F" d="M145.68,190.076c0,6.598-20.031,11.924-44.727,11.924s-44.726-5.326-44.726-11.924v-11.924h44.726h44.727
				V190.076z"/>
			<path fill="#FFE356" d="M100.953,168.302c24.696,0,44.727,4.901,44.727,10.888c0,6.032-20.031,10.887-44.727,10.887
				s-44.726-4.902-44.726-10.887C56.227,173.156,76.257,168.302,100.953,168.302z"/>
			<path fill="#F2C53F" d="M138.232,172.686c0,6.598-20.029,11.924-44.726,11.924c-24.696,0-44.727-5.326-44.727-11.924v-11.924
				h44.727h44.726V172.686z"/>
			<path fill="#FFE356" d="M93.506,150.911c24.697,0,44.726,4.901,44.726,10.887c0,6.032-20.029,10.888-44.726,10.888
				c-24.696,0-44.727-4.902-44.727-10.888C48.78,155.766,68.81,150.911,93.506,150.911z"/>
			<path fill="#F2C53F" d="M153.361,151.947c0,6.599-20.029,11.924-44.727,11.924c-24.696,0-44.726-5.325-44.726-11.924v-11.924
				h44.726h44.727V151.947z"/>
			<path fill="#FFE356" d="M108.635,130.174c24.697,0,44.727,4.901,44.727,10.887c0,6.033-20.029,10.887-44.727,10.887
				c-24.696,0-44.726-4.9-44.726-10.887C63.909,135.027,83.939,130.174,108.635,130.174z"/>
			<path fill="#F2C53F" d="M167.029,135.027c0,6.599-20.03,11.925-44.727,11.925s-44.727-5.326-44.727-11.925v-11.924h44.727h44.727
				V135.027z"/>
			<path fill="#FFE356" d="M122.303,113.254c24.696,0,44.727,4.901,44.727,10.887c0,6.033-20.03,10.887-44.727,10.887
				s-44.727-4.9-44.727-10.887C77.576,118.108,97.606,113.254,122.303,113.254z"/>
			<path fill="#F2C53F" d="M153.361,116.129c0,6.598-20.029,11.924-44.727,11.924c-24.696,0-44.726-5.326-44.726-11.924v-11.924
				h44.726h44.727V116.129z"/>
			<path fill="#FFE356" d="M108.635,94.354c24.697,0,44.727,4.902,44.727,10.888c0,6.032-20.029,10.887-44.727,10.887
				c-24.696,0-44.726-4.902-44.726-10.887C63.909,99.209,83.939,94.354,108.635,94.354z"/>
			<path fill="#F2C53F" d="M138.562,96.994c0,6.598-20.03,11.924-44.726,11.924c-24.696,0-44.727-5.326-44.727-11.924V85.07h44.727
				h44.726V96.994z"/>
			<path fill="#FFE356" d="M93.789,75.22c24.696,0,44.727,4.901,44.727,10.887c0,6.033-20.03,10.887-44.727,10.887
				s-44.727-4.902-44.727-10.887C49.062,80.074,69.093,75.22,93.789,75.22z"/>
			<path fill="#F2C53F" d="M150.346,80.499c0,6.598-20.031,11.924-44.727,11.924c-24.697,0-44.727-5.326-44.727-11.924V68.574
				h44.727h44.727V80.499z"/>
			<path fill="#FFE356" d="M105.619,58.724c24.695,0,44.727,4.902,44.727,10.887c0,6.033-20.031,10.887-44.727,10.887
				c-24.697,0-44.727-4.902-44.727-10.887C60.892,63.579,80.922,58.724,105.619,58.724z"/>
			<path display="none" fill="#FFFFFF" d="M92.658,76.351c2.78,0.565,5.608,0.848,8.389,0.99c2.828,0.094,5.373,0,7.777-0.33
				c2.355-0.33,4.336-0.801,5.938-1.414c1.273-0.518,2.121-1.037,2.592-1.603c0.425-0.565,0.473-1.131,0.095-1.696
				c-0.329-0.565-0.989-1.037-1.933-1.508c-0.942-0.471-2.355-1.084-4.194-1.791l8.72-3.44c1.743,0.754,2.073,1.555,0.942,2.404
				c-0.942,0.707-0.519,1.272,1.319,1.696c0.943,0.236,2.027,0.33,3.205,0.283c1.178-0.047,2.121-0.188,2.828-0.472
				c0.612-0.235,1.084-0.565,1.414-0.99c0.282-0.424,0.377-0.848,0.282-1.319c-0.142-0.613-0.659-1.178-1.603-1.697
				c-0.942-0.519-2.356-1.037-4.147-1.555l2.263-0.896c1.131-0.471,1.131-0.801-0.047-1.084c-1.179-0.283-2.357-0.188-3.488,0.283
				l-2.215,0.896c-4.053-0.801-7.871-1.131-11.453-0.99c-3.535,0.141-6.551,0.707-8.955,1.649c-1.838,0.754-2.828,1.461-2.969,2.168
				c-0.141,0.707,0.283,1.367,1.32,2.027c1.037,0.66,2.498,1.367,4.477,2.121l-9.756,3.865c-0.99-0.377-1.555-0.801-1.838-1.131
				c-0.236-0.377-0.236-0.707,0-1.037s0.707-0.801,1.32-1.367c0.283-0.283,0.33-0.519,0.047-0.754
				c-0.283-0.235-0.848-0.471-1.697-0.66c-1.037-0.236-2.168-0.33-3.393-0.283c-1.226,0.047-2.168,0.188-2.828,0.471
				c-0.896,0.377-1.602,0.801-2.026,1.272s-0.519,1.037-0.33,1.65c0.188,0.612,0.849,1.225,1.838,1.791
				c1.037,0.612,2.545,1.225,4.524,1.791h-0.047l-1.272,0.519c-0.754,0.283-0.565,0.707,0.424,0.943l0,0
				c0.99,0.235,2.356,0.188,3.11-0.142l1.367-0.565V76.351z M108.588,67.773l8.012-3.205c-1.885-0.236-3.582-0.33-4.995-0.283
				c-1.462,0.047-2.733,0.283-3.912,0.707c-1.084,0.424-1.508,0.848-1.272,1.272c0.236,0.424,0.99,0.896,2.168,1.461V67.773z
				 M105.901,71.072l-9.19,3.629c2.121,0.33,4.147,0.424,6.033,0.33c1.885-0.094,3.346-0.377,4.524-0.848
				c1.226-0.472,1.649-0.99,1.319-1.461c-0.33-0.471-1.225-1.037-2.687-1.696V71.072z"/>
		</g>
	</g>
</g>
</svg>
