<?xml version="1.0" encoding="utf-8"?>
<!-- Generator: Adobe Illustrator 16.0.0, SVG Export Plug-In . SVG Version: 6.00 Build 0)  -->
<!DOCTYPE svg PUBLIC "-//W3C//DTD SVG 1.1//EN" "http://www.w3.org/Graphics/SVG/1.1/DTD/svg11.dtd">
<svg version="1.1" id="Layer_1" xmlns="http://www.w3.org/2000/svg" xmlns:xlink="http://www.w3.org/1999/xlink" x="0px" y="0px"
	 width="1200px" height="1800px" viewBox="0 0 1200 1800" enable-background="new 0 0 1200 1800" xml:space="preserve">
<g>
	<rect display="none" fill="#92CCDC" width="1200" height="1800"/>
	<g>
		<g>
			<circle fill="#BB9146" cx="706.772" cy="922.803" r="54.792"/>
			<circle fill="#F8CE6D" cx="702.705" cy="925.062" r="54.792"/>
			<circle fill="#D3A953" cx="702.705" cy="925.062" r="48.579"/>
			<circle fill="#F8CE6D" cx="702.705" cy="925.062" r="34.005"/>
			<g display="none">
				<g display="inline">
					<g>
						<g>
							<path fill="#BB9146" d="M693.463,921.139c0,0.61,0.262,1.155,0.785,1.635s1.188,0.894,1.994,1.242s1.711,0.654,2.714,0.916
								c1.003,0.261,1.983,0.479,2.942,0.653c0.959,0.175,1.842,0.316,2.648,0.425c0.807,0.109,1.428,0.207,1.864,0.295
								c0.959,0.131,2.224,0.349,3.793,0.653c1.569,0.306,3.116,0.72,4.643,1.243c1.525,0.522,2.845,1.198,3.956,2.027
								c1.111,0.828,1.668,1.853,1.668,3.073c0,1.177-0.491,2.201-1.472,3.073c-0.981,0.872-2.158,1.591-3.531,2.158
								c-1.373,0.566-2.769,1.014-4.186,1.34c-1.416,0.327-2.561,0.534-3.433,0.622c0,0.218,0.021,0.566,0.065,1.046
								s0.098,0.991,0.163,1.536c0.065,0.546,0.153,1.047,0.262,1.505c0.109,0.457,0.251,0.752,0.425,0.883H697.06
								c0.131-0.175,0.251-0.48,0.359-0.916c0.109-0.436,0.208-0.915,0.295-1.438s0.174-1.024,0.262-1.504
								c0.087-0.479,0.131-0.828,0.131-1.047c-3.706-0.349-7.324-1.067-10.855-2.157c-0.349-0.088-0.828-0.251-1.438-0.491
								c-0.61-0.239-1.242-0.49-1.896-0.751c-0.654-0.262-1.275-0.491-1.863-0.688c-0.589-0.196-1.014-0.294-1.275-0.294
								c0.087-0.044,0.393-0.283,0.915-0.72c0.523-0.436,1.079-0.904,1.668-1.405c0.588-0.502,1.133-0.97,1.635-1.406
								c0.501-0.436,0.773-0.72,0.817-0.85c2.311,1.481,4.839,2.561,7.585,3.236c2.747,0.676,5.472,1.014,8.175,1.014
								c0.261,0,0.839-0.021,1.732-0.065c0.894-0.043,1.82-0.152,2.779-0.327c0.959-0.174,1.82-0.392,2.583-0.653
								s1.145-0.633,1.145-1.112c0-0.61-0.621-1.101-1.864-1.471c-1.242-0.371-2.79-0.73-4.643-1.079s-3.869-0.73-6.049-1.145
								s-4.196-0.959-6.049-1.635s-3.4-1.515-4.643-2.518s-1.864-2.268-1.864-3.793c0-1.874,0.479-3.498,1.439-4.872
								c0.959-1.373,2.157-2.55,3.597-3.53c1.438-0.981,3.019-1.777,4.74-2.388c1.723-0.61,3.346-1.067,4.872-1.373
								c0-0.218-0.021-0.61-0.065-1.177s-0.098-1.145-0.163-1.733c-0.065-0.588-0.186-1.133-0.36-1.635
								c-0.174-0.501-0.393-0.795-0.653-0.883l11.64,0.131c-0.218,0.044-0.414,0.284-0.589,0.72
								c-0.174,0.436-0.327,0.915-0.458,1.438c-0.13,0.523-0.229,1.035-0.294,1.537c-0.065,0.501-0.098,0.839-0.098,1.014
								c1.481,0.087,2.942,0.272,4.381,0.556s2.714,0.752,3.825,1.405c1.112,0.654,2.006,1.537,2.682,2.648
								c0.676,1.112,1.014,2.54,1.014,4.283c0,0.916-0.076,1.831-0.229,2.747c-0.152,0.915-0.338,1.809-0.556,2.681h-8.763
								c0.262-0.653,0.479-1.329,0.654-2.027c0.174-0.697,0.262-1.416,0.262-2.157c0-1.788-0.534-3.03-1.603-3.728
								s-2.431-1.047-4.087-1.047c-0.915,0-2.081,0.099-3.498,0.295s-2.779,0.522-4.087,0.98c-1.309,0.458-2.441,1.101-3.401,1.93
								C693.942,918.894,693.463,919.918,693.463,921.139z"/>
						</g>
					</g>
				</g>
			</g>
			<g>
				<path fill="#BB9045" d="M703.634,936.974l-14.349-9.192l14.439,20.653l14.797-21.131L703.634,936.974z"/>
				<path fill="#BB9045" d="M717.803,924.527l-14.034-22.837l-14.033,22.991l13.911,8.888L717.803,924.527z"/>
			</g>
		</g>
		<g>
			<circle fill="#BB9146" cx="700.918" cy="743.868" r="54.792"/>
			<circle fill="#F8CE6D" cx="696.852" cy="746.127" r="54.792"/>
			<circle fill="#D3A953" cx="696.852" cy="746.127" r="48.579"/>
			<circle fill="#F8CE6D" cx="696.852" cy="746.127" r="34.005"/>
			<g display="none">
				<g display="inline">
					<g>
						<g>
							<path fill="#BB9146" d="M687.609,742.204c0,0.61,0.262,1.155,0.785,1.635s1.188,0.894,1.994,1.242s1.711,0.654,2.714,0.916
								c1.003,0.261,1.983,0.479,2.942,0.653c0.959,0.175,1.842,0.316,2.648,0.425c0.807,0.109,1.428,0.207,1.864,0.295
								c0.959,0.131,2.224,0.349,3.793,0.653c1.569,0.306,3.116,0.72,4.643,1.243c1.525,0.522,2.845,1.198,3.956,2.027
								c1.111,0.828,1.668,1.853,1.668,3.073c0,1.177-0.491,2.201-1.472,3.073c-0.981,0.872-2.158,1.591-3.531,2.158
								c-1.373,0.566-2.769,1.014-4.186,1.34c-1.416,0.327-2.561,0.534-3.433,0.622c0,0.218,0.021,0.566,0.065,1.046
								s0.098,0.991,0.163,1.536c0.065,0.546,0.153,1.047,0.262,1.505c0.109,0.457,0.251,0.752,0.425,0.883h-11.705
								c0.131-0.175,0.251-0.48,0.359-0.916c0.109-0.436,0.208-0.915,0.295-1.438s0.174-1.024,0.262-1.504
								c0.087-0.479,0.131-0.828,0.131-1.047c-3.706-0.349-7.324-1.067-10.855-2.157c-0.349-0.088-0.828-0.251-1.438-0.491
								c-0.61-0.239-1.242-0.49-1.896-0.751c-0.654-0.262-1.275-0.491-1.863-0.688c-0.589-0.196-1.014-0.294-1.275-0.294
								c0.087-0.044,0.393-0.283,0.915-0.72c0.523-0.436,1.079-0.904,1.668-1.405c0.588-0.502,1.133-0.97,1.635-1.406
								c0.501-0.436,0.773-0.72,0.817-0.85c2.311,1.481,4.839,2.561,7.585,3.236c2.747,0.676,5.472,1.014,8.175,1.014
								c0.261,0,0.839-0.021,1.732-0.065c0.894-0.043,1.82-0.152,2.779-0.327c0.959-0.174,1.82-0.392,2.583-0.653
								s1.145-0.633,1.145-1.112c0-0.61-0.621-1.101-1.864-1.471c-1.242-0.371-2.79-0.73-4.643-1.079s-3.869-0.73-6.049-1.145
								s-4.196-0.959-6.049-1.635s-3.4-1.515-4.643-2.518s-1.864-2.268-1.864-3.793c0-1.874,0.479-3.498,1.439-4.872
								c0.959-1.373,2.157-2.55,3.597-3.53c1.438-0.981,3.019-1.777,4.74-2.388c1.723-0.61,3.346-1.067,4.872-1.373
								c0-0.218-0.021-0.61-0.065-1.177s-0.098-1.145-0.163-1.733c-0.065-0.588-0.186-1.133-0.36-1.635
								c-0.174-0.501-0.393-0.795-0.653-0.883l11.64,0.131c-0.218,0.044-0.414,0.284-0.589,0.72
								c-0.174,0.436-0.327,0.915-0.458,1.438c-0.13,0.523-0.229,1.035-0.294,1.537c-0.065,0.501-0.098,0.839-0.098,1.014
								c1.481,0.087,2.942,0.272,4.381,0.556s2.714,0.752,3.825,1.405c1.112,0.654,2.006,1.537,2.682,2.648
								c0.676,1.112,1.014,2.54,1.014,4.283c0,0.916-0.076,1.831-0.229,2.747c-0.152,0.915-0.338,1.809-0.556,2.681h-8.763
								c0.262-0.653,0.479-1.329,0.654-2.027c0.174-0.697,0.262-1.416,0.262-2.157c0-1.788-0.534-3.03-1.603-3.728
								s-2.431-1.047-4.087-1.047c-0.915,0-2.081,0.099-3.498,0.295s-2.779,0.522-4.087,0.98c-1.309,0.458-2.441,1.101-3.401,1.93
								C688.089,739.958,687.609,740.983,687.609,742.204z"/>
						</g>
					</g>
				</g>
			</g>
			<g>
				<path fill="#BB9045" d="M697.78,758.039l-14.349-9.192l14.439,20.653l14.797-21.131L697.78,758.039z"/>
				<path fill="#BB9045" d="M711.949,745.592l-14.034-22.837l-14.033,22.991l13.911,8.888L711.949,745.592z"/>
			</g>
		</g>
		<g>
			<circle fill="#BB9146" cx="387.312" cy="730.808" r="54.792"/>
			<circle fill="#F8CE6D" cx="383.246" cy="733.068" r="54.792"/>
			<circle fill="#D3A953" cx="383.246" cy="733.068" r="48.579"/>
			<circle fill="#F8CE6D" cx="383.246" cy="733.068" r="34.005"/>
			<g display="none">
				<g display="inline">
					<g>
						<g>
							<path fill="#BB9146" d="M374.003,729.144c0,0.61,0.262,1.155,0.785,1.635s1.188,0.894,1.994,1.242s1.711,0.654,2.714,0.916
								c1.003,0.261,1.983,0.479,2.942,0.653c0.959,0.175,1.842,0.316,2.648,0.425c0.807,0.109,1.428,0.207,1.864,0.295
								c0.959,0.131,2.224,0.349,3.793,0.653c1.569,0.306,3.116,0.72,4.643,1.243c1.525,0.522,2.845,1.198,3.956,2.027
								c1.111,0.828,1.668,1.853,1.668,3.073c0,1.177-0.491,2.201-1.472,3.073c-0.981,0.872-2.158,1.591-3.531,2.158
								c-1.373,0.566-2.769,1.014-4.186,1.34c-1.416,0.327-2.561,0.534-3.433,0.622c0,0.218,0.021,0.566,0.065,1.046
								s0.098,0.991,0.163,1.536c0.065,0.546,0.153,1.047,0.262,1.505c0.109,0.457,0.251,0.752,0.425,0.883H377.6
								c0.131-0.175,0.251-0.48,0.359-0.916c0.109-0.436,0.208-0.915,0.295-1.438s0.174-1.024,0.262-1.504
								c0.087-0.479,0.131-0.828,0.131-1.047c-3.706-0.349-7.324-1.067-10.855-2.157c-0.349-0.088-0.828-0.251-1.438-0.491
								c-0.61-0.239-1.242-0.49-1.896-0.751c-0.654-0.262-1.275-0.491-1.863-0.688c-0.589-0.196-1.014-0.294-1.275-0.294
								c0.087-0.044,0.393-0.283,0.915-0.72c0.523-0.436,1.079-0.904,1.668-1.405c0.588-0.502,1.133-0.97,1.635-1.406
								c0.501-0.436,0.773-0.72,0.817-0.85c2.311,1.481,4.839,2.561,7.585,3.236c2.747,0.676,5.472,1.014,8.175,1.014
								c0.261,0,0.839-0.021,1.732-0.065c0.894-0.043,1.82-0.152,2.779-0.327c0.959-0.174,1.82-0.392,2.583-0.653
								s1.145-0.633,1.145-1.112c0-0.61-0.621-1.101-1.864-1.471c-1.242-0.371-2.79-0.73-4.643-1.079s-3.869-0.73-6.049-1.145
								s-4.196-0.959-6.049-1.635s-3.4-1.515-4.643-2.518s-1.864-2.268-1.864-3.793c0-1.874,0.479-3.498,1.439-4.872
								c0.959-1.373,2.157-2.55,3.597-3.53c1.438-0.981,3.019-1.777,4.74-2.388c1.723-0.61,3.346-1.067,4.872-1.373
								c0-0.218-0.021-0.61-0.065-1.177s-0.098-1.145-0.163-1.733c-0.065-0.588-0.186-1.133-0.36-1.635
								c-0.174-0.501-0.393-0.795-0.653-0.883l11.64,0.131c-0.218,0.044-0.414,0.284-0.589,0.72
								c-0.174,0.436-0.327,0.915-0.458,1.438c-0.13,0.523-0.229,1.035-0.294,1.537c-0.065,0.501-0.098,0.839-0.098,1.014
								c1.481,0.087,2.942,0.272,4.381,0.556s2.714,0.752,3.825,1.405c1.112,0.654,2.006,1.537,2.682,2.648
								c0.676,1.112,1.014,2.54,1.014,4.283c0,0.916-0.076,1.831-0.229,2.747c-0.152,0.915-0.338,1.809-0.556,2.681h-8.763
								c0.262-0.653,0.479-1.329,0.654-2.027c0.174-0.697,0.262-1.416,0.262-2.157c0-1.788-0.534-3.03-1.603-3.728
								s-2.431-1.047-4.087-1.047c-0.915,0-2.081,0.099-3.498,0.295s-2.779,0.522-4.087,0.98c-1.309,0.458-2.441,1.101-3.401,1.93
								C374.483,726.899,374.003,727.923,374.003,729.144z"/>
						</g>
					</g>
				</g>
			</g>
			<g>
				<path fill="#BB9045" d="M384.174,744.979l-14.349-9.192l14.439,20.653l14.797-21.131L384.174,744.979z"/>
				<path fill="#BB9045" d="M398.343,732.533l-14.034-22.837l-14.033,22.991l13.911,8.888L398.343,732.533z"/>
			</g>
		</g>
		<g>
			<circle fill="#BB9146" cx="551.421" cy="829.795" r="54.792"/>
			<circle fill="#F8CE6D" cx="547.354" cy="832.055" r="54.792"/>
			<circle fill="#D3A953" cx="547.354" cy="832.055" r="48.579"/>
			<circle fill="#F8CE6D" cx="547.354" cy="832.055" r="34.005"/>
			<g display="none">
				<g display="inline">
					<g>
						<g>
							<path fill="#BB9146" d="M538.112,828.131c0,0.61,0.262,1.155,0.785,1.635s1.188,0.894,1.994,1.242s1.711,0.654,2.714,0.916
								c1.003,0.261,1.983,0.479,2.942,0.653c0.959,0.175,1.842,0.316,2.648,0.425c0.807,0.109,1.428,0.207,1.864,0.295
								c0.959,0.131,2.224,0.349,3.793,0.653c1.569,0.306,3.116,0.72,4.643,1.243c1.525,0.522,2.845,1.198,3.956,2.027
								c1.111,0.828,1.668,1.853,1.668,3.073c0,1.177-0.491,2.201-1.472,3.073c-0.981,0.872-2.158,1.591-3.531,2.158
								c-1.373,0.566-2.769,1.014-4.186,1.34c-1.416,0.327-2.561,0.534-3.433,0.622c0,0.218,0.021,0.566,0.065,1.046
								s0.098,0.991,0.163,1.536c0.065,0.546,0.153,1.047,0.262,1.505c0.109,0.457,0.251,0.752,0.425,0.883h-11.705
								c0.131-0.175,0.251-0.48,0.359-0.916c0.109-0.436,0.208-0.915,0.295-1.438s0.174-1.024,0.262-1.504
								c0.087-0.479,0.131-0.828,0.131-1.047c-3.706-0.349-7.324-1.067-10.855-2.157c-0.349-0.088-0.828-0.251-1.438-0.491
								c-0.61-0.239-1.242-0.49-1.896-0.751c-0.654-0.262-1.275-0.491-1.863-0.688c-0.589-0.196-1.014-0.294-1.275-0.294
								c0.087-0.044,0.393-0.283,0.915-0.72c0.523-0.436,1.079-0.904,1.668-1.405c0.588-0.502,1.133-0.97,1.635-1.406
								c0.501-0.436,0.773-0.72,0.817-0.85c2.311,1.481,4.839,2.561,7.585,3.236c2.747,0.676,5.472,1.014,8.175,1.014
								c0.261,0,0.839-0.021,1.732-0.065c0.894-0.043,1.82-0.152,2.779-0.327c0.959-0.174,1.82-0.392,2.583-0.653
								s1.145-0.633,1.145-1.112c0-0.61-0.621-1.101-1.864-1.471c-1.242-0.371-2.79-0.73-4.643-1.079s-3.869-0.73-6.049-1.145
								s-4.196-0.959-6.049-1.635s-3.4-1.515-4.643-2.518s-1.864-2.268-1.864-3.793c0-1.874,0.479-3.498,1.439-4.872
								c0.959-1.373,2.157-2.55,3.597-3.53c1.438-0.981,3.019-1.777,4.74-2.388c1.723-0.61,3.346-1.067,4.872-1.373
								c0-0.218-0.021-0.61-0.065-1.177s-0.098-1.145-0.163-1.733c-0.065-0.588-0.186-1.133-0.36-1.635
								c-0.174-0.501-0.393-0.795-0.653-0.883l11.64,0.131c-0.218,0.044-0.414,0.284-0.589,0.72
								c-0.174,0.436-0.327,0.915-0.458,1.438c-0.13,0.523-0.229,1.035-0.294,1.537c-0.065,0.501-0.098,0.839-0.098,1.014
								c1.481,0.087,2.942,0.272,4.381,0.556s2.714,0.752,3.825,1.405c1.112,0.654,2.006,1.537,2.682,2.648
								c0.676,1.112,1.014,2.54,1.014,4.283c0,0.916-0.076,1.831-0.229,2.747c-0.152,0.915-0.338,1.809-0.556,2.681h-8.763
								c0.262-0.653,0.479-1.329,0.654-2.027c0.174-0.697,0.262-1.416,0.262-2.157c0-1.788-0.534-3.03-1.603-3.728
								s-2.431-1.047-4.087-1.047c-0.915,0-2.081,0.099-3.498,0.295s-2.779,0.522-4.087,0.98c-1.309,0.458-2.441,1.101-3.401,1.93
								C538.591,825.886,538.112,826.91,538.112,828.131z"/>
						</g>
					</g>
				</g>
			</g>
			<g>
				<path fill="#BB9045" d="M548.283,843.966l-14.349-9.192l14.439,20.653l14.797-21.131L548.283,843.966z"/>
				<path fill="#BB9045" d="M562.452,831.52l-14.034-22.837l-14.033,22.991l13.911,8.888L562.452,831.52z"/>
			</g>
		</g>
		<g>
			<circle fill="#BB9146" cx="462.468" cy="971.381" r="54.792"/>
			<circle fill="#F8CE6D" cx="458.402" cy="973.641" r="54.792"/>
			<circle fill="#D3A953" cx="458.401" cy="973.641" r="48.579"/>
			<circle fill="#F8CE6D" cx="458.401" cy="973.641" r="34.005"/>
			<g display="none">
				<g display="inline">
					<g>
						<g>
							<path fill="#BB9146" d="M449.159,969.717c0,0.61,0.262,1.155,0.785,1.635s1.188,0.894,1.994,1.242s1.711,0.654,2.714,0.916
								c1.003,0.261,1.983,0.479,2.942,0.653c0.959,0.175,1.842,0.316,2.648,0.425c0.807,0.109,1.428,0.207,1.864,0.295
								c0.959,0.131,2.224,0.349,3.793,0.653c1.569,0.306,3.116,0.72,4.643,1.243c1.525,0.522,2.845,1.198,3.956,2.027
								c1.111,0.828,1.668,1.853,1.668,3.073c0,1.177-0.491,2.201-1.472,3.073c-0.981,0.872-2.158,1.591-3.531,2.158
								c-1.373,0.566-2.769,1.014-4.186,1.34c-1.416,0.327-2.561,0.534-3.433,0.622c0,0.218,0.021,0.566,0.065,1.046
								s0.098,0.991,0.163,1.536c0.065,0.546,0.153,1.047,0.262,1.505c0.109,0.457,0.251,0.752,0.425,0.883h-11.705
								c0.131-0.175,0.251-0.48,0.359-0.916c0.109-0.436,0.208-0.915,0.295-1.438s0.174-1.024,0.262-1.504
								c0.087-0.479,0.131-0.828,0.131-1.047c-3.706-0.349-7.324-1.067-10.855-2.157c-0.349-0.088-0.828-0.251-1.438-0.491
								c-0.61-0.239-1.242-0.49-1.896-0.751c-0.654-0.262-1.275-0.491-1.863-0.688c-0.589-0.196-1.014-0.294-1.275-0.294
								c0.087-0.044,0.393-0.283,0.915-0.72c0.523-0.436,1.079-0.904,1.668-1.405c0.588-0.502,1.133-0.97,1.635-1.406
								c0.501-0.436,0.773-0.72,0.817-0.85c2.311,1.481,4.839,2.561,7.585,3.236c2.747,0.676,5.472,1.014,8.175,1.014
								c0.261,0,0.839-0.021,1.732-0.065c0.894-0.043,1.82-0.152,2.779-0.327c0.959-0.174,1.82-0.392,2.583-0.653
								s1.145-0.633,1.145-1.112c0-0.61-0.621-1.101-1.864-1.471c-1.242-0.371-2.79-0.73-4.643-1.079s-3.869-0.73-6.049-1.145
								s-4.196-0.959-6.049-1.635s-3.4-1.515-4.643-2.518s-1.864-2.268-1.864-3.793c0-1.874,0.479-3.498,1.439-4.872
								c0.959-1.373,2.157-2.55,3.597-3.53c1.438-0.981,3.019-1.777,4.74-2.388c1.723-0.61,3.346-1.067,4.872-1.373
								c0-0.218-0.021-0.61-0.065-1.177s-0.098-1.145-0.163-1.733c-0.065-0.588-0.186-1.133-0.36-1.635
								c-0.174-0.501-0.393-0.795-0.653-0.883l11.64,0.131c-0.218,0.044-0.414,0.284-0.589,0.72
								c-0.174,0.436-0.327,0.915-0.458,1.438c-0.13,0.523-0.229,1.035-0.294,1.537c-0.065,0.501-0.098,0.839-0.098,1.014
								c1.481,0.087,2.942,0.272,4.381,0.556s2.714,0.752,3.825,1.405c1.112,0.654,2.006,1.537,2.682,2.648
								c0.676,1.112,1.014,2.54,1.014,4.283c0,0.916-0.076,1.831-0.229,2.747c-0.152,0.915-0.338,1.809-0.556,2.681h-8.763
								c0.262-0.653,0.479-1.329,0.654-2.027c0.174-0.697,0.262-1.416,0.262-2.157c0-1.788-0.534-3.03-1.603-3.728
								s-2.431-1.047-4.087-1.047c-0.915,0-2.081,0.099-3.498,0.295s-2.779,0.522-4.087,0.98c-1.309,0.458-2.441,1.101-3.401,1.93
								C449.639,967.472,449.159,968.496,449.159,969.717z"/>
						</g>
					</g>
				</g>
			</g>
			<g>
				<path fill="#BB9045" d="M459.33,985.552l-14.349-9.192l14.439,20.653l14.797-21.131L459.33,985.552z"/>
				<path fill="#BB9045" d="M473.499,973.105l-14.034-22.837l-14.033,22.991l13.911,8.888L473.499,973.105z"/>
			</g>
		</g>
		<g>
			<circle fill="#BB9146" cx="601.118" cy="1068.306" r="54.792"/>
			<circle fill="#F8CE6D" cx="597.052" cy="1070.565" r="54.792"/>
			<circle fill="#D3A953" cx="597.052" cy="1070.565" r="48.579"/>
			<circle fill="#F8CE6D" cx="597.052" cy="1070.565" r="34.005"/>
			<g display="none">
				<g display="inline">
					<g>
						<g>
							<path fill="#BB9146" d="M587.81,1066.642c0,0.61,0.262,1.155,0.785,1.635s1.188,0.894,1.994,1.242s1.711,0.654,2.714,0.916
								c1.003,0.261,1.983,0.479,2.942,0.653c0.959,0.175,1.842,0.316,2.648,0.425c0.807,0.109,1.428,0.207,1.864,0.295
								c0.959,0.131,2.224,0.349,3.793,0.653c1.569,0.306,3.116,0.72,4.643,1.243c1.525,0.522,2.845,1.198,3.956,2.027
								c1.111,0.828,1.668,1.853,1.668,3.073c0,1.177-0.491,2.201-1.472,3.073c-0.981,0.872-2.158,1.591-3.531,2.158
								c-1.373,0.566-2.769,1.014-4.186,1.34c-1.416,0.327-2.561,0.534-3.433,0.622c0,0.218,0.021,0.566,0.065,1.046
								s0.098,0.991,0.163,1.536c0.065,0.546,0.153,1.047,0.262,1.505c0.109,0.457,0.251,0.752,0.425,0.883h-11.705
								c0.131-0.175,0.251-0.48,0.359-0.916c0.109-0.436,0.208-0.915,0.295-1.438s0.174-1.024,0.262-1.504
								c0.087-0.479,0.131-0.828,0.131-1.047c-3.706-0.349-7.324-1.067-10.855-2.157c-0.349-0.088-0.828-0.251-1.438-0.491
								c-0.61-0.239-1.242-0.49-1.896-0.751c-0.654-0.262-1.275-0.491-1.863-0.688c-0.589-0.196-1.014-0.294-1.275-0.294
								c0.087-0.044,0.393-0.283,0.915-0.72c0.523-0.436,1.079-0.904,1.668-1.405c0.588-0.502,1.133-0.97,1.635-1.406
								c0.501-0.436,0.773-0.72,0.817-0.85c2.311,1.481,4.839,2.561,7.585,3.236c2.747,0.676,5.472,1.014,8.175,1.014
								c0.261,0,0.839-0.021,1.732-0.065c0.894-0.043,1.82-0.152,2.779-0.327c0.959-0.174,1.82-0.392,2.583-0.653
								s1.145-0.633,1.145-1.112c0-0.61-0.621-1.101-1.864-1.471c-1.242-0.371-2.79-0.73-4.643-1.079s-3.869-0.73-6.049-1.145
								s-4.196-0.959-6.049-1.635s-3.4-1.515-4.643-2.518s-1.864-2.268-1.864-3.793c0-1.874,0.479-3.498,1.439-4.872
								c0.959-1.373,2.157-2.55,3.597-3.53c1.438-0.981,3.019-1.777,4.74-2.388c1.723-0.61,3.346-1.067,4.872-1.373
								c0-0.218-0.021-0.61-0.065-1.177s-0.098-1.145-0.163-1.733c-0.065-0.588-0.186-1.133-0.36-1.635
								c-0.174-0.501-0.393-0.795-0.653-0.883l11.64,0.131c-0.218,0.044-0.414,0.284-0.589,0.72
								c-0.174,0.436-0.327,0.915-0.458,1.438c-0.13,0.523-0.229,1.035-0.294,1.537c-0.065,0.501-0.098,0.839-0.098,1.014
								c1.481,0.087,2.942,0.272,4.381,0.556s2.714,0.752,3.825,1.405c1.112,0.654,2.006,1.537,2.682,2.648
								c0.676,1.112,1.014,2.54,1.014,4.283c0,0.916-0.076,1.831-0.229,2.747c-0.152,0.915-0.338,1.809-0.556,2.681h-8.763
								c0.262-0.653,0.479-1.329,0.654-2.027c0.174-0.697,0.262-1.416,0.262-2.157c0-1.788-0.534-3.03-1.603-3.728
								s-2.431-1.047-4.087-1.047c-0.915,0-2.081,0.099-3.498,0.295s-2.779,0.522-4.087,0.98c-1.309,0.458-2.441,1.101-3.401,1.93
								C588.289,1064.396,587.81,1065.421,587.81,1066.642z"/>
						</g>
					</g>
				</g>
			</g>
			<g>
				<path fill="#BB9045" d="M597.98,1082.477l-14.349-9.192l14.439,20.653l14.797-21.131L597.98,1082.477z"/>
				<path fill="#BB9045" d="M612.149,1070.03l-14.034-22.837l-14.033,22.991l13.911,8.888L612.149,1070.03z"/>
			</g>
		</g>
		<g>
			<circle fill="#BB9146" cx="791.502" cy="1099.318" r="54.792"/>
			<circle fill="#F8CE6D" cx="787.436" cy="1101.578" r="54.792"/>
			<circle fill="#D3A953" cx="787.436" cy="1101.578" r="48.579"/>
			<circle fill="#F8CE6D" cx="787.436" cy="1101.578" r="34.005"/>
			<g display="none">
				<g display="inline">
					<g>
						<g>
							<path fill="#BB9146" d="M778.193,1097.654c0,0.61,0.262,1.155,0.785,1.635s1.188,0.894,1.994,1.242s1.711,0.654,2.714,0.916
								c1.003,0.261,1.983,0.479,2.942,0.653c0.959,0.175,1.842,0.316,2.648,0.425c0.807,0.109,1.428,0.207,1.864,0.295
								c0.959,0.131,2.224,0.349,3.793,0.653c1.569,0.306,3.116,0.72,4.643,1.243c1.525,0.522,2.845,1.198,3.956,2.027
								c1.111,0.828,1.668,1.853,1.668,3.073c0,1.177-0.491,2.201-1.472,3.073c-0.981,0.872-2.158,1.591-3.531,2.158
								c-1.373,0.566-2.769,1.014-4.186,1.34c-1.416,0.327-2.561,0.534-3.433,0.622c0,0.218,0.021,0.566,0.065,1.046
								s0.098,0.991,0.163,1.536c0.065,0.546,0.153,1.047,0.262,1.505c0.109,0.457,0.251,0.752,0.425,0.883H781.79
								c0.131-0.175,0.251-0.48,0.359-0.916c0.109-0.436,0.208-0.915,0.295-1.438s0.174-1.024,0.262-1.504
								c0.087-0.479,0.131-0.828,0.131-1.047c-3.706-0.349-7.324-1.067-10.855-2.157c-0.349-0.088-0.828-0.251-1.438-0.491
								c-0.61-0.239-1.242-0.49-1.896-0.751c-0.654-0.262-1.275-0.491-1.863-0.688c-0.589-0.196-1.014-0.294-1.275-0.294
								c0.087-0.044,0.393-0.283,0.915-0.72c0.523-0.436,1.079-0.904,1.668-1.405c0.588-0.502,1.133-0.97,1.635-1.406
								c0.501-0.436,0.773-0.72,0.817-0.85c2.311,1.481,4.839,2.561,7.585,3.236c2.747,0.676,5.472,1.014,8.175,1.014
								c0.261,0,0.839-0.021,1.732-0.065c0.894-0.043,1.82-0.152,2.779-0.327c0.959-0.174,1.82-0.392,2.583-0.653
								s1.145-0.633,1.145-1.112c0-0.61-0.621-1.101-1.864-1.471c-1.242-0.371-2.79-0.73-4.643-1.079s-3.869-0.73-6.049-1.145
								s-4.196-0.959-6.049-1.635s-3.4-1.515-4.643-2.518s-1.864-2.268-1.864-3.793c0-1.874,0.479-3.498,1.439-4.872
								c0.959-1.373,2.157-2.55,3.597-3.53c1.438-0.981,3.019-1.777,4.74-2.388c1.723-0.61,3.346-1.067,4.872-1.373
								c0-0.218-0.021-0.61-0.065-1.177s-0.098-1.145-0.163-1.733c-0.065-0.588-0.186-1.133-0.36-1.635
								c-0.174-0.501-0.393-0.795-0.653-0.883l11.64,0.131c-0.218,0.044-0.414,0.284-0.589,0.72
								c-0.174,0.436-0.327,0.915-0.458,1.438c-0.13,0.523-0.229,1.035-0.294,1.537c-0.065,0.501-0.098,0.839-0.098,1.014
								c1.481,0.087,2.942,0.272,4.381,0.556s2.714,0.752,3.825,1.405c1.112,0.654,2.006,1.537,2.682,2.648
								c0.676,1.112,1.014,2.54,1.014,4.283c0,0.916-0.076,1.831-0.229,2.747c-0.152,0.915-0.338,1.809-0.556,2.681h-8.763
								c0.262-0.653,0.479-1.329,0.654-2.027c0.174-0.697,0.262-1.416,0.262-2.157c0-1.788-0.534-3.03-1.603-3.728
								s-2.431-1.047-4.087-1.047c-0.915,0-2.081,0.099-3.498,0.295s-2.779,0.522-4.087,0.98c-1.309,0.458-2.441,1.101-3.401,1.93
								C778.673,1095.409,778.193,1096.434,778.193,1097.654z"/>
						</g>
					</g>
				</g>
			</g>
			<g>
				<path fill="#BB9045" d="M788.364,1113.489l-14.349-9.192l14.439,20.653l14.797-21.131L788.364,1113.489z"/>
				<path fill="#BB9045" d="M802.533,1101.043l-14.034-22.837l-14.033,22.991l13.911,8.888L802.533,1101.043z"/>
			</g>
		</g>
		<g display="none">
			<circle display="inline" fill="#BB9146" cx="553.043" cy="830.924" r="54.792"/>
			<circle display="inline" fill="#F8CE6D" cx="548.975" cy="833.184" r="54.792"/>
			<circle display="inline" fill="#D3A953" cx="548.976" cy="833.184" r="48.579"/>
			<circle display="inline" fill="#F8CE6D" cx="548.976" cy="833.184" r="34.005"/>
			<g display="inline">
				<g>
					<g>
						<g>
							<path fill="#BB9146" d="M539.734,829.261c0,0.61,0.261,1.155,0.785,1.635c0.523,0.479,1.188,0.894,1.994,1.242
								s1.711,0.654,2.714,0.916c1.003,0.261,1.983,0.479,2.943,0.654c0.959,0.174,1.842,0.316,2.648,0.425
								c0.806,0.109,1.427,0.207,1.864,0.294c0.959,0.131,2.223,0.349,3.792,0.654s3.117,0.719,4.643,1.242
								c1.525,0.523,2.844,1.199,3.956,2.027c1.112,0.828,1.667,1.853,1.667,3.073c0,1.177-0.49,2.202-1.471,3.074
								c-0.981,0.872-2.158,1.591-3.531,2.158c-1.374,0.567-2.769,1.014-4.185,1.34c-1.417,0.327-2.562,0.534-3.433,0.622
								c0,0.218,0.021,0.566,0.065,1.046c0.043,0.479,0.098,0.992,0.163,1.537c0.065,0.545,0.153,1.046,0.262,1.504
								s0.251,0.752,0.425,0.883H543.33c0.131-0.174,0.251-0.479,0.36-0.916s0.207-0.916,0.294-1.438
								c0.087-0.523,0.175-1.024,0.262-1.504c0.087-0.48,0.131-0.829,0.131-1.046c-3.706-0.349-7.324-1.068-10.855-2.158
								c-0.349-0.087-0.828-0.25-1.439-0.49c-0.61-0.24-1.242-0.491-1.896-0.752c-0.654-0.262-1.275-0.491-1.864-0.687
								c-0.588-0.196-1.014-0.294-1.275-0.294c0.087-0.044,0.393-0.283,0.916-0.719c0.523-0.436,1.079-0.905,1.667-1.406
								c0.589-0.501,1.134-0.97,1.635-1.406c0.501-0.436,0.774-0.719,0.817-0.85c2.311,1.482,4.839,2.561,7.585,3.237
								c2.747,0.676,5.472,1.014,8.174,1.014c0.262,0,0.839-0.022,1.733-0.065s1.82-0.152,2.779-0.327
								c0.959-0.174,1.82-0.392,2.583-0.654c0.763-0.261,1.145-0.632,1.145-1.112c0-0.61-0.622-1.101-1.864-1.471
								c-1.243-0.371-2.79-0.73-4.643-1.079c-1.853-0.349-3.869-0.73-6.049-1.145s-4.196-0.959-6.049-1.635
								c-1.853-0.676-3.4-1.515-4.643-2.518c-1.243-1.003-1.864-2.267-1.864-3.793c0-1.875,0.479-3.499,1.438-4.872
								c0.959-1.374,2.158-2.55,3.597-3.531s3.019-1.776,4.741-2.387c1.722-0.61,3.346-1.068,4.872-1.374
								c0-0.218-0.022-0.61-0.065-1.177c-0.044-0.567-0.098-1.145-0.164-1.733c-0.065-0.589-0.186-1.134-0.36-1.635
								c-0.174-0.501-0.392-0.796-0.654-0.883l11.64,0.131c-0.218,0.044-0.415,0.284-0.589,0.72
								c-0.174,0.436-0.327,0.916-0.458,1.438c-0.131,0.523-0.229,1.035-0.294,1.537s-0.098,0.839-0.098,1.014
								c1.482,0.087,2.943,0.272,4.381,0.556c1.438,0.284,2.714,0.752,3.826,1.406c1.111,0.654,2.005,1.537,2.681,2.648
								c0.675,1.112,1.013,2.54,1.013,4.284c0,0.915-0.076,1.831-0.229,2.747c-0.153,0.915-0.338,1.809-0.556,2.681h-8.763
								c0.262-0.654,0.479-1.33,0.654-2.027c0.174-0.698,0.261-1.417,0.261-2.158c0-1.787-0.534-3.03-1.602-3.727
								c-1.068-0.698-2.43-1.046-4.087-1.046c-0.916,0-2.082,0.098-3.499,0.294c-1.417,0.196-2.779,0.523-4.087,0.981
								c-1.308,0.458-2.441,1.101-3.4,1.929S539.734,828.04,539.734,829.261z"/>
						</g>
					</g>
				</g>
			</g>
		</g>
		<g display="none">
			<circle display="inline" fill="#BB9146" cx="791.502" cy="1100.447" r="54.792"/>
			<circle display="inline" fill="#F8CE6D" cx="787.435" cy="1102.707" r="54.792"/>
			<circle display="inline" fill="#D3A953" cx="787.435" cy="1102.707" r="48.579"/>
			<circle display="inline" fill="#F8CE6D" cx="787.436" cy="1102.707" r="34.005"/>
			<g display="inline">
				<g>
					<g>
						<g>
							<path fill="#BB9146" d="M778.193,1098.783c0,0.61,0.262,1.155,0.785,1.635c0.522,0.479,1.188,0.894,1.994,1.242
								c0.807,0.35,1.711,0.654,2.714,0.916s1.983,0.479,2.942,0.654c0.959,0.174,1.842,0.315,2.648,0.425
								c0.807,0.108,1.428,0.207,1.864,0.294c0.959,0.131,2.223,0.349,3.792,0.654c1.569,0.305,3.117,0.719,4.644,1.242
								c1.525,0.523,2.845,1.199,3.956,2.027s1.668,1.853,1.668,3.073c0,1.177-0.491,2.202-1.472,3.073
								c-0.981,0.872-2.158,1.592-3.531,2.158s-2.769,1.014-4.186,1.341s-2.561,0.534-3.433,0.621c0,0.218,0.021,0.566,0.065,1.046
								c0.043,0.479,0.098,0.992,0.163,1.537s0.152,1.046,0.262,1.504s0.251,0.752,0.425,0.883H781.79
								c0.131-0.174,0.251-0.479,0.359-0.916c0.109-0.436,0.207-0.915,0.295-1.438c0.087-0.522,0.174-1.024,0.262-1.504
								c0.087-0.479,0.13-0.828,0.13-1.046c-3.705-0.349-7.323-1.068-10.854-2.158c-0.349-0.087-0.828-0.251-1.438-0.49
								c-0.61-0.24-1.243-0.49-1.896-0.752c-0.654-0.262-1.275-0.49-1.864-0.687c-0.588-0.196-1.013-0.294-1.274-0.294
								c0.087-0.044,0.392-0.284,0.915-0.72c0.523-0.437,1.079-0.904,1.668-1.406c0.588-0.501,1.133-0.97,1.635-1.406
								c0.501-0.436,0.773-0.719,0.817-0.85c2.311,1.482,4.839,2.562,7.585,3.237c2.747,0.676,5.472,1.013,8.175,1.013
								c0.261,0,0.839-0.021,1.732-0.065c0.894-0.043,1.82-0.152,2.779-0.326c0.959-0.175,1.82-0.393,2.583-0.654
								s1.145-0.632,1.145-1.111c0-0.61-0.622-1.102-1.864-1.472s-2.79-0.73-4.643-1.079s-3.869-0.73-6.049-1.145
								s-4.196-0.959-6.049-1.635s-3.4-1.515-4.643-2.518c-1.243-1.002-1.864-2.267-1.864-3.792c0-1.875,0.479-3.499,1.438-4.872
								c0.96-1.373,2.158-2.551,3.597-3.531s3.02-1.776,4.741-2.387c1.723-0.61,3.346-1.068,4.872-1.373
								c0-0.219-0.022-0.61-0.065-1.178c-0.044-0.566-0.099-1.145-0.164-1.732c-0.065-0.589-0.185-1.134-0.359-1.635
								c-0.174-0.502-0.393-0.796-0.654-0.883l11.641,0.131c-0.219,0.043-0.414,0.283-0.589,0.719
								c-0.175,0.437-0.327,0.916-0.458,1.439c-0.131,0.522-0.229,1.035-0.294,1.536s-0.099,0.839-0.099,1.014
								c1.482,0.087,2.943,0.272,4.382,0.556s2.714,0.752,3.825,1.406c1.112,0.653,2.006,1.537,2.682,2.648s1.014,2.539,1.014,4.283
								c0,0.915-0.076,1.831-0.229,2.746c-0.152,0.916-0.338,1.81-0.556,2.682h-8.763c0.262-0.654,0.479-1.33,0.654-2.027
								c0.174-0.697,0.262-1.417,0.262-2.158c0-1.787-0.534-3.029-1.603-3.728c-1.068-0.697-2.431-1.046-4.087-1.046
								c-0.916,0-2.082,0.098-3.498,0.294c-1.417,0.196-2.779,0.523-4.088,0.981c-1.308,0.457-2.44,1.101-3.4,1.929
								C778.673,1096.538,778.193,1097.562,778.193,1098.783z"/>
						</g>
					</g>
				</g>
			</g>
		</g>
		<g display="none">
			<circle display="inline" fill="#BB9146" cx="602.034" cy="1067.572" r="54.792"/>
			<circle display="inline" fill="#F8CE6D" cx="597.966" cy="1069.832" r="54.792"/>
			<circle display="inline" fill="#D3A953" cx="597.966" cy="1069.832" r="48.579"/>
			<circle display="inline" fill="#F8CE6D" cx="597.967" cy="1069.832" r="34.005"/>
			<g display="inline">
				<g>
					<g>
						<g>
							<path fill="#BB9146" d="M588.725,1065.908c0,0.61,0.262,1.155,0.785,1.635s1.188,0.894,1.995,1.242
								c0.806,0.349,1.711,0.654,2.713,0.916c1.003,0.262,1.984,0.479,2.943,0.653c0.959,0.175,1.842,0.316,2.648,0.425
								c0.807,0.109,1.428,0.208,1.863,0.295c0.96,0.131,2.224,0.349,3.793,0.654c1.569,0.305,3.117,0.719,4.643,1.242
								c1.526,0.523,2.845,1.198,3.957,2.027c1.111,0.828,1.667,1.853,1.667,3.073c0,1.177-0.49,2.201-1.471,3.073
								c-0.981,0.872-2.158,1.591-3.531,2.158c-1.374,0.566-2.769,1.014-4.186,1.34c-1.417,0.327-2.562,0.534-3.433,0.621
								c0,0.219,0.021,0.567,0.064,1.047c0.044,0.479,0.099,0.992,0.164,1.537s0.152,1.046,0.262,1.504
								c0.108,0.457,0.25,0.752,0.425,0.883h-11.705c0.131-0.175,0.25-0.479,0.359-0.916c0.109-0.436,0.207-0.915,0.294-1.438
								c0.087-0.523,0.174-1.024,0.261-1.504c0.087-0.479,0.131-0.828,0.131-1.046c-3.706-0.35-7.324-1.068-10.855-2.158
								c-0.349-0.088-0.828-0.251-1.438-0.49c-0.61-0.24-1.243-0.491-1.896-0.752c-0.654-0.262-1.275-0.491-1.864-0.688
								c-0.588-0.195-1.014-0.294-1.275-0.294c0.087-0.044,0.392-0.283,0.916-0.72c0.523-0.436,1.079-0.904,1.667-1.405
								c0.588-0.502,1.133-0.97,1.635-1.406c0.501-0.436,0.773-0.72,0.817-0.85c2.311,1.481,4.839,2.561,7.585,3.236
								s5.471,1.014,8.174,1.014c0.262,0,0.839-0.021,1.733-0.065c0.894-0.043,1.82-0.152,2.78-0.327
								c0.959-0.174,1.819-0.392,2.583-0.653c0.763-0.262,1.144-0.633,1.144-1.112c0-0.61-0.621-1.101-1.863-1.471
								c-1.242-0.371-2.79-0.73-4.643-1.079c-1.853-0.349-3.869-0.73-6.049-1.145c-2.18-0.414-4.196-0.959-6.048-1.635
								c-1.853-0.676-3.4-1.515-4.643-2.518s-1.864-2.267-1.864-3.793c0-1.874,0.479-3.498,1.438-4.871
								c0.959-1.374,2.158-2.551,3.597-3.531c1.438-0.981,3.019-1.777,4.741-2.387c1.722-0.611,3.346-1.068,4.872-1.374
								c0-0.218-0.022-0.61-0.065-1.177s-0.098-1.145-0.164-1.732c-0.065-0.589-0.185-1.134-0.359-1.635
								c-0.174-0.502-0.393-0.796-0.654-0.884l11.64,0.131c-0.218,0.044-0.414,0.284-0.588,0.72
								c-0.175,0.436-0.327,0.916-0.458,1.438c-0.131,0.523-0.229,1.035-0.294,1.537c-0.065,0.501-0.099,0.839-0.099,1.014
								c1.482,0.087,2.943,0.272,4.382,0.556s2.714,0.752,3.825,1.406c1.111,0.653,2.005,1.536,2.681,2.647
								c0.676,1.112,1.014,2.54,1.014,4.284c0,0.915-0.076,1.83-0.229,2.746c-0.152,0.915-0.338,1.809-0.556,2.681h-8.763
								c0.262-0.653,0.479-1.329,0.653-2.026c0.175-0.698,0.262-1.417,0.262-2.158c0-1.788-0.533-3.03-1.602-3.728
								s-2.431-1.046-4.087-1.046c-0.916,0-2.082,0.098-3.499,0.294c-1.417,0.196-2.779,0.522-4.087,0.98
								c-1.308,0.458-2.441,1.101-3.4,1.93C589.204,1063.663,588.725,1064.688,588.725,1065.908z"/>
						</g>
					</g>
				</g>
			</g>
		</g>
		<g display="none">
			<circle display="inline" fill="#BB9146" cx="387.313" cy="731.938" r="54.792"/>
			<circle display="inline" fill="#F8CE6D" cx="383.246" cy="734.197" r="54.792"/>
			<circle display="inline" fill="#D3A953" cx="383.246" cy="734.197" r="48.579"/>
			<circle display="inline" fill="#F8CE6D" cx="383.246" cy="734.197" r="34.005"/>
			<g display="inline">
				<g>
					<g>
						<g>
							<path fill="#BB9146" d="M374.004,730.274c0,0.61,0.262,1.155,0.785,1.635s1.188,0.894,1.995,1.243
								c0.806,0.349,1.711,0.654,2.713,0.916c1.003,0.261,1.984,0.479,2.943,0.654s1.842,0.316,2.648,0.425
								c0.807,0.109,1.428,0.207,1.864,0.294c0.959,0.131,2.223,0.349,3.792,0.654s3.117,0.719,4.643,1.243
								c1.526,0.523,2.844,1.199,3.956,2.027c1.112,0.828,1.667,1.853,1.667,3.073c0,1.177-0.49,2.202-1.471,3.073
								c-0.981,0.872-2.158,1.591-3.531,2.158c-1.373,0.567-2.768,1.013-4.185,1.34s-2.561,0.534-3.433,0.622
								c0,0.218,0.022,0.566,0.065,1.046c0.043,0.48,0.098,0.992,0.164,1.537c0.065,0.544,0.152,1.046,0.261,1.504
								c0.109,0.458,0.251,0.752,0.425,0.883h-11.705c0.13-0.174,0.25-0.48,0.359-0.916c0.109-0.436,0.207-0.916,0.294-1.438
								c0.087-0.523,0.174-1.025,0.262-1.504c0.087-0.479,0.13-0.828,0.13-1.046c-3.706-0.349-7.324-1.068-10.855-2.158
								c-0.349-0.087-0.828-0.25-1.438-0.491c-0.61-0.239-1.243-0.49-1.896-0.752c-0.654-0.261-1.275-0.49-1.864-0.687
								c-0.588-0.196-1.014-0.294-1.275-0.294c0.087-0.044,0.392-0.284,0.916-0.72c0.523-0.436,1.079-0.904,1.667-1.406
								c0.588-0.501,1.133-0.97,1.635-1.406s0.773-0.719,0.817-0.85c2.311,1.482,4.839,2.561,7.585,3.237s5.471,1.014,8.174,1.014
								c0.262,0,0.839-0.022,1.733-0.065c0.894-0.044,1.82-0.153,2.779-0.327s1.82-0.392,2.583-0.654s1.145-0.632,1.145-1.112
								c0-0.61-0.622-1.101-1.864-1.471c-1.243-0.371-2.79-0.73-4.643-1.079c-1.853-0.349-3.869-0.73-6.049-1.144
								c-2.18-0.415-4.196-0.959-6.048-1.635c-1.853-0.676-3.401-1.515-4.643-2.518c-1.243-1.002-1.864-2.267-1.864-3.792
								c0-1.875,0.479-3.499,1.438-4.872c0.959-1.373,2.158-2.55,3.597-3.531s3.019-1.777,4.741-2.387
								c1.722-0.61,3.346-1.068,4.872-1.373c0-0.218-0.022-0.61-0.065-1.177c-0.043-0.566-0.098-1.144-0.164-1.732
								c-0.065-0.589-0.185-1.134-0.359-1.635c-0.175-0.501-0.393-0.795-0.654-0.883l11.64,0.131
								c-0.218,0.044-0.414,0.284-0.588,0.719c-0.175,0.436-0.327,0.916-0.458,1.439c-0.131,0.523-0.229,1.035-0.294,1.537
								s-0.098,0.839-0.098,1.014c1.482,0.087,2.943,0.272,4.381,0.556c1.439,0.284,2.714,0.752,3.826,1.406
								c1.112,0.654,2.005,1.537,2.681,2.648c0.676,1.112,1.014,2.54,1.014,4.283c0,0.916-0.077,1.831-0.229,2.747
								c-0.153,0.916-0.338,1.809-0.556,2.681h-8.763c0.261-0.654,0.479-1.33,0.654-2.027c0.174-0.697,0.262-1.417,0.262-2.158
								c0-1.788-0.534-3.03-1.602-3.728c-1.068-0.697-2.431-1.046-4.087-1.046c-0.916,0-2.082,0.098-3.499,0.294
								c-1.417,0.196-2.779,0.523-4.087,0.981c-1.308,0.458-2.441,1.101-3.4,1.929C374.483,728.029,374.004,729.053,374.004,730.274
								z"/>
						</g>
					</g>
				</g>
			</g>
		</g>
		<g display="none">
			<circle display="inline" fill="#BB9146" cx="460.435" cy="970.252" r="54.792"/>
			<circle display="inline" fill="#F8CE6D" cx="456.368" cy="972.511" r="54.792"/>
			<circle display="inline" fill="#D3A953" cx="456.368" cy="972.511" r="48.579"/>
			<circle display="inline" fill="#F8CE6D" cx="456.368" cy="972.511" r="34.005"/>
			<g display="inline">
				<g>
					<g>
						<g>
							<path fill="#BB9146" d="M447.126,968.588c0,0.609,0.261,1.154,0.785,1.635c0.523,0.479,1.188,0.894,1.994,1.242
								c0.807,0.349,1.711,0.654,2.714,0.915c1.003,0.262,1.984,0.479,2.943,0.654s1.842,0.316,2.648,0.425
								c0.806,0.109,1.428,0.207,1.863,0.295c0.959,0.131,2.224,0.349,3.793,0.653c1.569,0.306,3.117,0.72,4.643,1.243
								c1.525,0.522,2.844,1.198,3.956,2.026c1.112,0.829,1.667,1.853,1.667,3.073c0,1.178-0.49,2.202-1.471,3.074
								c-0.981,0.871-2.158,1.591-3.531,2.157c-1.374,0.567-2.769,1.014-4.185,1.341c-1.417,0.327-2.562,0.534-3.433,0.621
								c0,0.218,0.021,0.567,0.065,1.047c0.043,0.479,0.098,0.991,0.164,1.536s0.152,1.047,0.261,1.504
								c0.109,0.458,0.25,0.752,0.425,0.883h-11.706c0.131-0.174,0.251-0.479,0.36-0.915s0.207-0.916,0.294-1.438
								c0.087-0.523,0.174-1.024,0.261-1.504c0.087-0.479,0.131-0.829,0.131-1.047c-3.706-0.349-7.324-1.068-10.855-2.157
								c-0.349-0.088-0.829-0.251-1.439-0.491c-0.61-0.239-1.242-0.49-1.896-0.752s-1.275-0.49-1.864-0.687
								s-1.014-0.294-1.275-0.294c0.087-0.044,0.393-0.283,0.916-0.72c0.523-0.436,1.079-0.904,1.667-1.405
								c0.589-0.502,1.134-0.971,1.635-1.406c0.501-0.437,0.774-0.72,0.817-0.851c2.311,1.482,4.839,2.562,7.586,3.237
								c2.746,0.676,5.471,1.014,8.174,1.014c0.262,0,0.839-0.021,1.733-0.065s1.82-0.152,2.779-0.327s1.82-0.393,2.583-0.653
								c0.763-0.262,1.144-0.633,1.144-1.112c0-0.61-0.621-1.101-1.863-1.472c-1.243-0.37-2.79-0.729-4.643-1.078
								c-1.853-0.35-3.869-0.73-6.049-1.145s-4.196-0.959-6.049-1.635c-1.853-0.676-3.4-1.516-4.643-2.518
								c-1.243-1.003-1.864-2.268-1.864-3.793c0-1.875,0.479-3.498,1.438-4.872c0.959-1.373,2.158-2.55,3.597-3.531
								c1.438-0.98,3.019-1.776,4.741-2.387c1.722-0.61,3.346-1.068,4.872-1.373c0-0.218-0.022-0.61-0.065-1.177
								c-0.043-0.567-0.098-1.145-0.164-1.733c-0.065-0.588-0.186-1.133-0.36-1.635c-0.174-0.501-0.392-0.796-0.654-0.883
								l11.64,0.131c-0.218,0.044-0.415,0.283-0.589,0.72c-0.174,0.436-0.327,0.915-0.458,1.438s-0.229,1.035-0.294,1.536
								c-0.065,0.502-0.098,0.84-0.098,1.014c1.482,0.088,2.943,0.272,4.381,0.557c1.439,0.283,2.714,0.752,3.826,1.405
								c1.111,0.654,2.005,1.537,2.681,2.648c0.675,1.111,1.013,2.54,1.013,4.283c0,0.916-0.076,1.831-0.229,2.747
								c-0.153,0.915-0.338,1.809-0.556,2.681h-8.762c0.261-0.654,0.479-1.33,0.654-2.027s0.261-1.417,0.261-2.157
								c0-1.788-0.534-3.03-1.602-3.728c-1.068-0.698-2.43-1.047-4.087-1.047c-0.916,0-2.082,0.099-3.499,0.295
								s-2.779,0.522-4.087,0.98s-2.441,1.101-3.4,1.929S447.126,967.367,447.126,968.588z"/>
						</g>
					</g>
				</g>
			</g>
		</g>
		<g display="none">
			<circle display="inline" fill="#BB9146" cx="700.083" cy="742.738" r="54.792"/>
			<circle display="inline" fill="#F8CE6D" cx="696.016" cy="744.997" r="54.792"/>
			<circle display="inline" fill="#D3A953" cx="696.016" cy="744.997" r="48.579"/>
			<circle display="inline" fill="#F8CE6D" cx="696.017" cy="744.997" r="34.005"/>
			<g display="inline">
				<g>
					<g>
						<g>
							<path fill="#BB9146" d="M686.774,741.074c0,0.61,0.262,1.155,0.785,1.635c0.522,0.479,1.188,0.894,1.994,1.242
								c0.807,0.349,1.711,0.654,2.714,0.916c1.003,0.262,1.983,0.479,2.942,0.654c0.959,0.174,1.842,0.316,2.648,0.425
								s1.428,0.207,1.863,0.294c0.96,0.13,2.224,0.349,3.793,0.654s3.117,0.719,4.643,1.243c1.526,0.523,2.845,1.199,3.957,2.027
								c1.111,0.828,1.667,1.853,1.667,3.073c0,1.177-0.49,2.202-1.471,3.074c-0.981,0.872-2.158,1.591-3.531,2.158
								c-1.374,0.567-2.769,1.014-4.186,1.341s-2.562,0.534-3.433,0.621c0,0.218,0.021,0.567,0.065,1.046
								c0.043,0.479,0.098,0.992,0.163,1.537s0.152,1.046,0.262,1.504c0.109,0.458,0.25,0.752,0.425,0.883h-11.705
								c0.131-0.174,0.251-0.479,0.359-0.916c0.109-0.436,0.207-0.916,0.294-1.438c0.088-0.523,0.175-1.024,0.262-1.504
								c0.088-0.479,0.131-0.829,0.131-1.046c-3.705-0.349-7.323-1.068-10.854-2.158c-0.349-0.087-0.829-0.25-1.438-0.49
								c-0.61-0.24-1.243-0.49-1.896-0.752c-0.654-0.262-1.275-0.49-1.864-0.687s-1.014-0.294-1.275-0.294
								c0.088-0.043,0.393-0.283,0.916-0.719s1.079-0.904,1.667-1.406c0.589-0.501,1.134-0.97,1.635-1.406
								c0.502-0.436,0.774-0.719,0.818-0.85c2.31,1.482,4.839,2.562,7.585,3.237c2.746,0.675,5.472,1.013,8.174,1.013
								c0.262,0,0.84-0.021,1.733-0.065c0.894-0.043,1.82-0.152,2.779-0.327c0.959-0.175,1.819-0.393,2.583-0.654
								c0.763-0.261,1.144-0.632,1.144-1.111c0-0.61-0.621-1.101-1.863-1.472c-1.242-0.37-2.79-0.73-4.643-1.079
								c-1.853-0.349-3.869-0.73-6.049-1.145s-4.196-0.959-6.049-1.635s-3.4-1.515-4.643-2.518
								c-1.243-1.003-1.864-2.267-1.864-3.792c0-1.875,0.479-3.499,1.438-4.872s2.158-2.55,3.597-3.531s3.02-1.776,4.741-2.387
								s3.346-1.068,4.872-1.373c0-0.218-0.022-0.61-0.065-1.177c-0.044-0.567-0.099-1.145-0.164-1.733s-0.186-1.133-0.359-1.635
								c-0.175-0.501-0.393-0.796-0.654-0.883l11.641,0.131c-0.219,0.043-0.415,0.283-0.589,0.719
								c-0.175,0.436-0.327,0.916-0.458,1.438c-0.131,0.523-0.229,1.036-0.294,1.537c-0.065,0.501-0.099,0.839-0.099,1.014
								c1.482,0.087,2.943,0.272,4.382,0.556c1.438,0.283,2.714,0.752,3.825,1.406s2.006,1.537,2.682,2.648s1.013,2.539,1.013,4.283
								c0,0.916-0.076,1.831-0.229,2.747s-0.338,1.809-0.556,2.681h-8.763c0.262-0.654,0.479-1.33,0.654-2.027
								c0.174-0.698,0.261-1.417,0.261-2.158c0-1.787-0.533-3.029-1.602-3.727s-2.431-1.046-4.087-1.046
								c-0.916,0-2.082,0.098-3.499,0.294c-1.416,0.196-2.779,0.523-4.087,0.981c-1.308,0.458-2.441,1.101-3.4,1.929
								C687.254,738.829,686.774,739.853,686.774,741.074z"/>
						</g>
					</g>
				</g>
			</g>
		</g>
	</g>
	<g>
		<path fill="#FFFFFF" d="M736.424,586.718c-1.865-33.554-39.18-60.819-86.781-64.389c-16.888-20.07-48.323-33.564-84.319-33.564
			c-32.954,0-62.086,11.31-79.732,28.621c-15.699-7.477-34.72-11.857-55.223-11.857c-37.05,0-69.271,14.293-85.767,35.342
			c-52.944,0.716-95.546,30.619-95.546,67.406c0,17.394,9.526,33.249,25.165,45.208c-0.894,3.669-1.366,7.437-1.366,11.281
			c0,37.237,43.647,67.423,97.49,67.423c12.454,0,24.36-1.618,35.309-4.561c16.876,9.676,38.546,15.495,62.181,15.495
			c29.97,0,56.777-9.356,74.66-24.071c11.52,3.313,24.154,5.146,37.409,5.146c26.689,0,50.87-7.42,68.475-19.437
			c9.165,1.973,18.911,3.037,29.015,3.037c53.843,0,97.49-30.186,97.49-67.423C774.883,618.484,759.795,599.035,736.424,586.718z"/>
		<g>
			<g>
				<polygon fill="#CFD5D6" points="561.087,573.305 302.468,573.305 299.086,508.622 566.188,508.622 				"/>
				<g>
					<polygon fill="#FFFFFF" points="306.623,463.795 549.538,463.795 570.569,495.253 296.632,495.253 					"/>
					<rect x="296.632" y="495.253" fill="#CFD5D6" width="273.937" height="13.369"/>
				</g>
				<rect x="511.969" y="477.945" fill="#E1E5E4" width="40.237" height="10.82"/>
				<polygon fill="#FFFFFF" points="529.721,457.657 552.206,477.945 512.307,478.026 495.401,457.657 				"/>
				<polygon fill="#CFD5D6" points="512.307,478.026 512.307,488.765 495.401,467.801 495.401,457.657 				"/>
				<polygon fill="#FFFFFF" points="333.851,458.3 429.975,458.3 449.396,466.11 443.972,470.058 327.937,471.086 				"/>
				<polygon fill="#E1E5E4" points="392.219,300.422 340.307,317.333 312.584,477.073 451.204,477.073 449.396,466.11 
					336.974,466.569 356.326,342.691 395.755,342.691 				"/>
				<polygon fill="#CFD5D6" points="364.039,215.064 375.953,214.339 411.703,238.912 427.208,414.77 391.72,445.017 
					378.037,445.017 				"/>
				<polygon fill="#FFFFFF" points="408.548,246.274 377.187,225.239 390.859,438.117 422.746,411.347 				"/>
			</g>
			<g>
				<g>
					<path fill="#545555" d="M756.922,265.285c0,0,59.091,14.135,11.136,109.748L756.922,265.285z"/>
					<path fill="#545555" d="M722.786,412.656c-12.993,8.903-12.109-38.258-6.976-71.248c5.135-32.994,27.329-53.399,42.895-50.976
						c15.567,2.422,26.655-25.888,17.123,52.789C769.844,392.626,724.692,411.351,722.786,412.656z"/>
					<path fill="#FCDBCD" d="M773.475,371.232c5.171-31.19-21.944-29.097-26.337-23.565c-8.235,10.375-14.679,50.899-14.679,50.899
						C764.479,401.313,773.475,371.232,773.475,371.232z"/>
					<path fill="#CFD5D6" d="M747.392,444.854c0-26.567-21.015-48.104-46.937-48.104c-25.923,0-46.937,21.537-46.937,48.104
						c0,12.54,4.684,23.954,12.353,32.517c-3.014-0.084-6.085-0.128-9.206-0.128c-39.199,0-70.975,6.811-70.975,15.209
						c0,7.851,27.755,14.312,63.385,15.124c-5.142,8.927-10.856,21.984-10.401,35.362c-36.496,0.628-65.2,7.176-65.2,15.159
						c0,8.4,31.777,15.209,70.977,15.209c39.2,0,70.976-6.809,70.976-15.209c0-7.979-28.668-14.521-65.134-15.158
						c-0.678-13.874,7.775-28.388,12.487-35.333c36.338-0.665,64.863-7.194,64.863-15.154c0-1.905-1.643-3.728-4.627-5.409
						C737.542,478.864,747.392,463.039,747.392,444.854z"/>
					<path fill="#545555" d="M627.743,479.933l-44.441,18.193c-4.065-6.904-9.831-13.54-12.515-12.294
						c-2.88,1.334,5.706,13.346,9.434,21.381l70.021-19.861L627.743,479.933z"/>
					<polygon fill="#FFFFFF" points="610.225,417.386 615.3,485.027 700.215,492.236 704.497,401.202 					"/>
					<polygon fill="#FFFFFF" points="619.083,411.347 691.456,412.461 682.788,457.183 647.646,479.933 625.693,454.058 					"/>
					<polygon fill="#E96264" points="644.59,433.048 650.56,428.14 656.659,432.834 652.394,439.405 657.209,474.148 
						650.696,483.867 644.485,473.064 648.605,439.442 					"/>
					<polygon fill="#FFFFFF" points="647.849,430.15 641.05,442.118 626.944,425.414 					"/>
					<g>
						<polygon fill="#FFFFFF" points="654.348,430.907 660.455,443.241 675.488,427.362 						"/>
						<g>
							<g>
								<g>
									<path fill="#D7D6D6" d="M627.051,424.938c3.477,0.819,6.952,1.652,10.418,2.516c1.732,0.434,3.467,0.864,5.194,1.322
										c1.729,0.454,3.46,0.897,5.186,1.374c-1.763-0.311-3.515-0.658-5.269-0.993c-1.758-0.332-3.509-0.692-5.26-1.045
										c-3.03-0.621-6.053-1.265-9.074-1.919l2.612,3.068l3.523,4.181c1.173,1.392,2.338,2.793,3.497,4.198
										c1.046,1.262,2.086,2.527,3.122,3.798c1.068-1.814,2.149-3.62,3.236-5.424c1.204-1.955,2.38-3.924,3.611-5.864
										c-1.037,2.051-2.127,4.068-3.188,6.104c-1.081,2.023-2.166,4.044-3.27,6.056l-0.267,0.483l-0.373-0.425
										c-1.203-1.368-2.396-2.748-3.584-4.128c-1.191-1.378-2.376-2.762-3.554-4.152l-3.533-4.171l-3.51-4.19l-0.941-1.123
										L627.051,424.938z"/>
								</g>
								<g>
									<path fill="#D7D6D6" d="M664.861,428.8c3.51-0.663,7.027-1.298,10.543-1.92l1.44-0.254l-1.005,1.07l-3.742,3.984
										l-3.762,3.964c-1.254,1.322-2.519,2.636-3.786,3.945c-1.263,1.311-2.53,2.619-3.812,3.918l-0.396,0.404l-0.237-0.5
										c-0.988-2.068-1.958-4.149-2.92-6.231c-0.947-2.089-1.921-4.167-2.838-6.274c1.119,2.006,2.181,4.039,3.27,6.06
										c0.985,1.862,1.962,3.728,2.927,5.6c1.105-1.211,2.216-2.416,3.332-3.616c1.237-1.338,2.48-2.671,3.73-3.993l3.753-3.979
										l2.781-2.914c-3.053,0.482-6.107,0.954-9.168,1.401c-1.768,0.254-3.536,0.514-5.308,0.747
										c-1.772,0.237-3.542,0.485-5.317,0.693c1.748-0.381,3.501-0.724,5.255-1.076C661.353,429.47,663.106,429.138,664.861,428.8
										z"/>
								</g>
							</g>
						</g>
					</g>
					<path opacity="0.2" fill="#2A302D" d="M703.495,422.403c-8.644,57.529-88.195,62.624-88.195,62.624l-0.177-2.35l58.596-29.395
						L703.495,422.403z"/>
					<path fill="#F8D3C0" d="M588.223,470.505c0,0-39.508-8.549-21.232-0.177c0,0-26.281-6.394-11.401,1.185
						c0,0-13.629-1.312-1.8,4.182c0,0-12.099,1.302,0.617,2.967c0,0-13.61,2.406,3.875,2.786c0,0,17.776,1.313,29.889,1.062
						L588.223,470.505z"/>
					<path fill="#FFFFFF" d="M703.499,422.399c0,0-4.21,47.116-81.965,59.438c-9.952,1.577-29.529,2.956-45.309,2.03l2.254-17.061
						c0,0,19.126,2.036,37.645,0C638.875,464.308,666.606,452.81,703.499,422.399z"/>
					<path fill="#FCDBCD" d="M533.204,369.408c0,0-21.281-34.367-14.615-15.402c0,0-13.647-23.353-8.769-7.382
						c0,0-8.52-10.719-4.26,1.608c0,0-9.338-7.802-1.706,2.504c0,0-11.182-8.123,0.686,4.722c0,0,11.398,13.704,19.99,22.247
						L533.204,369.408z"/>
					<path fill="#FFFFFF" d="M647.865,418.961c0,0-36.829,29.686-99.686-17.713c-8.045-6.067-22.631-19.198-32.921-31.196
						l13.843-10.224c0,0,11.815,15.177,26.139,27.09C572.834,401.555,600.364,413.527,647.865,418.961z"/>
					<path fill="#FCDBCD" d="M747.947,366.533c-6.876,44.029-55.72,72.966-109.087,64.63
						c-53.371-8.337-78.454-56.242-71.576-100.275c6.876-44.028,35.188-97.063,128.163-86.252
						C784.698,255.015,754.824,322.502,747.947,366.533z"/>
					<g>
						<path fill="#FFFFFF" d="M698.569,354.138c-4.232,10.85-16.459,16.213-27.312,11.979
							c-10.851-4.231-16.213-16.461-11.979-27.314c4.23-10.848,16.458-16.216,27.311-11.982
							C697.44,331.057,702.804,343.288,698.569,354.138z"/>
						<path fill="#545555" d="M687.801,352.24c-2.621,6.721-10.196,10.044-16.916,7.421c-6.721-2.62-10.041-10.194-7.419-16.916
							c2.623-6.716,10.195-10.041,16.914-7.419C687.1,337.953,690.421,345.52,687.801,352.24z"/>
					</g>
					<g>
						<path fill="#FFFFFF" d="M624.196,347.322c-3.694,10.74-15.396,16.454-26.14,12.76c-10.742-3.695-16.451-15.4-12.757-26.145
							c3.692-10.737,15.394-16.453,26.137-12.758C622.181,324.874,627.891,336.58,624.196,347.322z"/>
						<path fill="#545555" d="M620.108,345.13c-2.347,6.822-9.78,10.454-16.6,8.104c-6.824-2.341-10.451-9.776-8.104-16.598
							c2.346-6.819,9.777-10.449,16.6-8.104C618.826,330.882,622.452,338.311,620.108,345.13z"/>
					</g>
					<path fill="#545555" d="M555.797,208.473c5.733-21.393,18.551-34.43,31.058-42.314c10.79-6.805,21.34-9.776,26.906-10.971
						c2.552-0.546,4.061-0.723,4.061-0.723c-0.439,0.615-0.86,1.225-1.266,1.828c-4.52,6.706-7.881,12.621-8.315,18.127
						c-2.563,32.522,69.785,42.107,81.429,44.546c57.36,12.006,65.628,36.487,67.253,46.318
						c8.928,1.784,23.103,16.999,18.614,32.159c0.641,3.264-2.155,9.068-5.388,16.764c-10.8,24.776-34.035,55.803-40.25,54.834
						c-6.897-1.075-0.839-40.782,3.004-64.335c-42.58-3.663-103.596-10.958-118.96-14.883
						C578.446,280.755,545.988,271.278,555.797,208.473z"/>
					<path fill="#E96264" d="M694.695,390.917l-45.869,20.504c0,0,14.173,5.761,27.069,5.773
						C689.647,417.206,701.962,410.887,694.695,390.917z"/>
					<path fill="#545555" d="M667.812,164.3c-30.232,16.819-12.841,36.702,3.685,47.282c8.809,5.638,18.172,7.384,18.172,7.384
						l-8.597,9.074l-71.139-35.711C617.126,161.036,667.812,164.3,667.812,164.3z"/>
				</g>
				<path fill="#545555" d="M615.3,485.027c0,0,56.876,43.805,81.867,6.95L615.3,485.027z"/>
				<path fill="#545555" d="M658.124,496.88l-44.441,18.193c-4.066-6.904-9.831-13.54-12.515-12.294
					c-2.88,1.334,5.706,13.346,9.434,21.381l72.686-21.248L658.124,496.88z"/>
			</g>
		</g>
	</g>
	<g>
		<path fill="#78B0C0" d="M889.572,1726.13c0,9.395-106.883,17.02-238.723,17.02c-131.847,0-238.728-7.625-238.728-17.02
			c0-9.397,106.88-17.02,238.728-17.02C782.689,1709.11,889.572,1716.732,889.572,1726.13z"/>
		<g>
			<polygon fill="#CE4E55" points="570.09,1216.361 574.407,1222.497 573.866,1269.627 517.673,1284.338 486.01,1283.975 
				471.093,1215.225 			"/>
			<path fill="#E96264" d="M458.401,1156.727c51.102-6.82,88.647,27.967,111.688,59.635l-93.237,25.408L458.401,1156.727z"/>
			<polygon fill="#3D6B8B" points="487.786,1292.162 486.01,1283.975 517.673,1284.338 			"/>
		</g>
		<g>
			<path fill="#3D6B8B" d="M523.137,1611.007c0.099-8.601,7.153-15.494,15.754-15.396l62.454,0.717
				c8.603,0.1,15.495,7.154,15.396,15.754l-0.137,11.946l-93.605-1.075L523.137,1611.007z"/>
			
				<rect x="713.349" y="1612.057" transform="matrix(0.0115 -0.9999 0.9999 0.0115 -920.64 2386.4517)" fill="#CE4E55" width="66.675" height="93.611"/>
			<path fill="#E96264" d="M615.608,1710.731c-0.099,8.604-7.152,15.496-15.755,15.397l-62.454-0.718
				c-8.601-0.099-15.496-7.151-15.397-15.755l0.23-20.032l93.604,1.075L615.608,1710.731z"/>
			
				<rect x="536.081" y="1610.021" transform="matrix(0.0115 -0.9999 0.9999 0.0115 -1093.8446 2207.158)" fill="#CE4E55" width="66.675" height="93.611"/>
			<path fill="#E96264" d="M792.877,1712.768c-0.1,8.604-7.152,15.496-15.754,15.397l-62.453-0.718
				c-8.604-0.099-15.497-7.151-15.398-15.755l0.23-20.032l93.604,1.075L792.877,1712.768z"/>
			<path fill="#3D6B8B" d="M700.404,1613.043c0.1-8.6,7.152-15.494,15.757-15.396l62.453,0.718
				c8.602,0.099,15.494,7.152,15.396,15.753l-0.138,11.946l-93.604-1.075L700.404,1613.043z"/>
		</g>
		
			<ellipse transform="matrix(0.9999 0.0115 -0.0115 0.9999 16.6416 -7.5908)" fill="#E96264" cx="669.185" cy="1445.025" rx="273.348" ry="243.391"/>
		<path fill="#E96264" d="M427.792,1486.985l-77.638,21.576c0,0,19.195,176.222,322.507,177.211L427.792,1486.985z"/>
		<path fill="#E96264" d="M942.242,1488.554c-18.214-0.209-34.464-7.566-48.567-13.949c-2.62-1.188-5.096-2.307-7.571-3.383
			l5.175-11.905c2.566,1.114,5.201,2.308,7.751,3.462c22.054,9.983,44.856,20.309,72.092,5.157
			c8.124-4.52,16.985-15.761,20.514-28.365c-10.198,1.82-22.763-0.023-31.154-5.405c-7.763-4.976-11.201-12.63-9.436-20.999
			c2.233-10.591,10.082-17.376,20.997-18.148c12.6-0.895,25.875,6.315,30.714,16.349c0.797-4.733,0.504-9.828-0.557-14.331
			c-1.969-8.331-7.368-17.814-16.626-19.448l2.256-12.783c12.936,2.281,23.282,13.489,27.004,29.248
			c3.582,15.18,0.144,29.838-8.77,38.52c-1.604,20.346-15.39,39.342-28.633,46.708
			C965.011,1486.188,953.267,1488.681,942.242,1488.554z M974.315,1407.926c-0.456-0.005-0.908,0.01-1.355,0.041
			c-7.667,0.543-8.829,6.065-9.215,7.88c-0.457,2.176-0.373,4.755,3.742,7.392c6.92,4.438,19.254,4.991,25.614,2.585
			c-0.222-2.758-0.787-5.491-1.756-8.146C989.457,1412.489,981.448,1408.008,974.315,1407.926z"/>
		
			<ellipse transform="matrix(-0.8758 0.4827 -0.4827 -0.8758 1469.08 2714.2017)" fill="#CE4E55" cx="385.327" cy="1546.115" rx="9.237" ry="35.619"/>
		<g>
			<path fill="#CE4E55" d="M827.651,1276.281l5.771-7.442c-35.445-24.962-81.606-42.906-133.355-49.261
				c-23.377-2.87-46.219-3.167-67.968-1.192l1.812,9.441c20.479-1.574,41.873-1.168,63.746,1.518
				C747.786,1235.5,792.671,1252.531,827.651,1276.281z"/>
			<path fill="#B23D49" d="M697.439,1246.508c46.061,5.656,87.693,20.494,121.285,41.288l8.927-11.515
				c-34.98-23.75-79.865-40.781-129.994-46.937c-21.873-2.686-43.267-3.092-63.746-1.518l3.243,16.896
				C656.577,1243.453,676.799,1243.974,697.439,1246.508z"/>
		</g>
		<g>
			<g>
				<circle fill="#FFFFFF" cx="464.647" cy="1473.757" r="30.087"/>
			</g>
			<circle fill="#545555" cx="464.289" cy="1473.77" r="21.613"/>
		</g>
		<g display="none">
			<circle display="inline" fill="#BB9146" cx="759.531" cy="1240.64" r="54.792"/>
			<circle display="inline" fill="#F8CE6D" cx="755.464" cy="1242.899" r="54.792"/>
			<circle display="inline" fill="#D3A953" cx="755.464" cy="1242.899" r="48.579"/>
			<circle display="inline" fill="#F8CE6D" cx="755.464" cy="1242.899" r="34.005"/>
			<g display="inline">
				<g>
					<g>
						<g>
							<path fill="#BB9146" d="M746.222,1238.976c0,0.61,0.262,1.155,0.785,1.635s1.188,0.894,1.994,1.243
								c0.807,0.349,1.711,0.653,2.714,0.915s1.983,0.479,2.942,0.653c0.96,0.175,1.842,0.316,2.648,0.426s1.428,0.207,1.864,0.294
								c0.959,0.131,2.223,0.349,3.793,0.654c1.569,0.305,3.116,0.719,4.643,1.242c1.525,0.523,2.845,1.199,3.956,2.027
								s1.668,1.853,1.668,3.073c0,1.177-0.491,2.201-1.472,3.073s-2.158,1.592-3.531,2.158s-2.769,1.014-4.186,1.341
								c-1.416,0.327-2.561,0.534-3.433,0.621c0,0.218,0.021,0.566,0.065,1.046s0.098,0.992,0.163,1.537s0.153,1.046,0.262,1.504
								c0.109,0.458,0.251,0.752,0.425,0.883h-11.705c0.131-0.175,0.251-0.479,0.359-0.915c0.109-0.437,0.208-0.916,0.295-1.439
								c0.087-0.522,0.174-1.024,0.262-1.504c0.087-0.479,0.131-0.828,0.131-1.046c-3.706-0.349-7.324-1.068-10.855-2.158
								c-0.349-0.087-0.828-0.251-1.438-0.49c-0.61-0.24-1.242-0.49-1.896-0.752s-1.275-0.491-1.863-0.687
								c-0.589-0.196-1.014-0.295-1.275-0.295c0.087-0.043,0.393-0.283,0.915-0.719c0.523-0.437,1.079-0.904,1.668-1.406
								c0.588-0.501,1.133-0.97,1.635-1.406c0.501-0.436,0.773-0.719,0.817-0.85c2.311,1.482,4.839,2.562,7.585,3.236
								c2.747,0.676,5.472,1.014,8.175,1.014c0.261,0,0.839-0.021,1.732-0.064c0.894-0.044,1.82-0.153,2.779-0.327
								c0.959-0.175,1.82-0.393,2.583-0.654s1.145-0.632,1.145-1.111c0-0.61-0.621-1.101-1.864-1.472
								c-1.242-0.37-2.79-0.73-4.643-1.079s-3.869-0.729-6.049-1.145c-2.18-0.414-4.196-0.959-6.049-1.635s-3.4-1.515-4.643-2.518
								s-1.864-2.267-1.864-3.792c0-1.875,0.48-3.499,1.439-4.872s2.157-2.551,3.597-3.531c1.438-0.981,3.019-1.776,4.74-2.387
								c1.723-0.61,3.346-1.068,4.872-1.373c0-0.219-0.021-0.61-0.065-1.178c-0.044-0.566-0.098-1.144-0.163-1.732
								s-0.186-1.134-0.36-1.635c-0.174-0.502-0.392-0.796-0.653-0.883l11.64,0.131c-0.218,0.043-0.414,0.283-0.589,0.719
								c-0.174,0.437-0.327,0.916-0.457,1.438c-0.131,0.523-0.229,1.036-0.295,1.537c-0.065,0.502-0.098,0.839-0.098,1.014
								c1.481,0.087,2.942,0.272,4.381,0.556s2.714,0.752,3.825,1.406c1.112,0.653,2.006,1.536,2.682,2.648
								c0.676,1.111,1.014,2.539,1.014,4.283c0,0.915-0.076,1.831-0.229,2.746c-0.152,0.916-0.338,1.81-0.556,2.682h-8.763
								c0.262-0.654,0.479-1.33,0.654-2.027c0.174-0.698,0.262-1.417,0.262-2.158c0-1.787-0.534-3.03-1.603-3.728
								s-2.431-1.046-4.087-1.046c-0.915,0-2.081,0.098-3.498,0.294s-2.779,0.523-4.087,0.98c-1.309,0.458-2.441,1.102-3.401,1.93
								C746.701,1236.73,746.222,1237.755,746.222,1238.976z"/>
						</g>
					</g>
				</g>
			</g>
		</g>
		<g>
			<circle fill="#BB9146" cx="734.677" cy="1241.77" r="54.792"/>
			<circle fill="#F8CE6D" cx="730.61" cy="1244.029" r="54.792"/>
			<circle fill="#D3A953" cx="730.61" cy="1244.029" r="48.579"/>
			<circle fill="#F8CE6D" cx="730.61" cy="1244.029" r="34.005"/>
			<g display="none">
				<g display="inline">
					<g>
						<g>
							<path fill="#BB9146" d="M721.368,1240.105c0,0.61,0.262,1.155,0.785,1.635s1.188,0.894,1.994,1.242s1.711,0.654,2.714,0.916
								c1.003,0.261,1.983,0.479,2.942,0.653c0.959,0.175,1.842,0.316,2.648,0.425c0.807,0.109,1.428,0.207,1.864,0.295
								c0.959,0.131,2.224,0.349,3.793,0.653c1.569,0.306,3.116,0.72,4.643,1.243c1.525,0.522,2.845,1.198,3.956,2.027
								c1.111,0.828,1.668,1.853,1.668,3.073c0,1.177-0.491,2.201-1.472,3.073c-0.981,0.872-2.158,1.591-3.531,2.158
								c-1.373,0.566-2.769,1.014-4.186,1.34c-1.416,0.327-2.561,0.534-3.433,0.622c0,0.218,0.021,0.566,0.065,1.046
								s0.098,0.991,0.163,1.536c0.065,0.546,0.153,1.047,0.262,1.505c0.109,0.457,0.251,0.752,0.425,0.883h-11.705
								c0.131-0.175,0.251-0.48,0.359-0.916c0.109-0.436,0.208-0.915,0.295-1.438s0.174-1.024,0.262-1.504
								c0.087-0.479,0.131-0.828,0.131-1.047c-3.706-0.349-7.324-1.067-10.855-2.157c-0.349-0.088-0.828-0.251-1.438-0.491
								c-0.61-0.239-1.242-0.49-1.896-0.751c-0.654-0.262-1.275-0.491-1.863-0.688c-0.589-0.196-1.014-0.294-1.275-0.294
								c0.087-0.044,0.393-0.283,0.915-0.72c0.523-0.436,1.079-0.904,1.668-1.405c0.588-0.502,1.133-0.97,1.635-1.406
								c0.501-0.436,0.773-0.72,0.817-0.85c2.311,1.481,4.839,2.561,7.585,3.236c2.747,0.676,5.472,1.014,8.175,1.014
								c0.261,0,0.839-0.021,1.732-0.065c0.894-0.043,1.82-0.152,2.779-0.327c0.959-0.174,1.82-0.392,2.583-0.653
								s1.145-0.633,1.145-1.112c0-0.61-0.621-1.101-1.864-1.471c-1.242-0.371-2.79-0.73-4.643-1.079s-3.869-0.73-6.049-1.145
								s-4.196-0.959-6.049-1.635s-3.4-1.515-4.643-2.518s-1.864-2.268-1.864-3.793c0-1.874,0.479-3.498,1.439-4.872
								c0.959-1.373,2.157-2.55,3.597-3.53c1.438-0.981,3.019-1.777,4.74-2.388c1.723-0.61,3.346-1.067,4.872-1.373
								c0-0.218-0.021-0.61-0.065-1.177s-0.098-1.145-0.163-1.733c-0.065-0.588-0.186-1.133-0.36-1.635
								c-0.174-0.501-0.393-0.795-0.653-0.883l11.64,0.131c-0.218,0.044-0.414,0.284-0.589,0.72
								c-0.174,0.436-0.327,0.915-0.458,1.438c-0.13,0.523-0.229,1.035-0.294,1.537c-0.065,0.501-0.098,0.839-0.098,1.014
								c1.481,0.087,2.942,0.272,4.381,0.556s2.714,0.752,3.825,1.405c1.112,0.654,2.006,1.537,2.682,2.648
								c0.676,1.112,1.014,2.54,1.014,4.283c0,0.916-0.076,1.831-0.229,2.747c-0.152,0.915-0.338,1.809-0.556,2.681h-8.763
								c0.262-0.653,0.479-1.329,0.654-2.027c0.174-0.697,0.262-1.416,0.262-2.157c0-1.788-0.534-3.03-1.603-3.728
								s-2.431-1.047-4.087-1.047c-0.915,0-2.081,0.099-3.498,0.295s-2.779,0.522-4.087,0.98c-1.309,0.458-2.441,1.101-3.401,1.93
								C721.848,1237.86,721.368,1238.885,721.368,1240.105z"/>
						</g>
					</g>
				</g>
			</g>
			<g>
				<path fill="#BB9045" d="M731.539,1255.94l-14.349-9.192l14.439,20.653l14.797-21.131L731.539,1255.94z"/>
				<path fill="#BB9045" d="M745.708,1243.494l-14.034-22.837l-14.033,22.991l13.911,8.888L745.708,1243.494z"/>
			</g>
		</g>
		<path fill="#E96264" d="M675.695,1244.568l6.286,58.445l108.968,10.944l27.775-26.162
			C760.848,1246.406,675.695,1244.568,675.695,1244.568z"/>
	</g>
	<path opacity="0.2" fill="#2A302D" d="M610.564,421.922l-2.809-1.559l-0.817,7.273c0,0,1.595,0.167,2.45,0.243
		c1.208,0.109,1.632,0.119,1.632,0.119L610.564,421.922z"/>
</g>
</svg>
