<?xml version="1.0" ?>
<svg enable-background="new 0 0 100 100" version="1.0" viewBox="0 0 100 100" xml:space="preserve" xmlns="http://www.w3.org/2000/svg" xmlns:xlink="http://www.w3.org/1999/xlink">
    <g fill="#a9da65" id="Layer_2">
        <path d="M88.3671875,39.6518555c-0.7304688-2.2475586-2.2919922-4.0761719-4.3974609-5.1494141   c-2.0216064-1.029541-4.3093262-1.2354736-6.4793701-0.6047363C73.0535889,27.225769,66.258667,22.251709,58.3018799,20.1818237   C58.0705566,15.7973022,54.4411011,12.2988281,50,12.2988281s-8.0705566,3.4984741-8.3018799,7.8829956   c-7.9567871,2.0698853-14.751709,7.0438843-19.1884766,13.7158813c-2.1707764-0.6307983-4.4577026-0.4248657-6.4793701,0.6047363   c-2.1054688,1.0732422-3.6669922,2.9018555-4.3974609,5.1494141c-0.7304688,2.2470703-0.5419922,4.6445312,0.53125,6.75   c1.0280151,2.0185547,2.7561646,3.5286865,4.8768921,4.2943115c-0.0201416,0.4718628-0.0360718,0.9448242-0.0360718,1.4215088   c0,7.7459717,2.6899414,14.871521,7.1755981,20.5072632c-2.675354,3.9300537-1.767395,9.3171997,2.1056519,12.131897   c1.5673828,1.1381836,3.3857422,1.6860352,5.1894531,1.6860352c2.645874-0.0004883,5.2504272-1.1911621,6.9840088-3.4174194   C42.053894,84.3719482,45.9415283,85.112793,50,85.112793c3.8618774,0,7.5681152-0.6729736,11.0152588-1.8977051   c1.4697266,1.9625244,3.6038208,3.2565308,6.0306396,3.6408691c0.4960938,0.0786133,0.9931641,0.1171875,1.4863281,0.1171875   c1.9628906,0,3.8701172-0.6162109,5.4892578-1.7919922c2.0253906-1.4716797,3.3574219-3.644043,3.7490234-6.1171875   c0.3852539-2.4326172-0.1887817-4.8671265-1.6086426-6.8744507c4.2800903-5.5654297,6.833252-12.5244141,6.833252-20.0718384   c0-0.4766846-0.0159302-0.949646-0.0360718-1.4215088c2.1207275-0.765625,3.848877-2.2757568,4.8768921-4.2943115   C88.9091797,44.2963867,89.0976562,41.8989258,88.3671875,39.6518555z M74.7678833,35.2217407   c-2.6279297,1.9056396-4.0358276,5.1547241-3.5618286,8.4281616L60.843811,47.0167847   c-1.7176514-3.6362915-5.2011719-6.2729492-9.343811-6.7930298V28.8041992   c3.0235596-0.5533447,5.4799194-2.7409058,6.4145508-5.6141357C64.8566284,25.0917969,70.8018188,29.4262085,74.7678833,35.2217407   z M58.9980469,52.1176758c0,2.4466553-0.9842529,4.6655273-2.5739746,6.2892456   c-0.7012939,0.7162476-1.5229492,1.3103638-2.4290771,1.7618408C52.7894897,60.7695312,51.4359741,61.1162109,50,61.1162109   s-2.7894897-0.3466797-3.9949951-0.9474487c-0.9061279-0.4514771-1.7277832-1.0455933-2.4290771-1.7618408   c-1.5897217-1.6237183-2.5739746-3.8425903-2.5739746-6.2892456c0-0.4465942,0.0435181-0.8822021,0.1066284-1.3115234   c0.1494141-1.0161133,0.4631958-1.9782715,0.9234619-2.8549194C43.3149414,45.5078735,45.6870117,43.7302246,48.5,43.255188   c0.4889526-0.0825806,0.987915-0.1355591,1.5-0.1355591s1.0110474,0.0529785,1.5,0.1355591   c2.8129883,0.4750366,5.1850586,2.2526855,6.4679565,4.6960449c0.4602661,0.8766479,0.7740479,1.8388062,0.9234619,2.8549194   C58.9545288,51.2354736,58.9980469,51.6710815,58.9980469,52.1176758z M50,15.2988281   c2.5639038,0,4.7093506,1.8222656,5.211853,4.2393188c0.0728149,0.3504028,0.1123657,0.7127686,0.1123657,1.0844116   c0,0.6773071-0.1394653,1.3198853-0.3711548,1.9163208c-0.5932007,1.5269775-1.8692627,2.6968994-3.453064,3.1661987   c-0.4789429,0.1419067-0.975647,0.2416992-1.5,0.2416992s-1.0210571-0.0997925-1.5-0.2416992   c-1.5838013-0.4692993-2.8598022-1.6392212-3.4530029-3.1661987c-0.2316895-0.5964355-0.3712158-1.2390137-0.3712158-1.9163208   c0-0.3716431,0.0395508-0.7340088,0.1123657-1.0844116C45.2906494,17.1210938,47.4360962,15.2988281,50,15.2988281z    M42.0854492,23.1900635c0.9346313,2.87323,3.3909912,5.060791,6.4145508,5.6141357v11.4195557   c-4.1426392,0.5200806-7.6261597,3.1567383-9.343811,6.7930298l-10.3622437-3.3668823   c0.473999-3.2734375-0.9338989-6.522522-3.5618286-8.4281616C29.1981812,29.4262085,35.1433716,25.0917969,42.0854492,23.1900635z    M14.8369141,45.0400391c-0.7089844-1.3916016-0.8330078-2.9760742-0.3505859-4.4614258s1.5146484-2.6938477,2.90625-3.402832   c0.8339844-0.425293,1.7373047-0.6401367,2.6474609-0.6401367c0.2835083,0,0.567688,0.0253296,0.850708,0.0671997   c0.3233643,0.0478516,0.6451416,0.1187744,0.961792,0.2218628c0.6729736,0.2186279,1.2745972,0.5535889,1.8007202,0.9677124   c1.4848633,1.1687012,2.3280029,3.0040894,2.2252197,4.9101562c-0.0267334,0.4958496-0.1105347,0.9957275-0.2710571,1.4898071   c-0.1594238,0.4907227-0.3986206,0.9367065-0.6712646,1.3590088c-0.5523682,0.8555298-1.3032837,1.5686646-2.2349854,2.043335   c-0.769165,0.392395-1.5977173,0.5994263-2.4353638,0.6304321c-0.6779175,0.0250854-1.3616333-0.0626831-2.0255737-0.2793579   c-0.3197632-0.1038818-0.6196899-0.244873-0.9116211-0.3977661C16.2645264,46.9906616,15.3932495,46.1317139,14.8369141,45.0400391   z M20.0048828,52.1176758c0-0.2961426,0.013855-0.5889893,0.0223999-0.8831177   c0.0094604,0.000061,0.0189209,0.0022583,0.0283813,0.0022583c1.3769531-0.0004883,2.7451172-0.3256836,4.0068207-0.96875   c1.6530304-0.8418579,2.96315-2.1536865,3.806778-3.7636719l10.3516235,3.3634644   c-0.1390991,0.7296753-0.2189331,1.4802246-0.2189331,2.2498169c0,3.4436646,1.4662476,6.5442505,3.7974243,8.734436   l-6.4038086,8.8139038c-1.6279907-0.8067627-3.4584351-1.0983887-5.2920532-0.8076172   c-1.4061279,0.2225952-2.7053223,0.7722168-3.8226929,1.5876465   C22.3517456,65.3731079,20.0048828,59.0161133,20.0048828,52.1176758z M28.0498047,82.3295898   c-2.3410645-1.7012329-3.0424194-4.8256836-1.7919312-7.3345337c0.1428223-0.286499,0.3045654-0.5670776,0.4989624-0.8344116   v-0.0004883c0.4140625-0.5700073,0.9268799-1.0372925,1.4957886-1.4169922   c0.6923828-0.4621582,1.4726562-0.7875977,2.3196411-0.921875c0.3105469-0.0488281,0.6201172-0.0732422,0.9277344-0.0732422   c0.7193604,0,1.4215698,0.1480713,2.0876465,0.40625c0.4678345,0.1813354,0.9205322,0.4091187,1.3371582,0.7119141   c0.4202881,0.3053589,0.7818604,0.6604004,1.0949707,1.0457153c1.2046509,1.4824219,1.6016846,3.4641724,1.0866089,5.2832642   c-0.182251,0.6438599-0.4719238,1.2679443-0.8876343,1.8399658c-0.1981812,0.2727661-0.4196167,0.5179443-0.6533203,0.7457886   C33.5641479,83.7321777,30.383728,84.024292,28.0498047,82.3295898z M50,82.112793   c-3.545166,0-6.9467773-0.6221924-10.1064453-1.7565308c0.4344482-1.319519,0.5568237-2.7312622,0.3330078-4.1428833   c-0.2896729-1.8317261-1.1327515-3.4833984-2.4035645-4.7833862l6.3967285-8.8040771   C45.9355469,63.5736084,47.9049072,64.1162109,50,64.1162109s4.0644531-0.5426025,5.7802734-1.4902954l6.0864868,8.3771973   c-2.4985962,2.515564-3.3389282,6.2191162-2.2562256,9.5213013C56.5911255,81.5487671,53.361145,82.112793,50,82.112793z    M74.8066406,78.5947266c-0.265625,1.6816406-1.1708984,3.1586914-2.5488281,4.1591797   c-1.3769531,1.0004883-3.0595703,1.4057617-4.7431641,1.1386719c-1.3859863-0.2194824-2.6290894-0.8793335-3.5848999-1.8744507   c-0.203186-0.2115479-0.3980103-0.4328613-0.5733032-0.6743774c-0.4313354-0.5933838-0.7446289-1.2459106-0.9484253-1.9286499   c-0.269165-0.9016113-0.34198-1.8573608-0.1902466-2.8140259c0.1862793-1.1750488,0.6903687-2.2457886,1.4433594-3.1282959   c0.324585-0.3804321,0.6906738-0.7294922,1.1054688-1.0308838c0.4158325-0.3021851,0.8661499-0.5314941,1.3294678-0.7229004   c0.7630005-0.3151855,1.5723877-0.4958496,2.4029541-0.4958496c0.3349609,0,0.6728516,0.0263672,1.0107422,0.0800781   c0.9542847,0.151123,1.8389282,0.5146484,2.6119995,1.0473022c0.5884399,0.4054565,1.1140137,0.906189,1.5462036,1.5015259   c0.1726074,0.2374878,0.3207397,0.4868774,0.4575195,0.7410278C74.7816772,75.8126831,75.0272827,77.2034912,74.8066406,78.5947266   z M74.0431519,70.0319824c-1.1871948-0.869751-2.569397-1.4553223-4.0646362-1.6921387   c-1.9682617-0.3125-3.9387207,0.0123291-5.6851196,0.8980103l-6.0927734-8.3857422   c2.3311768-2.1901855,3.7974243-5.2907715,3.7974243-8.734436c0-0.7695923-0.079834-1.5201416-0.2189331-2.2498169   l10.3516235-3.3634644c0.8436279,1.6099854,2.1537476,2.921814,3.8067474,3.7636719   c1.261734,0.6430664,2.6298981,0.96875,4.0068512,0.96875c0.0094604,0,0.0189209-0.0021973,0.0283813-0.0022583   c0.0085449,0.2941284,0.0223999,0.5869751,0.0223999,0.8831177C79.9951172,58.8276978,77.7799072,65.0296631,74.0431519,70.0319824   z M85.1630859,45.0400391c-0.5563354,1.0916748-1.4276123,1.9506226-2.4916992,2.5079956   c-0.2919312,0.1528931-0.5918579,0.2938843-0.9116211,0.3977661c-0.6643677,0.2162476-1.3480225,0.303772-2.0256958,0.2786255   c-0.8374023-0.0310669-1.6655884-0.237854-2.4352417-0.6296997c-0.9317017-0.4746704-1.6826172-1.1878052-2.2349854-2.043335   c-0.272644-0.4223022-0.5118408-0.8682861-0.6712646-1.3590088c-0.1605225-0.4940796-0.2443237-0.9939575-0.2710571-1.4898071   c-0.1027832-1.9060059,0.7403564-3.741394,2.2252197-4.9101562c0.526123-0.4141235,1.1276855-0.7490845,1.8007202-0.9677124   c0.3170776-0.1030884,0.6387329-0.1739502,0.961853-0.2218018c0.28302-0.0419312,0.5670776-0.0672607,0.850647-0.0672607   c0.9101562,0,1.8134766,0.2148438,2.6474609,0.6401367c1.3916016,0.7089844,2.4238281,1.9174805,2.90625,3.402832   S85.8720703,43.6484375,85.1630859,45.0400391z" id="XMLID_1400_"/></g><g id="Layer_3"/><g id="Layer_4"/></svg>