<?xml version="1.0" encoding="utf-8"?>
<!-- Generator: Adobe Illustrator 16.0.0, SVG Export Plug-In . SVG Version: 6.00 Build 0)  -->
<!DOCTYPE svg PUBLIC "-//W3C//DTD SVG 1.1//EN" "http://www.w3.org/Graphics/SVG/1.1/DTD/svg11.dtd">
<svg version="1.1" id="Layer_1" xmlns="http://www.w3.org/2000/svg" xmlns:xlink="http://www.w3.org/1999/xlink" x="0px" y="0px"
	 width="434.615px" height="418.176px" viewBox="262.693 68.874 434.615 418.176"
	 enable-background="new 262.693 68.874 434.615 418.176" xml:space="preserve">
<g id="Layer_2">
	<path id="XMLID_1400_" fill="#3F51B5" d="M694.856,222.05c-4.091-12.586-12.835-22.827-24.626-28.836
		c-11.321-5.766-24.132-6.919-36.284-3.387c-24.847-37.363-62.897-65.218-107.456-76.809c-1.295-24.553-21.62-44.145-46.49-44.145
		s-45.195,19.591-46.49,44.145c-44.558,11.591-82.61,39.446-107.456,76.809c-12.157-3.532-24.963-2.379-36.285,3.387
		c-11.791,6.01-20.535,16.25-24.626,28.836c-4.09,12.583-3.035,26.009,2.975,37.8c5.757,11.304,15.435,19.76,27.311,24.048
		c-0.113,2.643-0.202,5.291-0.202,7.961c0,43.377,15.063,83.28,40.183,114.84c-14.982,22.009-9.897,52.177,11.792,67.939
		c8.777,6.373,18.96,9.441,29.061,9.441c14.817-0.003,29.403-6.671,39.111-19.138c20.128,7.54,41.898,11.689,64.626,11.689
		c21.627,0,42.382-3.769,61.686-10.627c8.23,10.989,20.182,18.236,33.771,20.389c2.778,0.44,5.562,0.656,8.323,0.656
		c10.992,0,21.673-3.451,30.74-10.035c11.342-8.241,18.802-20.407,20.994-34.257c2.157-13.622-1.057-27.256-9.008-38.496
		c23.968-31.167,38.266-70.137,38.266-112.402c0-2.67-0.089-5.318-0.202-7.961c11.876-4.288,21.554-12.744,27.311-24.048
		C697.892,248.06,698.947,234.634,694.856,222.05z M618.7,197.242c-14.717,10.671-22.601,28.867-19.946,47.198l-58.028,18.854
		c-9.619-20.363-29.127-35.128-52.325-38.041v-63.949c16.932-3.099,30.688-15.349,35.921-31.439
		C563.197,140.514,596.49,164.787,618.7,197.242z M530.389,291.859c0,13.701-5.512,26.127-14.414,35.22
		c-3.927,4.011-8.528,7.338-13.603,9.866c-6.751,3.364-14.331,5.306-22.372,5.306s-15.621-1.941-22.372-5.306
		c-5.074-2.528-9.676-5.855-13.603-9.866c-8.902-9.093-14.414-21.519-14.414-35.22c0-2.502,0.243-4.941,0.597-7.345
		c0.837-5.69,2.594-11.079,5.172-15.988c7.184-13.683,20.468-23.638,36.22-26.298c2.738-0.462,5.533-0.759,8.4-0.759
		s5.662,0.297,8.4,0.759c15.752,2.66,29.036,12.615,36.22,26.298c2.578,4.909,4.335,10.297,5.172,15.988
		C530.146,286.918,530.389,289.357,530.389,291.859z M480,85.673c14.357,0,26.372,10.205,29.187,23.74
		c0.407,1.962,0.629,3.992,0.629,6.073c0,3.793-0.781,7.392-2.078,10.731c-3.322,8.551-10.468,15.103-19.337,17.73
		c-2.683,0.795-5.464,1.354-8.4,1.354s-5.718-0.559-8.4-1.354c-8.869-2.628-16.015-9.18-19.336-17.73
		c-1.298-3.34-2.079-6.938-2.079-10.731c0-2.081,0.222-4.11,0.629-6.073C453.628,95.878,465.643,85.673,480,85.673z
		 M435.679,129.864c5.233,16.09,18.989,28.34,35.921,31.439v63.949c-23.198,2.913-42.706,17.678-52.325,38.041l-58.028-18.854
		c2.654-18.331-5.23-36.526-19.946-47.198C363.51,164.787,396.803,140.514,435.679,129.864z M283.087,252.224
		c-3.971-7.793-4.665-16.666-1.963-24.984s8.482-15.085,16.275-19.056c4.67-2.382,9.729-3.585,14.826-3.585
		c1.588,0,3.179,0.142,4.764,0.376c1.811,0.268,3.613,0.665,5.386,1.242c3.769,1.225,7.138,3.1,10.084,5.419
		c8.315,6.544,13.037,16.823,12.461,27.497c-0.15,2.777-0.619,5.576-1.518,8.343c-0.893,2.748-2.232,5.245-3.759,7.61
		c-3.093,4.791-7.298,8.784-12.516,11.442c-4.307,2.198-8.947,3.357-13.638,3.531c-3.796,0.14-7.625-0.351-11.343-1.564
		c-1.791-0.582-3.471-1.372-5.105-2.228C291.082,263.147,286.202,258.337,283.087,252.224z M312.027,291.859
		c0-1.658,0.078-3.299,0.125-4.945c0.053,0,0.106,0.012,0.159,0.012c7.711-0.002,15.373-1.823,22.438-5.425
		c9.257-4.714,16.594-12.061,21.318-21.076l57.969,18.835c-0.779,4.086-1.227,8.289-1.227,12.6c0,19.284,8.211,36.647,21.266,48.912
		l-35.861,49.358c-9.116-4.519-19.367-6.151-29.635-4.522c-7.874,1.246-15.15,4.324-21.407,8.891
		C325.17,366.09,312.027,330.49,312.027,291.859z M357.079,461.046c-13.11-9.527-17.038-27.024-10.035-41.073
		c0.8-1.604,1.706-3.176,2.794-4.673v-0.003c2.319-3.192,5.19-5.809,8.376-7.936c3.877-2.588,8.247-4.41,12.99-5.162
		c1.739-0.273,3.473-0.41,5.195-0.41c4.028,0,7.961,0.829,11.691,2.275c2.62,1.015,5.155,2.291,7.488,3.986
		c2.354,1.71,4.378,3.698,6.132,5.856c6.746,8.301,8.969,19.399,6.085,29.586c-1.021,3.605-2.643,7.101-4.971,10.304
		c-1.11,1.527-2.35,2.9-3.659,4.177C387.959,468.9,370.149,470.536,357.079,461.046z M480,459.832
		c-19.853,0-38.902-3.484-56.596-9.837c2.433-7.39,3.118-15.295,1.864-23.2c-1.622-10.258-6.343-19.507-13.46-26.787l35.822-49.303
		c9.608,5.307,20.637,8.346,32.369,8.346s22.761-3.039,32.369-8.346l34.085,46.912c-13.992,14.088-18.698,34.827-12.635,53.319
		C516.91,456.673,498.822,459.832,480,459.832z M618.917,440.131c-1.487,9.417-6.557,17.688-14.273,23.291
		c-7.711,5.603-17.134,7.872-26.562,6.377c-7.762-1.229-14.723-4.925-20.075-10.497c-1.138-1.185-2.229-2.424-3.211-3.776
		c-2.415-3.323-4.17-6.978-5.312-10.801c-1.507-5.049-1.914-10.401-1.064-15.759c1.043-6.58,3.865-12.576,8.082-17.519
		c1.818-2.13,3.868-4.085,6.191-5.772c2.328-1.692,4.85-2.977,7.444-4.049c4.273-1.765,8.806-2.776,13.457-2.776
		c1.876,0,3.768,0.147,5.66,0.448c5.344,0.847,10.298,2.882,14.627,5.865c3.295,2.271,6.238,5.074,8.659,8.408
		c0.966,1.33,1.796,2.727,2.562,4.15C618.777,424.551,620.152,432.34,618.917,440.131z M614.642,392.179
		c-6.648-4.87-14.389-8.149-22.762-9.476c-11.022-1.75-22.057,0.069-31.837,5.029l-34.119-46.961
		c13.055-12.265,21.266-29.628,21.266-48.912c0-4.311-0.447-8.514-1.227-12.6l57.969-18.835
		c4.725,9.016,12.062,16.362,21.318,21.076c7.065,3.602,14.728,5.425,22.438,5.425c0.053,0,0.105-0.012,0.159-0.012
		c0.047,1.646,0.125,3.287,0.125,4.945C647.973,329.436,635.567,364.166,614.642,392.179z M676.913,252.224
		c-3.115,6.113-7.994,10.923-13.953,14.045c-1.635,0.856-3.314,1.646-5.105,2.228c-3.721,1.211-7.549,1.701-11.344,1.56
		c-4.689-0.174-9.327-1.332-13.638-3.526c-5.217-2.658-9.422-6.651-12.516-11.442c-1.526-2.365-2.866-4.862-3.759-7.61
		c-0.899-2.767-1.368-5.566-1.519-8.343c-0.575-10.673,4.146-20.952,12.462-27.497c2.946-2.319,6.314-4.195,10.084-5.419
		c1.775-0.577,3.577-0.974,5.386-1.242c1.585-0.235,3.176-0.376,4.764-0.376c5.098,0,10.156,1.203,14.826,3.585
		c7.793,3.97,13.573,10.738,16.275,19.056C681.578,235.558,680.884,244.431,676.913,252.224z"/>
</g>
<g id="Layer_3">
</g>
<g id="Layer_4">
</g>
</svg>
