<?xml version="1.0" encoding="utf-8"?>
<!-- Generator: Adobe Illustrator 22.1.0, SVG Export Plug-In . SVG Version: 6.00 Build 0)  -->
<svg version="1.1" id="Layer_1" xmlns="http://www.w3.org/2000/svg" xmlns:xlink="http://www.w3.org/1999/xlink" x="0px" y="0px"
	 viewBox="0 0 360 360" style="enable-background:new 0 0 360 360;" xml:space="preserve">
<style type="text/css">
	.st0{fill:#2C398F;}
	.st1{fill:#6352E3;}
</style>
<g>
	<path class="st0" d="M63.8,177.9l-0.7,2.5h-5l-1.8,8.2h7.5l-0.7,3.4H50.8l4.8-22.3c-2.6,0.1-4.3,1.6-4.3,6.9c0,1.7,0.4,2,0.5,2.3
		c-2.3,0-3.6-0.8-3.6-3.2c0-4.4,3.1-8.7,11.4-8.7c1.3,0,3.4,0.4,5.5,0.4c1,0,2.1-0.1,3-0.4c-0.5,1.4-0.6,3.4-3.2,4
		c-1.5,0-3.1-0.3-4.7-0.6l-1.6,7.7H63.8z"/>
	<path class="st0" d="M74.6,169.9l-1.1,5.3h2l-0.3,1.3h-2l-2.1,10c-0.1,0.4-0.1,0.8-0.1,1.1c0,0.9,0.4,1.2,1.4,1.2
		c1.3,0,2.5-1.3,3-2.9h1.4c-1.9,5.4-5.2,6.2-7,6.2c-2,0-3.6-1.2-3.6-4c0-0.6,0.1-1.4,0.3-2.2l2-9.4h-1.1l0.3-1.3h1.1l1-4.6
		L74.6,169.9z"/>
	<path class="st0" d="M83.7,178.1c-1.3,0-2.3,2-2.5,2.9l-2.3,10.9H74l4.8-22.7l4.9-0.7l-1.8,8.4c1.4-1.6,2.9-1.9,3.9-1.9
		c2.1,0,3.7,1.1,3.7,3.8c0,2.7-1.6,6.8-1.6,8.6c0,0.8,0.3,1.4,1.3,1.4c1.5,0,2.1-1.2,2.8-2.9h1.4c-1.9,5.5-4.4,6.2-6.2,6.2
		c-2.9,0-3.9-1.9-3.9-3.8c0-2.3,1.5-6.4,1.5-8.5C84.9,178.7,84.5,178.1,83.7,178.1z"/>
	<path class="st0" d="M100.7,168.5l-3.8,18c-0.1,0.4-0.1,0.8-0.1,1.1c0,0.9,0.4,1.2,1.4,1.2c1.3,0,2.5-1.3,3-2.9h1.4
		c-1.9,5.4-5.2,6.2-7,6.2c-2,0-3.6-1.2-3.6-4c0-0.6,0.1-1.4,0.3-2.2l3.6-16.7L100.7,168.5z"/>
	<path class="st0" d="M117.1,175.2l-2.4,11.4c-0.1,0.4-0.1,0.8-0.1,1.1c0,0.9,0.4,1.4,1.4,1.4c1.3,0,2.2-1.5,2.7-3.1h1.4
		c-1.9,5.4-4.9,6.2-6.7,6.2c-1.9,0-3.1-1.1-3.3-3.1c-1,1.5-2.6,3.1-5,3.1c-2.3,0-4.4-1.4-4.4-5.4c0-4.5,2.8-11.7,8.6-11.7
		c1.9,0,2.7,0.7,2.7,1.7v0.2l0.4-1.8H117.1z M105.6,186.2c0,2.6,1.1,2.6,1.7,2.6c1,0,2.4-1,2.8-2.9l1.6-7.6c0-0.4-0.3-1.3-1.4-1.3
		C107.4,177.1,105.6,183.1,105.6,186.2z"/>
	<path class="st0" d="M127.1,178.1c-1.2,0-2.1,1.4-2.6,3.1l-2.3,10.7h-4.8l3.5-16.7h4.8l-0.4,1.7c1.4-1.6,2.9-1.9,3.9-1.9
		c2.1,0,3.7,1.1,3.7,3.8c0,2.7-1.6,6.8-1.6,8.6c0,0.8,0.3,1.4,1.3,1.4c1.5,0,2.1-1.2,2.8-2.9h1.4c-1.9,5.5-4.4,6.2-6.2,6.2
		c-2.9,0-3.9-1.9-3.9-3.8c0-2.3,1.5-6.4,1.5-8.5C128.3,178.7,127.9,178.1,127.1,178.1z"/>
	<path class="st0" d="M145.3,178c0-0.8-0.3-1.4-0.9-1.4c-2.1,0-4.3,6.1-4.3,9.8c0,2.3,0.8,2.8,2.4,2.8c2.6,0,4.2-1.5,5.9-3.4h1.1
		c-1.9,3.1-4.7,6.2-9.2,6.2c-3.1,0-5.2-1.5-5.2-5.3c0-3.9,2.2-11.9,9-11.9c3,0,3.7,1.5,3.7,3.1c0,1.6-0.8,2.4-1.8,2.4
		c-0.4,0-0.8-0.1-1.2-0.4C145.1,179.2,145.3,178.6,145.3,178z"/>
	<path class="st0" d="M154.9,188.9c1.3,0,2.9-0.8,3.9-1.8c-0.7,3.8-3.1,4.9-5.8,4.9c-3.1,0-5.2-1.5-5.2-5.3c0-3.8,2.2-11.9,9-11.9
		c3,0,3.7,1.5,3.7,3.2c0,3.9-3.7,6.8-7.7,7.1c0,0.3-0.1,0.7-0.1,1C152.9,188.2,153.8,188.9,154.9,188.9z M157.2,176.6
		c-1.7,0-3.3,3.7-4,6.9c2.6-0.1,4.9-2.7,4.9-5.5C158,177.2,157.8,176.6,157.2,176.6z"/>
</g>
<g>
	<path class="st1" d="M214.2,177.9l-0.7,2.5h-5l-1.8,8.2h7.5l-0.7,3.4h-12.3l4.8-22.3c-2.6,0.1-4.3,1.6-4.3,6.9c0,1.7,0.4,2,0.5,2.3
		c-2.3,0-3.6-0.8-3.6-3.2c0-4.4,3.1-8.7,11.4-8.7c1.3,0,3.4,0.4,5.5,0.4c1,0,2.1-0.1,3-0.4c-0.5,1.4-0.6,3.4-3.2,4
		c-1.5,0-3.1-0.3-4.7-0.6l-1.6,7.7H214.2z"/>
	<path class="st1" d="M225,169.9l-1.1,5.3h2l-0.3,1.3h-2l-2.1,10c-0.1,0.4-0.1,0.8-0.1,1.1c0,0.9,0.4,1.2,1.4,1.2
		c1.3,0,2.5-1.3,3-2.9h1.4c-1.9,5.4-5.2,6.2-7,6.2c-2,0-3.6-1.2-3.6-4c0-0.6,0.1-1.4,0.3-2.2l2-9.4h-1.1l0.3-1.3h1.1l1-4.6
		L225,169.9z"/>
	<path class="st1" d="M234.1,178.1c-1.3,0-2.3,2-2.5,2.9l-2.3,10.9h-4.8l4.8-22.7l4.9-0.7l-1.8,8.4c1.4-1.6,2.9-1.9,3.9-1.9
		c2.1,0,3.7,1.1,3.7,3.8c0,2.7-1.6,6.8-1.6,8.6c0,0.8,0.3,1.4,1.3,1.4c1.5,0,2.1-1.2,2.8-2.9h1.4c-1.9,5.5-4.4,6.2-6.2,6.2
		c-2.9,0-3.9-1.9-3.9-3.8c0-2.3,1.5-6.4,1.5-8.5C235.3,178.7,234.9,178.1,234.1,178.1z"/>
	<path class="st1" d="M251.1,168.5l-3.8,18c-0.1,0.4-0.1,0.8-0.1,1.1c0,0.9,0.4,1.2,1.4,1.2c1.3,0,2.5-1.3,3-2.9h1.4
		c-1.9,5.4-5.2,6.2-7,6.2c-2,0-3.6-1.2-3.6-4c0-0.6,0.1-1.4,0.3-2.2l3.6-16.7L251.1,168.5z"/>
	<path class="st1" d="M267.5,175.2l-2.4,11.4c-0.1,0.4-0.1,0.8-0.1,1.1c0,0.9,0.4,1.4,1.4,1.4c1.3,0,2.2-1.5,2.7-3.1h1.4
		c-1.9,5.4-4.9,6.2-6.7,6.2c-1.9,0-3.1-1.1-3.3-3.1c-1,1.5-2.6,3.1-5,3.1c-2.3,0-4.4-1.4-4.4-5.4c0-4.5,2.8-11.7,8.6-11.7
		c1.9,0,2.7,0.7,2.7,1.7v0.2l0.4-1.8H267.5z M256,186.2c0,2.6,1.1,2.6,1.7,2.6c1,0,2.4-1,2.8-2.9l1.6-7.6c0-0.4-0.3-1.3-1.4-1.3
		C257.8,177.1,256,183.1,256,186.2z"/>
	<path class="st1" d="M277.5,178.1c-1.2,0-2.1,1.4-2.6,3.1l-2.3,10.7h-4.8l3.5-16.7h4.8l-0.4,1.7c1.4-1.6,2.9-1.9,3.9-1.9
		c2.1,0,3.7,1.1,3.7,3.8c0,2.7-1.6,6.8-1.6,8.6c0,0.8,0.3,1.4,1.3,1.4c1.5,0,2.1-1.2,2.8-2.9h1.4c-1.9,5.5-4.4,6.2-6.2,6.2
		c-2.9,0-3.9-1.9-3.9-3.8c0-2.3,1.5-6.4,1.5-8.5C278.7,178.7,278.3,178.1,277.5,178.1z"/>
	<path class="st1" d="M295.7,178c0-0.8-0.3-1.4-0.9-1.4c-2.1,0-4.3,6.1-4.3,9.8c0,2.3,0.8,2.8,2.4,2.8c2.6,0,4.2-1.5,5.9-3.4h1.1
		c-1.9,3.1-4.7,6.2-9.2,6.2c-3.1,0-5.2-1.5-5.2-5.3c0-3.9,2.2-11.9,9-11.9c3,0,3.7,1.5,3.7,3.1c0,1.6-0.8,2.4-1.8,2.4
		c-0.4,0-0.8-0.1-1.2-0.4C295.5,179.2,295.7,178.6,295.7,178z"/>
	<path class="st1" d="M305.3,188.9c1.3,0,2.9-0.8,3.9-1.8c-0.7,3.8-3.1,4.9-5.8,4.9c-3.1,0-5.2-1.5-5.2-5.3c0-3.8,2.2-11.9,9-11.9
		c3,0,3.7,1.5,3.7,3.2c0,3.9-3.7,6.8-7.7,7.1c0,0.3-0.1,0.7-0.1,1C303.3,188.2,304.2,188.9,305.3,188.9z M307.6,176.6
		c-1.7,0-3.3,3.7-4,6.9c2.6-0.1,4.9-2.7,4.9-5.5C308.4,177.2,308.2,176.6,307.6,176.6z"/>
</g>
</svg>
