<?xml version="1.0" encoding="utf-8"?>
<!-- Generator: Adobe Illustrator 16.0.0, SVG Export Plug-In . SVG Version: 6.00 Build 0)  -->
<!DOCTYPE svg PUBLIC "-//W3C//DTD SVG 1.1//EN" "http://www.w3.org/Graphics/SVG/1.1/DTD/svg11.dtd">
<svg version="1.1" id="Layer_193" xmlns="http://www.w3.org/2000/svg" xmlns:xlink="http://www.w3.org/1999/xlink" x="0px" y="0px"
	 width="560px" height="560px" viewBox="200 0 560 560" enable-background="new 200 0 560 560" xml:space="preserve">
<g>
	<g>
		<g>
			<g>
				<path fill="#ADEBF6" d="M200,280c0,153.896,125.874,280,280,280c154.126,0,280-125.874,280-280C760,125.874,633.896,0,480,0
					S200,125.874,200,280z"/>
			</g>
			<path fill="#FFFFFF" d="M642.854,206.957c-5.053-19.983-13.552-39.508-26.185-57.424c-0.689-0.918-1.379-1.837-2.067-2.756
				c-55.128-76.489-161.018-95.783-237.736-42.494c-77.867,53.979-96.473,161.706-41.805,240.492
				c0.689,0.919,1.378,2.067,2.067,2.986c11.714,16.078,25.726,29.631,41.116,40.656c0,0,8.269,5.972,15.619,10.336
				c5.972,3.445,16.308,8.039,16.308,8.039c19.754,8.499,40.887,13.323,62.248,14.241v76.719l122.658-122.657
				C641.247,331.223,658.704,266.448,642.854,206.957z"/>
			<g>
				<g>
					<path fill="#FFC958" d="M378.474,207.416c0.919-1.838,2.527-1.838,3.445,0l9.417,19.294c0.919,1.837,3.446,3.675,5.513,4.134
						l21.362,2.986c2.067,0.229,2.526,1.837,1.148,3.216l-15.39,14.93c-1.608,1.608-2.527,4.594-2.067,6.661l3.675,21.132
						c0.46,2.067-0.919,2.985-2.756,2.067l-19.065-10.107c-1.838-0.919-5.053-0.919-6.891,0l-19.065,10.107
						c-1.837,0.918-3.215,0-2.756-2.067l3.675-21.132c0.459-2.067-0.689-5.053-2.067-6.661l-15.39-14.93
						c-1.608-1.608-1.148-2.986,1.148-3.216l21.362-2.986c2.067-0.229,4.594-2.067,5.513-4.134L378.474,207.416z"/>
				</g>
				<g>
					<path fill="#FFC958" d="M477.244,207.416c0.918-1.838,2.526-1.838,3.445,0l9.646,19.294c0.919,1.837,3.445,3.675,5.513,4.134
						l21.362,2.986c2.067,0.229,2.526,1.837,1.148,3.216l-15.39,14.93c-1.608,1.608-2.526,4.594-2.067,6.661l3.675,21.132
						c0.46,2.067-0.918,2.985-2.756,2.067l-19.065-10.107c-1.837-0.919-5.053-0.919-6.891,0l-19.064,10.107
						c-1.838,0.918-3.216,0-2.757-2.067l3.676-21.132c0.459-2.067-0.689-5.053-2.067-6.661l-15.39-14.93
						c-1.608-1.608-1.148-2.986,1.148-3.216l21.361-2.986c2.067-0.229,4.595-2.067,5.513-4.134L477.244,207.416z"/>
				</g>
				<g>
					<path fill="#FFC958" d="M576.013,207.416c0.919-1.838,2.527-1.838,3.446,0l9.646,19.294c0.919,1.837,3.445,3.675,5.513,4.134
						l21.362,2.986c2.067,0.229,2.526,1.837,1.148,3.216l-15.39,14.93c-1.608,1.608-2.526,4.594-2.067,6.661l3.675,21.132
						c0.46,2.067-0.919,2.985-2.756,2.067l-19.065-10.107c-1.837-0.919-5.053-0.919-6.891,0l-19.064,10.107
						c-1.838,0.918-3.216,0-2.757-2.067l3.676-21.132c0.459-2.067-0.689-5.053-2.067-6.661l-15.39-14.93
						c-1.608-1.608-1.148-2.986,1.148-3.216l21.361-2.986c2.067-0.229,4.595-2.067,5.513-4.134L576.013,207.416z"/>
				</g>
			</g>
		</g>
	</g>
</g>
</svg>
