<?xml version="1.0" ?><!DOCTYPE svg  PUBLIC '-//W3C//DTD SVG 1.1//EN'  'http://www.w3.org/Graphics/SVG/1.1/DTD/svg11.dtd'><svg id="Layer_193" style="enable-background:new 0 0 243.8 243.8;" version="1.1" viewBox="0 0 243.8 243.8" xml:space="preserve" xmlns="http://www.w3.org/2000/svg" xmlns:xlink="http://www.w3.org/1999/xlink"><style type="text/css">
	.st0{fill:#ADEBF6;}
	.st1{fill:#FFFFFF;}
	.st2{fill:#FFC958;}
</style><g><g><g><g><path class="st0" d="M0,121.9c0,67,54.8,121.9,121.9,121.9s121.9-54.8,121.9-121.9C243.8,54.8,188.9,0,121.9,0S0,54.8,0,121.9z       "/></g><path class="st1" d="M192.8,90.1c-2.2-8.7-5.9-17.2-11.4-25c-0.3-0.4-0.6-0.8-0.9-1.2C156.5,30.6,110.4,22.2,77,45.4      c-33.9,23.5-42,70.4-18.2,104.7c0.3,0.4,0.6,0.9,0.9,1.3c5.1,7,11.2,12.9,17.9,17.7c0,0,3.6,2.6,6.8,4.5      c2.6,1.5,7.1,3.5,7.1,3.5c8.6,3.7,17.8,5.8,27.1,6.2v33.4l53.4-53.4C192.1,144.2,199.7,116,192.8,90.1z"/><g><g><path class="st2" d="M77.7,90.3c0.4-0.8,1.1-0.8,1.5,0l4.1,8.4c0.4,0.8,1.5,1.6,2.4,1.8l9.3,1.3c0.9,0.1,1.1,0.8,0.5,1.4        l-6.7,6.5c-0.7,0.7-1.1,2-0.9,2.9l1.6,9.2c0.2,0.9-0.4,1.3-1.2,0.9l-8.3-4.4c-0.8-0.4-2.2-0.4-3,0l-8.3,4.4        c-0.8,0.4-1.4,0-1.2-0.9l1.6-9.2c0.2-0.9-0.3-2.2-0.9-2.9l-6.7-6.5c-0.7-0.7-0.5-1.3,0.5-1.4l9.3-1.3c0.9-0.1,2-0.9,2.4-1.8        L77.7,90.3z"/></g><g><path class="st2" d="M120.7,90.3c0.4-0.8,1.1-0.8,1.5,0l4.2,8.4c0.4,0.8,1.5,1.6,2.4,1.8l9.3,1.3c0.9,0.1,1.1,0.8,0.5,1.4        l-6.7,6.5c-0.7,0.7-1.1,2-0.9,2.9l1.6,9.2c0.2,0.9-0.4,1.3-1.2,0.9l-8.3-4.4c-0.8-0.4-2.2-0.4-3,0l-8.3,4.4        c-0.8,0.4-1.4,0-1.2-0.9l1.6-9.2c0.2-0.9-0.3-2.2-0.9-2.9l-6.7-6.5c-0.7-0.7-0.5-1.3,0.5-1.4l9.3-1.3c0.9-0.1,2-0.9,2.4-1.8        L120.7,90.3z"/></g><g><path class="st2" d="M163.7,90.3c0.4-0.8,1.1-0.8,1.5,0l4.2,8.4c0.4,0.8,1.5,1.6,2.4,1.8l9.3,1.3c0.9,0.1,1.1,0.8,0.5,1.4        l-6.7,6.5c-0.7,0.7-1.1,2-0.9,2.9l1.6,9.2c0.2,0.9-0.4,1.3-1.2,0.9l-8.3-4.4c-0.8-0.4-2.2-0.4-3,0l-8.3,4.4        c-0.8,0.4-1.4,0-1.2-0.9l1.6-9.2c0.2-0.9-0.3-2.2-0.9-2.9l-6.7-6.5c-0.7-0.7-0.5-1.3,0.5-1.4l9.3-1.3c0.9-0.1,2-0.9,2.4-1.8        L163.7,90.3z"/></g></g></g></g></g></svg>