<?xml version="1.0" encoding="utf-8"?>
<!-- Generator: Adobe Illustrator 16.0.0, SVG Export Plug-In . SVG Version: 6.00 Build 0)  -->
<!DOCTYPE svg PUBLIC "-//W3C//DTD SVG 1.1//EN" "http://www.w3.org/Graphics/SVG/1.1/DTD/svg11.dtd">
<svg version="1.1" id="Слой_1" xmlns="http://www.w3.org/2000/svg" xmlns:xlink="http://www.w3.org/1999/xlink" x="0px" y="0px"
	 width="542.5px" height="542.5px" viewBox="208.75 8.75 542.5 542.5" enable-background="new 208.75 8.75 542.5 542.5"
	 xml:space="preserve">
<g>
	<g>
		<g>
			<g>
				<circle fill="#E9705B" cx="480" cy="280" r="271.25"/>
			</g>
		</g>
	</g>
	<g>
		<g>
			<g>
				<rect x="370.625" y="149.625" fill="#FDFAFA" width="218.75" height="306.25"/>
			</g>
		</g>
		<g>
			<g>
				<rect x="401.25" y="376.688" fill="#4A4946" width="167.562" height="7.438"/>
			</g>
		</g>
		<g>
			<g>
				<rect x="401.25" y="391.562" fill="#4A4946" width="167.562" height="7.438"/>
			</g>
		</g>
		<g>
			<g>
				<rect x="401.25" y="406.875" fill="#4A4946" width="167.562" height="7.438"/>
			</g>
		</g>
		<g>
			<g>
				<rect x="401.25" y="420.438" fill="#4A4946" width="167.562" height="7.438"/>
			</g>
		</g>
	</g>
	<g>
		<g>
			<g>
				<path fill="#F5C93F" d="M661.562,353.5L582.375,308l21.875-38.062l79.188,45.5c10.5,6.125,14,19.25,7.875,29.75l0,0
					C685.188,356.125,672.062,359.625,661.562,353.5z"/>
			</g>
		</g>
		<g opacity="0.1">
			<g>
				<path fill="#050708" d="M604.25,269.938L582.375,308l10.5,6.125c4.375-5.688,8.75-11.812,12.688-17.938
					c3.938-6.562,7-13.125,9.625-19.688L604.25,269.938z"/>
			</g>
		</g>
		<g opacity="0.8">
			<g>
				<path fill="#FFFFFF" d="M371.062,160.562c36.312-63,115.938-85.75,179.812-51.625c-1.312-0.875-3.062-1.75-4.375-2.625
					C481.75,69.125,399.5,91,362.312,155.75c-37.188,64.75-15.312,147,49.438,184.188c1.312,0.875,3.062,1.75,4.375,2.625
					C355.312,304.062,334.75,224,371.062,160.562z"/>
			</g>
		</g>
		<g opacity="0.2">
			<g>
				<path fill="#FDFDFD" d="M422.688,321.125c-53.812-31.062-72.625-100.188-41.562-154.438s100.188-72.625,154.438-41.562
					s72.625,100.188,41.562,154.438C546.062,333.812,476.938,352.188,422.688,321.125z"/>
			</g>
		</g>
		<g>
			<g>
				<path fill="#FDFAFA" d="M560.062,301.875C516.75,346.5,445,347.375,400.375,304.062c-44.625-43.313-45.5-115.5-1.75-159.688
					s115.062-45.5,159.688-1.75C602.939,186.374,603.812,257.688,560.062,301.875z"/>
			</g>
		</g>
		<g>
			<g>
				<g>
					<circle fill="#FCF2E3" cx="479.125" cy="223.125" r="98.438"/>
				</g>
			</g>
			<g>
				<g>
					<path fill="#4A4946" d="M524.625,198.188c0,24.062-20.562,68.688-45.5,68.688s-45.062-44.625-45.062-68.688
						s20.562-43.75,45.5-43.75C504.5,154.875,524.625,174.125,524.625,198.188z"/>
				</g>
			</g>
			<g>
				<g>
					<path fill="#4A4946" d="M479.125,321.562C509.312,321.562,536,308,553.938,287c-6.562-10.5-19.688-18.375-36.312-23.188
						c-10.062,12.25-23.188,21-38.5,21s-28-8.75-38.5-21c-17.062,4.812-30.188,12.688-36.312,23.188
						C422.688,308,449.375,321.562,479.125,321.562z"/>
				</g>
			</g>
		</g>
		<path fill="#4A4946" d="M546.938,106.312c-64.75-37.188-147-15.312-184.188,49.438s-15.312,147,49.438,184.188
			c64.75,37.188,147,15.312,184.188-49.438C633.562,226.188,611.25,143.5,546.938,106.312z M577.125,279.562
			c-31.062,53.812-100.188,72.625-154.438,41.562c-53.812-31.062-72.625-100.188-41.562-154.438
			c31.062-53.812,100.188-72.625,154.438-41.562C589.812,156.625,608.188,225.75,577.125,279.562z"/>
		<g>
			<path opacity="0.1" fill="#FDFDFD" enable-background="new    " d="M370.188,163.625C407.375,98.875,490.062,77,554.375,114.188
				c8.75,5.25,17.062,11.375,24.5,17.938c-9.188-10.062-19.688-18.812-31.938-25.812c-64.75-37.188-147-15.312-184.188,49.438
				c-31.938,55.562-20.125,124.688,24.938,166.25C348.75,279.562,340,215.688,370.188,163.625z"/>
			<path opacity="0.2" fill="#07090A" enable-background="new    " d="M571,124.25c38.938,42.438,47.688,106.312,17.5,158.812
				c-37.188,64.75-119.875,86.625-184.188,49.438c-8.75-5.25-17.062-11.375-24.5-17.938c9.188,10.062,19.688,18.812,31.938,25.812
				c64.75,37.188,147,15.312,184.188-49.438C628.312,234.938,616.062,166.25,571,124.25z"/>
		</g>
		<g opacity="0.3">
			<g>
				<path fill="#FDFDFD" d="M390.312,231c-5.25-58.188,35-109.812,91-120.75c-3.938,0-7.875,0-11.812,0.438
					c-62.125,5.688-108.062,60.375-102.812,122.5c5.688,62.125,60.375,108.062,122.5,102.812c3.938-0.438,7.875-0.875,11.812-1.75
					C443.688,332.938,395.562,289.188,390.312,231z"/>
			</g>
		</g>
		<path opacity="0.3" fill="#FDFDFD" enable-background="new    " d="M497.062,157.938c27.562-5.25,55.125-2.188,79.625,7.438
			c-10.062-17.062-24.938-31.938-43.75-42c-54.688-29.75-123.375-8.75-153.125,45.938c-19.25,35.438-17.062,76.562,1.312,108.938
			C389.875,219.625,435.375,169.75,497.062,157.938z"/>
	</g>
</g>
</svg>
