<?xml version="1.0" ?><!DOCTYPE svg  PUBLIC '-//W3C//DTD SVG 1.1//EN'  'http://www.w3.org/Graphics/SVG/1.1/DTD/svg11.dtd'><svg enable-background="new 0 0 128 128" id="Слой_1" version="1.1" viewBox="0 0 128 128" xml:space="preserve" xmlns="http://www.w3.org/2000/svg" xmlns:xlink="http://www.w3.org/1999/xlink"><g><g><g><g><circle cx="64" cy="64" fill="#E9705B" r="62"/></g></g></g><g><g><g><rect fill="#FDFAFA" height="70" width="50" x="39" y="34.2"/></g></g><g><g><rect fill="#4A4946" height="1.7" width="38.3" x="46" y="86.1"/></g></g><g><g><rect fill="#4A4946" height="1.7" width="38.3" x="46" y="89.5"/></g></g><g><g><rect fill="#4A4946" height="1.7" width="38.3" x="46" y="93"/></g></g><g><g><rect fill="#4A4946" height="1.7" width="38.3" x="46" y="96.1"/></g></g></g><g><g><g><path d="M105.5,80.8L87.4,70.4l5-8.7l18.1,10.4c2.4,1.4,3.2,4.4,1.8,6.8v0C110.9,81.4,107.9,82.2,105.5,80.8z" fill="#F5C93F"/></g></g><g opacity="0.1"><g><path d="M92.4,61.7l-5,8.7l2.4,1.4c1-1.3,2-2.7,2.9-4.1c0.9-1.5,1.6-3,2.2-4.5L92.4,61.7z" fill="#050708"/></g></g><g opacity="0.8"><g><path d="M39.1,36.7c8.3-14.4,26.5-19.6,41.1-11.8c-0.3-0.2-0.7-0.4-1-0.6c-14.8-8.5-33.6-3.5-42.1,11.3      s-3.5,33.6,11.3,42.1c0.3,0.2,0.7,0.4,1,0.6C35.5,69.5,30.8,51.2,39.1,36.7z" fill="#FFFFFF"/></g></g><g opacity="0.2"><g><path d="M50.9,73.4c-12.3-7.1-16.6-22.9-9.5-35.3s22.9-16.6,35.3-9.5s16.6,22.9,9.5,35.3S63.3,80.5,50.9,73.4z" fill="#FDFDFD"/></g></g><g><g><path d="M82.3,69C72.4,79.2,56,79.4,45.8,69.5S35.4,43.1,45.4,33s26.3-10.4,36.5-0.4S92.3,58.9,82.3,69z" fill="#FDFAFA"/></g></g><g><g><g><circle cx="63.8" cy="51" fill="#FCF2E3" r="22.5"/></g></g><g><g><path d="M74.2,45.3c0,5.5-4.7,15.7-10.4,15.7S53.5,50.8,53.5,45.3s4.7-10,10.4-10       C69.6,35.4,74.2,39.8,74.2,45.3z" fill="#4A4946"/></g></g><g><g><path d="M63.8,73.5c6.9,0,13-3.1,17.1-7.9c-1.5-2.4-4.5-4.2-8.3-5.3c-2.3,2.8-5.3,4.8-8.8,4.8       c-3.5,0-6.4-2-8.8-4.8c-3.9,1.1-6.9,2.9-8.3,5.3C50.9,70.4,57,73.5,63.8,73.5z" fill="#4A4946"/></g></g></g><path d="M79.3,24.3c-14.8-8.5-33.6-3.5-42.1,11.3c-8.5,14.8-3.5,33.6,11.3,42.1c14.8,8.5,33.6,3.5,42.1-11.3    C99.1,51.7,94,32.8,79.3,24.3z M86.2,63.9c-7.1,12.3-22.9,16.6-35.3,9.5c-12.3-7.1-16.6-22.9-9.5-35.3    c7.1-12.3,22.9-16.6,35.3-9.5C89.1,35.8,93.3,51.6,86.2,63.9z" fill="#4A4946"/><g><path d="M38.9,37.4C47.4,22.6,66.3,17.6,81,26.1c2,1.2,3.9,2.6,5.6,4.1c-2.1-2.3-4.5-4.3-7.3-5.9     c-14.8-8.5-33.6-3.5-42.1,11.3c-7.3,12.7-4.6,28.5,5.7,38C34,63.9,32,49.3,38.9,37.4z" fill="#FDFDFD" opacity="0.1"/><path d="M84.8,28.4c8.9,9.7,10.9,24.3,4,36.3c-8.5,14.8-27.4,19.8-42.1,11.3     c-2-1.2-3.9-2.6-5.6-4.1c2.1,2.3,4.5,4.3,7.3,5.9c14.8,8.5,33.6,3.5,42.1-11.3C97.9,53.7,95.1,38,84.8,28.4z" fill="#07090A" opacity="0.2"/></g><g opacity="0.3"><g><path d="M43.5,52.8c-1.2-13.3,8-25.1,20.8-27.6c-0.9,0-1.8,0-2.7,0.1c-14.2,1.3-24.7,13.8-23.5,28      c1.3,14.2,13.8,24.7,28,23.5c0.9-0.1,1.8-0.2,2.7-0.4C55.7,76.1,44.7,66.1,43.5,52.8z" fill="#FDFDFD"/></g></g><path d="M67.9,36.1c6.3-1.2,12.6-0.5,18.2,1.7c-2.3-3.9-5.7-7.3-10-9.6c-12.5-6.8-28.2-2-35,10.5    c-4.4,8.1-3.9,17.5,0.3,24.9C43.4,50.2,53.8,38.8,67.9,36.1z" fill="#FDFDFD" opacity="0.3"/></g></g></svg>