<?xml version="1.0" ?><!DOCTYPE svg PUBLIC '-//W3C//DTD SVG 1.1//EN'  'http://www.w3.org/Graphics/SVG/1.1/DTD/svg11.dtd'>
<svg id="Layer_1" style="enable-background:new 0 0 24 24;" version="1.1" viewBox="0 0 24 24" xml:space="preserve" xmlns="http://www.w3.org/2000/svg" xmlns:xlink="http://www.w3.org/1999/xlink">
    <g fill="#3F51B5"><path d="M3,19c-0.276,0-0.5-0.224-0.5-0.5v-6C2.5,12.224,2.724,12,3,12h3c0.276,0,0.5,0.224,0.5,0.5S6.276,13,6,13H3.5v5.5   C3.5,18.776,3.276,19,3,19z"/><path d="M5,16H3c-0.276,0-0.5-0.224-0.5-0.5S2.724,15,3,15h2c0.276,0,0.5,0.224,0.5,0.5S5.276,16,5,16z"/><path d="M11,19c-0.128,0-0.256-0.049-0.354-0.146L8.5,16.707V18.5C8.5,18.776,8.276,19,8,19s-0.5-0.224-0.5-0.5v-2.997   c0-0.002,0-0.005,0-0.007V12.5C7.5,12.224,7.724,12,8,12h1.5c1.103,0,2,0.897,2,2s-0.897,2-2,2H9.207l2.146,2.146   c0.195,0.195,0.195,0.512,0,0.707C11.256,18.951,11.128,19,11,19z M8.5,15h1c0.552,0,1-0.449,1-1s-0.448-1-1-1h-1V15z"/><path d="M16,19h-3c-0.276,0-0.5-0.224-0.5-0.5v-6c0-0.276,0.224-0.5,0.5-0.5h3c0.276,0,0.5,0.224,0.5,0.5S16.276,13,16,13h-2.5v5   H16c0.276,0,0.5,0.224,0.5,0.5S16.276,19,16,19z"/><path d="M15,16h-2c-0.276,0-0.5-0.224-0.5-0.5S12.724,15,13,15h2c0.276,0,0.5,0.224,0.5,0.5S15.276,16,15,16z"/><path d="M21,19h-3c-0.276,0-0.5-0.224-0.5-0.5v-6c0-0.276,0.224-0.5,0.5-0.5h3c0.276,0,0.5,0.224,0.5,0.5S21.276,13,21,13h-2.5v5   H21c0.276,0,0.5,0.224,0.5,0.5S21.276,19,21,19z"/><path d="M20,16h-2c-0.276,0-0.5-0.224-0.5-0.5S17.724,15,18,15h2c0.276,0,0.5,0.224,0.5,0.5S20.276,16,20,16z"/><path d="M21,21H3c-1.379,0-2.5-1.122-2.5-2.5v-6C0.5,11.122,1.621,10,3,10h18c1.379,0,2.5,1.122,2.5,2.5v6   C23.5,19.878,22.379,21,21,21z M3,11c-0.827,0-1.5,0.673-1.5,1.5v6C1.5,19.327,2.173,20,3,20h18c0.827,0,1.5-0.673,1.5-1.5v-6   c0-0.827-0.673-1.5-1.5-1.5H3z"/><path d="M12,8c-1.379,0-2.5-1.122-2.5-2.5S10.621,3,12,3s2.5,1.122,2.5,2.5S13.379,8,12,8z M12,4c-0.827,0-1.5,0.673-1.5,1.5   S11.173,7,12,7s1.5-0.673,1.5-1.5S12.827,4,12,4z"/><path d="M5,11c-0.128,0-0.256-0.049-0.354-0.146c-0.195-0.195-0.195-0.512,0-0.707l5-5c0.195-0.195,0.512-0.195,0.707,0   s0.195,0.512,0,0.707l-5,5C5.256,10.951,5.128,11,5,11z"/><path d="M19,11c-0.128,0-0.256-0.049-0.354-0.146l-5-5c-0.195-0.195-0.195-0.512,0-0.707s0.512-0.195,0.707,0l5,5   c0.195,0.195,0.195,0.512,0,0.707C19.256,10.951,19.128,11,19,11z"/></g><g/><g/><g/><g/><g/><g/><g/><g/><g/><g/><g/><g/><g/><g/><g/></svg>