<?xml version="1.0" ?><!DOCTYPE svg  PUBLIC '-//W3C//DTD SVG 1.1//EN'  'http://www.w3.org/Graphics/SVG/1.1/DTD/svg11.dtd'><svg enable-background="new 0 0 512 512" height="512px" id="Layer_1" version="1.1" viewBox="0 0 512 512" width="512px" xml:space="preserve" xmlns="http://www.w3.org/2000/svg" xmlns:xlink="http://www.w3.org/1999/xlink"><path d="M507.862,257.294c0,138.069-111.932,250.002-249.995,250.002c-138.076,0-250.005-111.933-250.005-250.002  c0-138.066,111.929-249.995,250.005-249.995C395.931,7.299,507.862,119.228,507.862,257.294z" fill="#4FC3CE"/><path d="M405.734,371.08c0,4.896-3.963,8.865-8.852,8.865H108.519c-4.889,0-8.851-3.97-8.851-8.865V178.679  c0-4.895,3.962-8.851,8.851-8.851h288.364c4.889,0,8.852,3.956,8.852,8.851V371.08z" fill="#35495C"/><path d="M438.521,373.052c0,3.811-3.083,6.894-6.88,6.894H73.768c-3.804,0-6.89-3.083-6.89-6.894l0,0  c0-3.804,3.086-6.893,6.89-6.893h357.873C435.438,366.159,438.521,369.248,438.521,373.052L438.521,373.052z" fill="#999999"/><rect fill="#B3B2B3" height="8.494" width="371.639" x="66.882" y="366.159"/><path d="M305.961,366.159c0,2.348-1.905,4.246-4.233,4.246h-98.046c-2.342,0-4.241-1.898-4.241-4.246H305.961z" fill="#7F7F7F"/><rect fill="#FFFFFF" height="184.424" width="280.611" x="112.396" y="181.735"/><g><path d="M344.688,139.208c0-21.047-3.129-38.333,23.009-38.111c25.257,0.222,21.784,17.15,23.008,38.111" fill="#C1C1C5"/><path d="M144.612,125.577c0,0-1.998-23.365,22.254-24.364c24.259-1.002,196.073,0.106,196.073,0.106   s-16.559,2.752-18.285,24.258C342.928,147.084,144.612,125.577,144.612,125.577z" fill="#E8E9E8"/><rect fill="#E8E9E8" height="240.582" width="200.075" x="144.612" y="125.577"/><rect fill="#808080" height="6.503" width="102.538" x="159.867" y="168.538"/><rect fill="#808080" height="6.503" width="102.538" x="159.867" y="178.54"/><rect fill="#A0A0A1" height="9.01" width="168.057" x="159.867" y="194.542"/><rect fill="#A0A0A1" height="115.378" width="4.505" x="159.867" y="199.048"/><rect fill="#A0A0A1" height="115.378" width="4.002" x="177.875" y="199.048"/><rect fill="#A0A0A1" height="115.378" width="4.505" x="227.893" y="199.048"/><rect fill="#A0A0A1" height="112.857" width="3.995" x="278.415" y="201.568"/><rect fill="#A0A0A1" height="115.378" width="3.506" x="324.418" y="199.048"/><rect fill="#A0A0A1" height="2.5" width="165.557" x="159.867" y="303.584"/><rect fill="#A0A0A1" height="2.506" width="165.563" x="161.865" y="311.92"/><rect fill="#9B1E21" height="14.005" width="35.511" x="291.917" y="328.094"/><g><g><path d="M179.264,127.876v23.928h-5.431v-23.928H179.264z" fill="#F3785C"/><path d="M183.947,151.804v-23.928h6.324l4.975,8.769c1.416,2.521,2.838,5.504,3.903,8.203h0.106     c-0.357-3.159-0.463-6.394-0.463-9.979v-6.993h4.975v23.928h-5.683l-5.114-9.229c-1.422-2.557-2.977-5.646-4.154-8.451     l-0.106,0.036c0.146,3.159,0.211,6.533,0.211,10.439v7.205H183.947z" fill="#F3785C"/><path d="M214.1,151.804l-7.667-23.928h5.927l2.911,10.118c0.814,2.841,1.568,5.577,2.13,8.557h0.112     c0.595-2.875,1.343-5.716,2.157-8.448l3.056-10.228h5.755l-8.058,23.928H214.1z" fill="#F3785C"/><path d="M252.668,139.592c0,7.846-4.763,12.606-11.756,12.606c-7.098,0-11.252-5.362-11.252-12.179     c0-7.171,4.578-12.533,11.643-12.533C248.652,127.486,252.668,132.99,252.668,139.592z M235.375,139.91     c0,4.69,2.196,7.991,5.822,7.991c3.652,0,5.755-3.479,5.755-8.13c0-4.296-2.064-7.988-5.795-7.988     C237.505,131.783,235.375,135.259,235.375,139.91z" fill="#F3785C"/><path d="M261.651,127.876v23.928h-5.438v-23.928H261.651z" fill="#F3785C"/><path d="M283.919,151.132c-0.992,0.497-3.235,1.029-6.152,1.029c-8.27,0-12.529-5.146-12.529-11.967     c0-8.167,5.821-12.708,13.065-12.708c2.805,0,4.941,0.569,5.894,1.062l-1.098,4.3c-1.099-0.463-2.633-0.887-4.545-0.887     c-4.293,0-7.634,2.59-7.634,7.916c0,4.793,2.838,7.81,7.667,7.81c1.641,0,3.446-0.354,4.512-0.777L283.919,151.132z" fill="#F3785C"/><path d="M301.708,141.689h-8.806v5.679h9.831v4.436h-15.269v-23.928h14.778v4.436h-9.341v4.975h8.806V141.689z" fill="#F3785C"/></g></g></g><polygon fill="#A0A0A1" opacity="0.4" points="144.573,181.735 135.536,181.735 140.061,366.159 144.573,366.159 "/><polygon fill="#A0A0A1" opacity="0.4" points="344.688,181.735 353.718,181.735 349.199,366.159 344.688,366.159 "/></svg>