<?xml version="1.0" ?><!DOCTYPE svg  PUBLIC '-//W3C//DTD SVG 1.1//EN'  'http://www.w3.org/Graphics/SVG/1.1/DTD/svg11.dtd'><svg enable-background="new 0 0 512 512" height="512px" id="Layer_1" version="1.1" viewBox="0 0 512 512" width="512px" xml:space="preserve" xmlns="http://www.w3.org/2000/svg" xmlns:xlink="http://www.w3.org/1999/xlink"><path d="M506.029,255.737c0,138.077-111.933,249.997-249.996,249.997c-138.077,0-250.01-111.92-250.01-249.997  c0-138.064,111.933-249.997,250.01-249.997C394.097,5.741,506.029,117.673,506.029,255.737z" fill="#4FC3CE"/><g><path d="M409.067,370.907c0,4.889-3.963,8.857-8.857,8.857H111.843c-4.889,0-8.852-3.969-8.852-8.857V178.504   c0-4.895,3.963-8.865,8.852-8.865H400.21c4.895,0,8.857,3.97,8.857,8.865V370.907z" fill="#35495C"/><path d="M441.847,372.872c0,3.811-3.082,6.893-6.88,6.893H77.093c-3.804,0-6.887-3.082-6.887-6.893l0,0   c0-3.805,3.083-6.887,6.887-6.887h357.874C438.765,365.985,441.847,369.067,441.847,372.872L441.847,372.872z" fill="#999999"/><rect fill="#B3B2B3" height="8.487" width="371.641" x="70.206" y="365.985"/><path d="M309.287,365.985c0,2.342-1.898,4.247-4.233,4.247h-98.041c-2.349,0-4.247-1.905-4.247-4.247H309.287z" fill="#7F7F7F"/><rect fill="#F7F5F7" height="184.432" width="280.62" x="115.72" y="181.554"/><g><rect fill="#FFFFFF" height="167.728" width="273.084" x="119.484" y="198.258"/><rect fill="#2C3E50" height="13.284" width="273.084" x="119.484" y="184.551"/><path d="M130.115,190.756c0,1.786-1.456,3.242-3.255,3.242c-1.786,0-3.242-1.456-3.242-3.242    c0-1.799,1.456-3.255,3.242-3.255C128.66,187.501,130.115,188.957,130.115,190.756z" fill="#A41D30"/><path d="M143.108,190.756c0,1.786-1.456,3.242-3.255,3.242c-1.793,0-3.242-1.456-3.242-3.242    c0-1.799,1.449-3.255,3.242-3.255C141.652,187.501,143.108,188.957,143.108,190.756z" fill="#F2B029"/><path d="M156.094,190.756c0,1.786-1.449,3.242-3.248,3.242s-3.242-1.456-3.242-3.242    c0-1.799,1.442-3.255,3.242-3.255S156.094,188.957,156.094,190.756z" fill="#1AC0E2"/><path d="M381.944,191.192c0,1.799-1.178,3.255-2.64,3.255H173.856c-1.456,0-2.633-1.456-2.633-3.255l0,0    c0-1.793,1.178-3.248,2.633-3.248h205.448C380.767,187.944,381.944,189.399,381.944,191.192L381.944,191.192z" fill="#F3F2F1"/></g><polygon fill="#A0A0A1" opacity="0.4" points="160.123,181.554 151.086,181.554 155.604,365.985 160.123,365.985  "/><polygon fill="#A0A0A1" opacity="0.4" points="352.168,181.547 361.205,181.547 356.693,365.979 352.168,365.979  "/><g><path d="M352.168,148.166c0-20.19-2.996-36.782,22.083-36.57c24.245,0.212,20.918,16.459,22.082,36.57" fill="#C1C2C6"/><path d="M160.163,135.094c0,0-1.925-22.426,21.354-23.392c23.286-0.953,188.182,0.106,188.182,0.106    s-15.903,2.646-17.558,23.286C350.494,155.734,160.163,135.094,160.163,135.094" fill="#E9EAEA"/><polyline fill="#E9EAEA" points="160.163,135.094 352.168,135.094 352.168,365.985 160.163,365.985   "/><rect fill="#808080" height="6.232" width="98.405" x="174.802" y="176.321"/><rect fill="#808080" height="6.238" width="98.405" x="174.802" y="185.92"/><rect fill="#A2A2A3" height="8.646" width="161.291" x="174.802" y="201.281"/><rect fill="#A2A2A3" height="110.729" width="4.32" x="174.802" y="205.601"/><rect fill="#A2A2A3" height="110.729" width="3.837" x="192.088" y="205.601"/><rect fill="#A2A2A3" height="110.729" width="4.32" x="240.083" y="205.601"/><rect fill="#A2A2A3" height="108.314" width="3.837" x="288.567" y="208.016"/><rect fill="#A2A2A3" height="110.729" width="3.255" x="332.838" y="205.601"/><rect fill="#A2A2A3" height="2.401" width="158.889" x="174.802" y="305.924"/><rect fill="#A2A2A3" height="2.401" width="158.896" x="176.721" y="313.929"/><rect fill="#808080" height="13.436" width="34.082" x="301.534" y="329.455"/><g><g><path d="M197.605,135.471v22.962h-5.213v-22.962H197.605z" fill="#F3785C"/><path d="M202.104,158.433v-22.962h6.06l4.776,8.421c1.362,2.415,2.725,5.279,3.744,7.873h0.106      c-0.344-3.037-0.437-6.139-0.437-9.579v-6.715h4.763v22.962h-5.451l-4.908-8.852c-1.363-2.461-2.858-5.418-3.983-8.111      l-0.105,0.04c0.132,3.023,0.205,6.258,0.205,10.016v6.907H202.104z" fill="#F3785C"/><path d="M231.033,158.433l-7.356-22.962h5.689l2.798,9.711c0.781,2.732,1.495,5.352,2.038,8.216h0.106      c0.582-2.758,1.296-5.484,2.077-8.117l2.937-9.811h5.518l-7.74,22.962H231.033z" fill="#F3785C"/><path d="M268.047,146.717c0,7.535-4.564,12.1-11.272,12.1c-6.821,0-10.811-5.146-10.811-11.696      c0-6.88,4.399-12.021,11.181-12.021C264.196,135.1,268.047,140.373,268.047,146.717z M251.455,147.028      c0,4.499,2.11,7.667,5.59,7.667c3.507,0,5.511-3.341,5.511-7.813c0-4.115-1.972-7.661-5.55-7.661      C253.493,139.222,251.455,142.556,251.455,147.028z" fill="#F3785C"/><path d="M276.673,135.471v22.962h-5.213v-22.962H276.673z" fill="#F3785C"/><path d="M298.041,157.785c-0.953,0.476-3.103,0.992-5.901,0.992c-7.938,0-12.026-4.935-12.026-11.484      c0-7.833,5.597-12.192,12.543-12.192c2.692,0,4.736,0.542,5.656,1.019l-1.052,4.121c-1.059-0.437-2.527-0.853-4.366-0.853      c-4.128,0-7.323,2.487-7.323,7.601c0,4.604,2.719,7.502,7.355,7.502c1.568,0,3.302-0.344,4.334-0.754L298.041,157.785z" fill="#F3785C"/><path d="M315.108,148.728h-8.441v5.451h9.434v4.254h-14.646v-22.962h14.171v4.26h-8.958v4.77h8.441V148.728z" fill="#F3785C"/></g></g><g><path d="M205.875,282.26c1.945-1.256,4.776-2.791,8.931-4.57c4.201-1.807,7.535-2.283,10.234-1.542     c2.573,0.694,4.941,2.646,6.198,5.591c1.271,2.943,1.363,5.867,0.305,8.328c-1.39,3.188-4.406,5.643-8.422,7.363     c-0.893,0.383-1.713,0.688-2.375,0.866l4.617,10.757l-6.748,2.891L205.875,282.26z M218.484,293.023     c0.635-0.112,1.376-0.37,2.355-0.794c3.612-1.554,5.061-4.339,3.738-7.423c-1.184-2.765-3.817-3.598-7.211-2.137     c-1.382,0.59-2.262,1.125-2.692,1.469L218.484,293.023z" fill="#E14B33"/><path d="M245.574,291.237l1.171,8.64l-7.052,3.03l-3.718-34.043l8.931-3.831l22.241,26.092l-7.316,3.136     l-5.636-6.722L245.574,291.237z M251.025,282.869l-4.611-5.584c-1.31-1.548-2.805-3.559-4.009-5.146l-0.093,0.033     c0.318,1.979,0.854,4.445,1.111,6.404l0.953,7.145L251.025,282.869z" fill="#E14B33"/><path d="M265.083,256.374l12.913,30.094l-6.827,2.931l-12.913-30.094L265.083,256.374z" fill="#E14B33"/><path d="M271.156,254.25c2.328-1.475,5.483-3.103,8.924-4.578c5.716-2.448,9.863-3.01,13.7-2.071     c4.122,0.986,7.674,3.844,9.963,9.156c2.461,5.762,2.071,10.631,0.226,14.336c-2.038,3.988-6.325,7.31-12.219,9.837     c-3.526,1.521-6.119,2.368-7.912,2.871L271.156,254.25z M288.521,275.869c0.635-0.111,1.574-0.509,2.421-0.879     c6.186-2.6,8.746-7.714,5.656-14.904c-2.633-6.265-7.714-7.999-13.562-5.491c-1.521,0.648-2.447,1.21-2.964,1.587     L288.521,275.869z" fill="#E14B33"/></g><path d="M325.323,270.518    c1.786,4.162-0.14,8.99-4.307,10.783l-107.031,45.925c-4.167,1.793-8.997-0.14-10.783-4.301l-16.194-37.741    c-1.786-4.167,0.146-8.99,4.313-10.789l107.025-45.917c4.167-1.793,8.996,0.132,10.782,4.307L325.323,270.518z" fill="none" stroke="#EF4B2F" stroke-miterlimit="10" stroke-width="5.4171"/></g></g></svg>