<?xml version="1.0" ?><!DOCTYPE svg  PUBLIC '-//W3C//DTD SVG 1.1//EN'  'http://www.w3.org/Graphics/SVG/1.1/DTD/svg11.dtd'><svg enable-background="new 0 0 128 128" id="Layer_1" version="1.1" viewBox="0 0 128 128" xml:space="preserve" xmlns="http://www.w3.org/2000/svg" xmlns:xlink="http://www.w3.org/1999/xlink"><g><circle cx="64" cy="64" fill="#84DBFF" r="63.5"/><g><path d="M91.2,23.4H50.5v13.8c0,2.7-2.2,5-5,5H31.8v57.4c0,2.7,2.2,5,5,5h54.4c2.7,0,5-2.2,5-5V28.4    C96.2,25.7,94,23.4,91.2,23.4z" fill="#FFFFFF"/><path d="M50.5,23.4L31.8,42.2h13.8c2.7,0,5-2.2,5-5L50.5,23.4L50.5,23.4z" fill="#E6E9EE"/><g><rect fill="#CED5E0" height="2.2" width="49.7" x="39.2" y="55.1"/><rect fill="#CED5E0" height="2.2" width="49.7" x="39.2" y="63.2"/><rect fill="#CED5E0" height="2.2" width="49.7" x="39.2" y="71.3"/><rect fill="#CED5E0" height="2.2" width="28.5" x="39.2" y="79.4"/></g><g><path d="M79.6,36c0-0.2,0.1-0.5,0.1-0.7c0.1-0.3,0-0.6,0-0.9c0-0.1,0-0.1,0.1-0.1c-0.1-2-1.4-3.6-3-3.6     s-3,1.7-3,3.9c0,2.1,1.3,3.9,3,3.9C78.1,38.3,79.1,37.4,79.6,36L79.6,36z" fill="#324A5E"/><path d="M78.7,29.9c0-0.4-0.4-0.7-0.8-0.8c-0.4-0.1-0.8-0.1-1.2,0c-0.2,0-0.4,0.1-0.6,0.1     c-0.5,0.2-0.8,0.5-1.2,0.8c-0.4,0.3-0.9,0.5-1.4,0.4c0.2,0.3,0.6,0.4,1,0.4c-2.2,0.6-0.9,4.4-0.3,5.5c-0.1-0.3-0.1-0.6-0.1-0.9     c-0.1-0.9,0-3.7,2.7-3.8c3.1-0.1,2.9,3.8,2.8,4.6C79.6,36.1,81.3,30.4,78.7,29.9z" fill="#324A5E"/><polygon fill="#324A5E" points="75.4,39.4 76.7,40.7 78,39.4    "/><polygon fill="#324A5E" points="78,44.8 76.7,39.9 75.4,44.8    "/><path d="M79.5,38.9L79.5,38.9C79.5,39,79.5,39,79.5,38.9v0.2c0,1.1-0.4,2-1,2.8c-0.2,0.3-0.7,0.8-0.8,1.2     c-0.2,0.5-0.2,0.8-0.6,1.1c-0.1,0.1-0.2,0.1-0.3,0.2l0,0c-0.1,0-0.2-0.1-0.3-0.2c-0.4-0.4-0.5-0.7-0.6-1.1     c-0.1-0.4-0.6-0.8-0.8-1.2c-0.6-0.9-1-1.7-1-2.8V39v-0.1l0,0c-2.2,1.2-3.8,3.9-3.8,7c0,0.4,0,0.8,0.1,1.2     c1.7,1.1,3.9,1.7,6.3,1.7c0.1,0,0.1,0,0.2,0l0,0c0.1,0,0.1,0,0.2,0c2.4,0,4.6-0.6,6.3-1.7c0.1-0.4,0.1-0.8,0.1-1.2     C83.2,42.8,81.7,40.1,79.5,38.9z" fill="#324A5E"/><path d="M76.7,44.5c0,0,1.6-0.4,3.2-3.4l-0.5-0.5l0.4-0.2c0-0.8-0.4-1.5-0.4-1.5C79.5,39.7,77.9,42.6,76.7,44.5z" fill="#324A5E"/><path d="M76.7,44.5c0,0-1.6-0.4-3.2-3.4l0.5-0.5l-0.4-0.2c0-0.8,0.4-1.5,0.4-1.5C73.9,39.7,75.5,42.6,76.7,44.5z" fill="#324A5E"/></g><g><path d="M88.6,97.1l-6.2-6.2l23.5-23.5c0.7-0.7,1.9-0.7,2.6,0l3.6,3.6c0.7,0.7,0.7,1.9,0,2.6L88.6,97.1z" fill="#FF7058"/><path d="M109.8,76l2.4-2.4c0.7-0.7,0.7-1.9,0-2.6l-3.6-3.6c-0.7-0.7-1.9-0.7-2.6,0l-2.4,2.4L109.8,76z" fill="#F1543F"/><rect fill="#E6E9EE" height="8.7" transform="matrix(-0.7071 0.7071 -0.7071 -0.7071 233.4014 49.2435)" width="1.9" x="105.6" y="68.6"/><polygon fill="#FFD05B" points="88.6,97.1 79.7,99.9 82.4,90.9    "/></g></g></g></svg>