<?xml version="1.0" encoding="utf-8"?>
<!-- Generator: Adobe Illustrator 16.0.0, SVG Export Plug-In . SVG Version: 6.00 Build 0)  -->
<!DOCTYPE svg PUBLIC "-//W3C//DTD SVG 1.1//EN" "http://www.w3.org/Graphics/SVG/1.1/DTD/svg11.dtd">
<svg version="1.1" id="Layer_1" xmlns="http://www.w3.org/2000/svg" xmlns:xlink="http://www.w3.org/1999/xlink" x="0px" y="0px"
	 width="555.625px" height="555.625px" viewBox="202.188 2.188 555.625 555.625"
	 enable-background="new 202.188 2.188 555.625 555.625" xml:space="preserve">
<g>
	<circle fill="#FD8469" cx="480" cy="280" r="277.812"/>
	<path fill="#F9B54C" d="M561.375,389.375c0,3.062-0.438,6.562-2.625,8.312c-5.25,5.25-14,5.688-19.688,0.438L536,395.5
		c3.938,3.5,3.938,9.625,0.438,13.562l-9.625,9.625c-3.5,3.5-9.625,3.5-13.125,0l-6.125-6.125c3.938,3.938,3.938,10.938,0,14.438
		l-5.25,4.812c-3.938,3.5-10.062,3.5-14,0L483.5,427c2.625,2.625,2.625,7,0,9.625l-5.25,5.25c-2.625,2.625-7,2.625-9.625,0
		l-12.25-6.562c0,0-0.438,0-0.875-0.438l-4.375-12.688c-0.875-2.625,0-5.688,1.75-7.438c3.938-3.938,3.938-9.625,0-13.562
		l-5.688-5.688c-3.5-3.5-8.75-3.938-12.688-0.875l-3.5,3.062l4.812-4.812c4.812-4.375,4.812-11.812,0-16.625l-4.375-4.375
		c-4.812-4.812-11.812-4.812-16.625,0l-5.688,5.688c3.938-3.938,3.938-10.5,0-14.438l-7-7c-3.938-3.938-10.062-3.938-14-0.438
		l-17.062,14.875l0,0c2.188-3.062,1.75-7-0.438-9.625l-5.25-5.25c-3.062-3.062-7.438-3.062-10.5,0L354,356.562
		c-4.375-3.938-8.312-7-11.375-10.062l40.688-94.5c11.812,0,33.25-0.875,49.875-10.938c14-8.75,32.375-5.25,41.125,7.875
		c-1.75,0.875-3.5,1.75-5.25,2.625c-11.375,7.438-25.812,12.25-37.188,15.312c-9.188,2.625-15.75,10.5-16.625,20.125
		c-0.438,9.625-3.062,19.688-5.25,26.25c-1.75,5.25,0.438,10.5,5.25,13.562c2.625,1.312,5.25,2.188,8.312,2.188
		c3.938,0,7.438-1.312,10.5-3.938c10.5-9.188,25.375-23.625,24.062-30.188c0,0,14,2.188,17.062-1.312
		c0,0,69.125,53.375,85.312,85.75l0,0C560.062,379.312,561.375,384.562,561.375,389.375z"/>
	<path fill="#FFD05B" d="M618.688,348.688c-13.562,8.75-56,35.438-58.625,29.75c-16.625-32.375-85.75-85.312-85.75-85.312
		c-3.062,3.5-17.062,1.312-17.062,1.312c1.312,6.562-13.562,21.438-24.062,30.188c-3.062,2.625-6.562,3.938-10.5,3.938
		c-2.625,0-5.688-0.875-8.312-2.188c-4.812-2.625-6.562-8.312-5.25-13.562c2.188-6.562,4.812-16.625,5.25-26.25
		s7.438-17.5,16.625-20.125c11.375-3.062,25.812-8.312,37.188-15.312c10.938-7,24.5-7.875,36.312-2.188
		c16.625,8.312,42,15.312,71.75,2.625L618.688,348.688z"/>
	<path fill="#FFD05B" d="M452.875,414.312c3.938-3.938,3.938-9.625,0-13.562l-5.688-5.688c-3.5-3.5-8.75-3.5-12.688-0.875
		l-3.5,3.062l4.812-4.812c4.375-4.375,4.375-12.25,0-16.625l-4.375-4.375c-4.375-4.375-11.812-4.375-16.625,0l-5.688,5.25
		c3.938-3.938,3.938-10.5,0-14.438l-7-7c-3.938-3.938-10.062-3.938-14-0.438l-17.5,15.75c3.062-3.062,3.062-7.438,0-10.5l-5.25-5.25
		c-3.062-3.062-7.438-3.062-10.5,0l-6.125,6.125c0.438,20.125,18.812,15.75,18.812,15.75c-1.312,24.5,26.25,23.188,26.25,23.188
		c-4.812,26.25,27.562,21.875,27.562,21.875c0.875,20.125,34.562,13.562,34.562,13.562l-4.375-13.562
		C450.25,419.125,450.688,416.062,452.875,414.312z"/>
	<path fill="#FFFFFF" d="M369.75,366.188l-0.875,1.312c-2.188,2.625-6.125,2.625-8.312,0.438l-3.062-2.625
		c-2.625-2.188-2.625-6.125-0.438-8.312l0.875-1.312c2.188-2.625,6.125-2.625,8.312-0.438l3.062,2.625
		C371.5,359.625,371.938,363.562,369.75,366.188z"/>
	<path fill="#FFFFFF" d="M409.125,370.125l-1.75,1.75c-3.062,3.5-7.875,3.938-11.375,0.875l-3.938-3.5
		c-3.5-3.062-3.938-7.875-0.875-11.375l1.312-1.75c3.062-3.5,7.875-3.938,11.375-0.875l3.938,3.5
		C411.312,361.812,411.75,366.625,409.125,370.125z"/>
	<path fill="#FFFFFF" d="M435.812,385.438l-1.312,1.75c-3.062,3.5-7.875,3.938-11.375,0.875l-3.938-3.5
		c-3.5-3.062-3.938-7.875-0.875-11.375l1.312-1.75c3.062-3.5,7.875-3.938,11.375-0.875l3.938,3.5
		C438.438,377.125,438.875,382.375,435.812,385.438z"/>
	<path fill="#FFFFFF" d="M451.562,405.562l-1.312,1.312c-2.188,2.625-6.562,3.062-9.188,0.875l-3.5-2.625
		c-2.625-2.188-3.062-6.562-0.875-9.188l1.312-1.312c2.188-2.625,6.562-3.062,9.188-0.875l3.5,2.625
		C453.312,398.562,453.75,402.938,451.562,405.562z"/>
	<path fill="#FFFFFF" d="M422.688,311.5l4.375-10.938c1.312-3.5-0.438-7.438-4.375-8.75l-8.312-2.188
		c-0.875,8.75-3.062,17.5-5.25,23.625c-0.438,1.312-0.438,3.062-0.438,4.375C414.375,319.375,420.5,316.75,422.688,311.5z"/>
	<polygon fill="#FFFFFF" points="654.125,351.312 625.25,364 573.188,242.375 595.062,231.438 	"/>
	<path fill="#324A5E" d="M757.812,280c0-48.562-12.25-94.062-34.125-133.438l-137.375,67.375l79.188,161L753.438,329
		C756.062,312.812,757.812,296.625,757.812,280z"/>
	<polygon fill="#FFFFFF" points="386.812,242.375 334.75,364 305.875,351.312 364.938,231.438 	"/>
	<path fill="#324A5E" d="M202.188,280c0,16.625,1.75,32.812,4.375,48.562L294.5,374.5l79.188-161l-137.375-66.938
		C214.438,185.938,202.188,231.438,202.188,280z"/>
	<circle fill="#2B3B4E" cx="680.812" cy="330.312" r="13.125"/>
	<circle fill="#2B3B4E" cx="714.062" cy="312.375" r="13.125"/>
	<circle fill="#2B3B4E" cx="276.562" cy="334.688" r="13.125"/>
	<circle fill="#2B3B4E" cx="243.312" cy="316.75" r="13.125"/>
</g>
</svg>
