<?xml version="1.0" ?><!DOCTYPE svg  PUBLIC '-//W3C//DTD SVG 1.1//EN'  'http://www.w3.org/Graphics/SVG/1.1/DTD/svg11.dtd'><svg enable-background="new 0 0 128 128" id="Layer_1" version="1.1" viewBox="0 0 128 128" xml:space="preserve" xmlns="http://www.w3.org/2000/svg" xmlns:xlink="http://www.w3.org/1999/xlink"><g><circle cx="64" cy="64" fill="#FD8469" r="63.5"/><path d="M82.6,89c0,0.7-0.1,1.5-0.6,1.9c-1.2,1.2-3.2,1.3-4.5,0.1l-0.7-0.6c0.9,0.8,0.9,2.2,0.1,3.1l-2.2,2.2   c-0.8,0.8-2.2,0.8-3,0l-1.4-1.4c0.9,0.9,0.9,2.5,0,3.3l-1.2,1.1c-0.9,0.8-2.3,0.8-3.2,0l-1.1-1.1c0.6,0.6,0.6,1.6,0,2.2l-1.2,1.2   c-0.6,0.6-1.6,0.6-2.2,0l-2.8-1.5c0,0-0.1,0-0.2-0.1l-1-2.9c-0.2-0.6,0-1.3,0.4-1.7c0.9-0.9,0.9-2.2,0-3.1l-1.3-1.3   c-0.8-0.8-2-0.9-2.9-0.2l-0.8,0.7l1.1-1.1c1.1-1,1.1-2.7,0-3.8l-1-1c-1.1-1.1-2.7-1.1-3.8,0l-1.3,1.3c0.9-0.9,0.9-2.4,0-3.3   l-1.6-1.6c-0.9-0.9-2.3-0.9-3.2-0.1l-3.9,3.4c0,0,0,0,0,0c0.5-0.7,0.4-1.6-0.1-2.2l-1.2-1.2c-0.7-0.7-1.7-0.7-2.4,0l-0.2,0.2   c-1-0.9-1.9-1.6-2.6-2.3l9.3-21.6c2.7,0,7.6-0.2,11.4-2.5c3.2-2,7.4-1.2,9.4,1.8c-0.4,0.2-0.8,0.4-1.2,0.6   c-2.6,1.7-5.9,2.8-8.5,3.5c-2.1,0.6-3.6,2.4-3.8,4.6c-0.1,2.2-0.7,4.5-1.2,6c-0.4,1.2,0.1,2.4,1.2,3.1c0.6,0.3,1.2,0.5,1.9,0.5   c0.9,0,1.7-0.3,2.4-0.9c2.4-2.1,5.8-5.4,5.5-6.9c0,0,3.2,0.5,3.9-0.3c0,0,15.8,12.2,19.5,19.6c0,0,0,0,0,0   C82.3,86.7,82.6,87.9,82.6,89z" fill="#F9B54C"/><path d="M95.7,79.7c-3.1,2-12.8,8.1-13.4,6.8C78.5,79.1,62.7,67,62.7,67c-0.7,0.8-3.9,0.3-3.9,0.3   c0.3,1.5-3.1,4.9-5.5,6.9c-0.7,0.6-1.5,0.9-2.4,0.9c-0.6,0-1.3-0.2-1.9-0.5c-1.1-0.6-1.5-1.9-1.2-3.1c0.5-1.5,1.1-3.8,1.2-6   c0.1-2.2,1.7-4,3.8-4.6c2.6-0.7,5.9-1.9,8.5-3.5c2.5-1.6,5.6-1.8,8.3-0.5c3.8,1.9,9.6,3.5,16.4,0.6L95.7,79.7z" fill="#FFD05B"/><path d="M57.8,94.7c0.9-0.9,0.9-2.2,0-3.1l-1.3-1.3c-0.8-0.8-2-0.8-2.9-0.2l-0.8,0.7l1.1-1.1c1-1,1-2.8,0-3.8l-1-1   c-1-1-2.7-1-3.8,0l-1.3,1.2c0.9-0.9,0.9-2.4,0-3.3l-1.6-1.6c-0.9-0.9-2.3-0.9-3.2-0.1L39,84.7c0.7-0.7,0.7-1.7,0-2.4l-1.2-1.2   c-0.7-0.7-1.7-0.7-2.4,0L34,82.5c0.1,4.6,4.3,3.6,4.3,3.6c-0.3,5.6,6,5.3,6,5.3c-1.1,6,6.3,5,6.3,5c0.2,4.6,7.9,3.1,7.9,3.1l-1-3.1   C57.2,95.8,57.3,95.1,57.8,94.7z" fill="#FFD05B"/><path d="M38.8,83.7l-0.2,0.3c-0.5,0.6-1.4,0.6-1.9,0.1l-0.7-0.6c-0.6-0.5-0.6-1.4-0.1-1.9l0.2-0.3   c0.5-0.6,1.4-0.6,1.9-0.1l0.7,0.6C39.2,82.2,39.3,83.1,38.8,83.7z" fill="#FFFFFF"/><path d="M47.8,84.6L47.4,85c-0.7,0.8-1.8,0.9-2.6,0.2l-0.9-0.8c-0.8-0.7-0.9-1.8-0.2-2.6l0.3-0.4   c0.7-0.8,1.8-0.9,2.6-0.2l0.9,0.8C48.3,82.7,48.4,83.8,47.8,84.6z" fill="#FFFFFF"/><path d="M53.9,88.1l-0.3,0.4c-0.7,0.8-1.8,0.9-2.6,0.2l-0.9-0.8c-0.8-0.7-0.9-1.8-0.2-2.6l0.3-0.4   c0.7-0.8,1.8-0.9,2.6-0.2l0.9,0.8C54.5,86.2,54.6,87.4,53.9,88.1z" fill="#FFFFFF"/><path d="M57.5,92.7L57.2,93c-0.5,0.6-1.5,0.7-2.1,0.2l-0.8-0.6c-0.6-0.5-0.7-1.5-0.2-2.1l0.3-0.3   c0.5-0.6,1.5-0.7,2.1-0.2l0.8,0.6C57.9,91.1,58,92.1,57.5,92.7z" fill="#FFFFFF"/><path d="M50.9,71.2l1-2.5c0.3-0.8-0.1-1.7-1-2l-1.9-0.5c-0.2,2-0.7,4-1.2,5.4c-0.1,0.3-0.1,0.7-0.1,1   C49,73,50.4,72.4,50.9,71.2z" fill="#FFFFFF"/><polygon fill="#FFFFFF" points="103.8,80.3 97.2,83.2 85.3,55.4 90.3,52.9  "/><path d="M127.5,64c0-11.1-2.8-21.5-7.8-30.5L88.3,48.9l18.1,36.8l20.1-10.5C127.1,71.5,127.5,67.8,127.5,64z" fill="#324A5E"/><polygon fill="#FFFFFF" points="42.7,55.4 30.8,83.2 24.2,80.3 37.7,52.9  "/><path d="M0.5,64c0,3.8,0.4,7.5,1,11.1l20.1,10.5l18.1-36.8L8.3,33.5C3.3,42.5,0.5,52.9,0.5,64z" fill="#324A5E"/><circle cx="109.9" cy="75.5" fill="#2B3B4E" r="3"/><circle cx="117.5" cy="71.4" fill="#2B3B4E" r="3"/><circle cx="17.5" cy="76.5" fill="#2B3B4E" r="3"/><circle cx="9.9" cy="72.4" fill="#2B3B4E" r="3"/></g></svg>