<?xml version="1.0" encoding="utf-8"?>
<!-- Generator: Adobe Illustrator 16.0.0, SVG Export Plug-In . SVG Version: 6.00 Build 0)  -->
<!DOCTYPE svg PUBLIC "-//W3C//DTD SVG 1.1//EN" "http://www.w3.org/Graphics/SVG/1.1/DTD/svg11.dtd">
<svg version="1.1" id="Layer_1" xmlns="http://www.w3.org/2000/svg" xmlns:xlink="http://www.w3.org/1999/xlink" x="0px" y="0px"
	 width="555.625px" height="555.625px" viewBox="202.188 2.188 555.625 555.625"
	 enable-background="new 202.188 2.188 555.625 555.625" xml:space="preserve">
<g>
	<circle fill="#84DBFF" cx="480" cy="280" r="277.812"/>
	<g>
		<path fill="#FFFFFF" d="M599,102.375H420.938v60.375c0,11.812-9.625,21.875-21.875,21.875h-59.938V435.75
			c0,11.812,9.625,21.875,21.875,21.875h238c11.812,0,21.875-9.625,21.875-21.875v-311.5
			C620.875,112.438,611.25,102.375,599,102.375z"/>
		<path fill="#E6E9EE" d="M420.938,102.375l-81.812,82.25H399.5c11.812,0,21.875-9.625,21.875-21.875L420.938,102.375
			L420.938,102.375z"/>
		<g>
			<rect x="371.5" y="241.062" fill="#CED5E0" width="217.438" height="9.625"/>
			<rect x="371.5" y="276.5" fill="#CED5E0" width="217.438" height="9.625"/>
			<rect x="371.5" y="311.938" fill="#CED5E0" width="217.438" height="9.625"/>
			<rect x="371.5" y="347.375" fill="#CED5E0" width="124.688" height="9.625"/>
		</g>
		<g>
			<path fill="#324A5E" d="M548.25,157.5c0-0.875,0.438-2.188,0.438-3.062c0.438-1.312,0-2.625,0-3.938c0-0.438,0-0.438,0.438-0.438
				c-0.438-8.75-6.125-15.75-13.125-15.75s-13.125,7.438-13.125,17.062c0,9.188,5.688,17.062,13.125,17.062
				C541.688,167.562,546.062,163.625,548.25,157.5L548.25,157.5z"/>
			<path fill="#324A5E" d="M544.312,130.812c0-1.75-1.75-3.062-3.5-3.5s-3.5-0.438-5.25,0c-0.875,0-1.75,0.438-2.625,0.438
				c-2.188,0.875-3.5,2.188-5.25,3.5s-3.938,2.188-6.125,1.75c0.875,1.312,2.625,1.75,4.375,1.75
				c-9.625,2.625-3.938,19.25-1.312,24.062c-0.438-1.312-0.438-2.625-0.438-3.938c-0.438-3.938,0-16.188,11.812-16.625
				c13.562-0.438,12.688,16.625,12.25,20.125C548.25,157.938,555.688,133,544.312,130.812z"/>
			<polygon fill="#324A5E" points="529.875,172.375 535.562,178.062 541.25,172.375 			"/>
			<polygon fill="#324A5E" points="541.25,196 535.562,174.562 529.875,196 			"/>
			<path fill="#324A5E" d="M547.812,170.188L547.812,170.188C547.812,170.625,547.812,170.625,547.812,170.188v0.875
				c0,4.812-1.75,8.75-4.375,12.25c-0.875,1.312-3.062,3.5-3.5,5.25c-0.875,2.188-0.875,3.5-2.625,4.812
				c-0.438,0.438-0.875,0.438-1.312,0.875l0,0c-0.438,0-0.875-0.438-1.312-0.875c-1.75-1.75-2.188-3.062-2.625-4.812
				s-2.625-3.5-3.5-5.25c-2.625-3.938-4.375-7.438-4.375-12.25v-0.438v-0.438l0,0c-9.625,5.25-16.625,17.062-16.625,30.625
				c0,1.75,0,3.5,0.438,5.25c7.438,4.812,17.062,7.438,27.562,7.438c0.438,0,0.438,0,0.875,0l0,0c0.438,0,0.438,0,0.875,0
				c10.5,0,20.125-2.625,27.562-7.438c0.438-1.75,0.438-3.5,0.438-5.25C564,187.25,557.438,175.438,547.812,170.188z"/>
			<path fill="#324A5E" d="M535.562,194.688c0,0,7-1.75,14-14.875l-2.188-2.188l1.75-0.875c0-3.5-1.75-6.562-1.75-6.562
				C547.812,173.688,540.812,186.375,535.562,194.688z"/>
			<path fill="#324A5E" d="M535.562,194.688c0,0-7-1.75-14-14.875l2.188-2.188L522,176.75c0-3.5,1.75-6.562,1.75-6.562
				C523.312,173.688,530.312,186.375,535.562,194.688z"/>
		</g>
		<g>
			<path fill="#FF7058" d="M587.625,424.812L560.5,397.688l102.812-102.812c3.062-3.062,8.312-3.062,11.375,0l15.75,15.75
				c3.062,3.062,3.062,8.312,0,11.375L587.625,424.812z"/>
			<path fill="#F1543F" d="M680.375,332.5l10.5-10.5c3.062-3.062,3.062-8.312,0-11.375l-15.75-15.75
				c-3.062-3.062-8.312-3.062-11.375,0l-10.5,10.5L680.375,332.5z"/>
			
				<rect x="661.68" y="300.353" transform="matrix(0.7071 -0.7071 0.7071 0.7071 -30.8198 564.3629)" fill="#E6E9EE" width="8.313" height="38.062"/>
			<polygon fill="#FFD05B" points="587.625,424.812 548.688,437.062 560.5,397.688 			"/>
		</g>
	</g>
</g>
</svg>
