<?xml version="1.0" ?><!DOCTYPE svg  PUBLIC '-//W3C//DTD SVG 1.1//EN'  'http://www.w3.org/Graphics/SVG/1.1/DTD/svg11.dtd'><svg enable-background="new 0 0 256 256" height="256px" id="Layer_1" version="1.1" viewBox="0 0 256 256" width="256px" xml:space="preserve" xmlns="http://www.w3.org/2000/svg" xmlns:xlink="http://www.w3.org/1999/xlink"><g><circle cx="128" cy="128" fill="#55B928" r="128"/><g><g><path d="M170.625,64H61.375C56.197,64,52,68.197,52,73.375V175c0,5.178,4.197,9.375,9.375,9.375h109.25     c5.178,0,9.375-4.197,9.375-9.375V73.375C180,68.197,175.803,64,170.625,64z" fill="#FFFFFF"/><path d="M170.625,64H61.375C56.197,64,52,68.197,52,73.375V88h128V73.375C180,68.197,175.803,64,170.625,64z" fill="#DDEDFC"/><g><line fill="none" stroke="#3B444D" stroke-miterlimit="10" stroke-width="4" x1="64" x2="140" y1="142" y2="142"/><line fill="none" stroke="#3B444D" stroke-miterlimit="10" stroke-width="4" x1="64" x2="140" y1="154" y2="154"/><line fill="none" stroke="#3B444D" stroke-miterlimit="10" stroke-width="4" x1="64" x2="108" y1="166" y2="166"/></g></g><path d="M164,77c0,2.209-1.791,4-4,4h-58c-2.209,0-4-1.791-4-4l0,0c0-2.209,1.791-4,4-4h58    C162.209,73,164,74.791,164,77L164,77z" fill="#FFFFFF"/><circle cx="64" cy="77" fill="#EC4A2C" r="4"/><circle cx="76" cy="77" fill="#FECB00" r="4"/><circle cx="88" cy="77" fill="#01C9F5" r="4"/><rect fill="#FECB00" height="32" width="104" x="64" y="100"/></g><g><g><path d="M188.314,165.417l29.342,29.341c3.125,3.124,3.125,8.188,0,11.313l0,0c-3.125,3.125-8.189,3.125-11.314,0     l-29.34-29.341" fill="#C6743B"/><g><g><path d="M192.297,192.025l1.461,1.461c5.771,0.52,11.893-1.548,16.486-6.142l-0.846-0.845       C204.652,191.247,198.164,193.114,192.297,192.025z" fill="#9D5E3F"/><path d="M197.766,197.494l1.461,1.461c5.771,0.52,11.893-1.548,16.486-6.142l-0.846-0.845       C210.121,196.716,203.633,198.582,197.766,197.494z" fill="#9D5E3F"/><path d="M203.234,202.963l1.461,1.461c3.768,0.34,7.684-0.426,11.229-2.276L219.07,199       c0.252-0.251,0.424-0.549,0.521-0.858C214.926,202.364,208.801,203.995,203.234,202.963z" fill="#9D5E3F"/><path d="M186.828,186.557l1.461,1.461c5.771,0.52,11.893-1.548,16.486-6.142l-0.846-0.844       C199.184,185.778,192.695,187.646,186.828,186.557z" fill="#9D5E3F"/></g></g><rect fill="#279DE8" height="16.553" transform="matrix(-0.7071 0.7071 -0.7071 -0.7071 446.9121 168.7458)" width="16" x="180.51" y="168.649"/><path d="M181.881,181.609c2.332-1.444,4.539-3.168,6.564-5.191     c1.865-1.866,3.477-3.889,4.852-6.021l-4.982-4.98l-11.313,11.313L181.881,181.609z" fill="#3B444D" opacity="0.1"/><path d="M183.9,169.831l29.342,29.341c2.34,2.341,2.926,5.773,1.76,8.66     c0.965-0.391,1.871-0.978,2.654-1.761c3.125-3.125,3.125-8.189,0-11.313l-29.342-29.341L183.9,169.831z" fill="#3B444D" opacity="0.1"/><g><circle cx="160.026" cy="148" fill="#01C9F5" r="36"/><circle cx="160.027" cy="148" fill="#1C75BC" opacity="0.5" r="30.999"/><circle cx="160.027" cy="148" fill="#F1F2F2" r="26"/><path d="M178.412,129.615c-2.863-2.863-6.229-4.918-9.813-6.166      c1.711,1.049,3.33,2.308,4.811,3.789c10.154,10.153,10.154,26.617,0,36.77c-7.289,7.29-17.832,9.345-26.955,6.167      c10.014,6.141,23.285,4.882,31.957-3.79C188.564,156.232,188.564,139.769,178.412,129.615z" fill="#3B444D" opacity="0.1"/></g></g><g><path d="M134.281,151.624h41.746v-8h-41.623C133.955,146.27,133.91,148.97,134.281,151.624z" fill="#3B444D"/><path d="M139.248,163.624h36.779v-8H135.17C136.035,158.455,137.395,161.166,139.248,163.624z" fill="#3B444D"/></g><path d="M172.434,135.624V125.15c-9.859-5.357-22.453-3.873-30.791,4.465c-1.824,1.823-3.314,3.852-4.482,6.009    H172.434z" fill="#FECB00"/><path d="M154.453,139.428c8.453-8.452,0.342-19.965-9.813-9.813    c-10.152,10.153-10.152,26.617,0,36.77c1.701,1.7,3.58,3.108,5.574,4.239C144.592,160.706,146,147.881,154.453,139.428z" fill="#FFFFFF" opacity="0.5"/></g></g></svg>