<?xml version="1.0" encoding="utf-8"?>
<!-- Generator: Adobe Illustrator 16.0.0, SVG Export Plug-In . SVG Version: 6.00 Build 0)  -->
<!DOCTYPE svg PUBLIC "-//W3C//DTD SVG 1.1//EN" "http://www.w3.org/Graphics/SVG/1.1/DTD/svg11.dtd">
<svg version="1.1" id="Layer_1" xmlns="http://www.w3.org/2000/svg" xmlns:xlink="http://www.w3.org/1999/xlink" x="0px" y="0px"
	 width="555.625px" height="555.625px" viewBox="202.188 2.188 555.625 555.625"
	 enable-background="new 202.188 2.188 555.625 555.625" xml:space="preserve">
<g>
	<circle fill="#324A5E" cx="480" cy="280" r="277.812"/>
	<path fill="#E6E9EE" d="M567.5,500.5l-276.938-77.875c-5.688-1.75-8.75-7.438-7.438-13.125l96.25-343
		c1.75-5.688,7.438-8.75,13.125-7.438L669,136.938c5.688,1.75,8.75,7.438,7.438,13.125l-96.25,343
		C578.875,498.75,572.75,501.812,567.5,500.5z"/>
	<path fill="#FFFFFF" d="M623.5,468.562h-287c-5.688,0-10.5-4.812-10.5-10.5V101.938c0-5.688,4.812-10.5,10.5-10.5h287.438
		c5.688,0,10.5,4.812,10.5,10.5v356.125C634,463.75,629.625,468.562,623.5,468.562z"/>
	<path fill="#84DBFF" d="M347,148.75c0-1.75,1.312-3.5,3.5-3.5c4.375,0,4.812-4.375,4.812-4.812V115.5c0-1.75,1.312-3.5,3.5-3.5
		c1.75,0,3.5,1.312,3.5,3.5v24.938c0,0.438,0,3.062-1.312,5.688c-1.75,3.938-5.688,6.125-10.062,6.125
		C348.312,152.25,347,150.5,347,148.75z"/>
	<path fill="#84DBFF" d="M366.688,132.125c0-10.938,8.75-20.125,19.25-20.125s19.25,8.75,19.25,20.125
		c0,10.938-8.75,20.125-19.25,20.125C375,152.25,366.688,143.062,366.688,132.125z M373.25,132.125
		c0,7.438,5.688,13.125,12.25,13.125c7,0,12.688-6.125,12.688-13.125c0-7.438-5.688-13.125-12.688-13.125
		C378.938,119,373.25,124.688,373.25,132.125z"/>
	<path fill="#84DBFF" d="M436.25,139.562c0,7.875-6.125,12.688-11.812,12.688h-11.812c-1.75,0-3.5-1.312-3.5-3.5V115.5
		c0-1.75,1.312-3.5,3.5-3.5h9.188c0.438,0,2.625,0,5.25,1.312c3.5,1.75,5.688,5.25,5.688,9.625c0,2.188-0.438,4.375-1.75,6.125
		C434.5,131.688,436.25,135.188,436.25,139.562z M416.125,127.312h4.812c0.875,0,4.812,0,4.812-4.375c0-3.938-2.625-4.375-3.5-4.375
		c-0.438,0-0.438,0-0.438,0h-5.688v8.75H416.125z M429.688,139.562c0-2.188-1.312-5.688-5.25-5.688h-7.875v11.812h7.875
		c0,0,1.75,0,3.062-0.875C429.25,143.5,429.688,141.312,429.688,139.562z"/>
	<rect x="341.75" y="175.875" fill="#E6E9EE" width="127.75" height="9.625"/>
	<rect x="490.5" y="175.875" fill="#E6E9EE" width="127.75" height="9.625"/>
	<rect x="341.75" y="204.312" fill="#E6E9EE" width="127.75" height="9.625"/>
	<rect x="490.5" y="204.312" fill="#E6E9EE" width="127.75" height="9.625"/>
	<rect x="341.75" y="233.188" fill="#E6E9EE" width="127.75" height="9.625"/>
	<rect x="490.5" y="233.188" fill="#E6E9EE" width="127.75" height="9.625"/>
	<rect x="341.75" y="262.062" fill="#E6E9EE" width="127.75" height="9.625"/>
	<rect x="490.5" y="262.062" fill="#E6E9EE" width="127.75" height="9.625"/>
	<rect x="341.75" y="290.938" fill="#E6E9EE" width="127.75" height="9.625"/>
	<rect x="490.5" y="290.938" fill="#E6E9EE" width="127.75" height="9.625"/>
	<rect x="341.75" y="319.812" fill="#E6E9EE" width="127.75" height="9.625"/>
	<rect x="490.5" y="319.812" fill="#E6E9EE" width="127.75" height="9.625"/>
	<rect x="341.75" y="348.688" fill="#E6E9EE" width="127.75" height="9.625"/>
	<rect x="490.5" y="348.688" fill="#E6E9EE" width="127.75" height="9.625"/>
	<rect x="341.75" y="377.562" fill="#E6E9EE" width="127.75" height="9.625"/>
	<rect x="490.5" y="377.562" fill="#E6E9EE" width="127.75" height="9.625"/>
	<rect x="341.75" y="406.438" fill="#E6E9EE" width="127.75" height="9.625"/>
	<rect x="490.5" y="406.438" fill="#E6E9EE" width="127.75" height="9.625"/>
	<rect x="341.75" y="435.312" fill="#E6E9EE" width="127.75" height="9.625"/>
	<rect x="490.5" y="435.312" fill="#E6E9EE" width="127.75" height="9.625"/>
</g>
</svg>
