<?xml version="1.0" ?><!DOCTYPE svg  PUBLIC '-//W3C//DTD SVG 1.1//EN'  'http://www.w3.org/Graphics/SVG/1.1/DTD/svg11.dtd'><svg enable-background="new 0 0 128 128" id="Layer_1" version="1.1" viewBox="0 0 128 128" xml:space="preserve" xmlns="http://www.w3.org/2000/svg" xmlns:xlink="http://www.w3.org/1999/xlink"><g><circle cx="64" cy="64" fill="#324A5E" r="63.5"/><path d="M84,114.4L20.7,96.6c-1.3-0.4-2-1.7-1.7-3l22-78.4c0.4-1.3,1.7-2,3-1.7l63.2,17.8c1.3,0.4,2,1.7,1.7,3   l-22,78.4C86.6,114,85.2,114.7,84,114.4z" fill="#E6E9EE"/><path d="M96.8,107.1H31.2c-1.3,0-2.4-1.1-2.4-2.4V23.3c0-1.3,1.1-2.4,2.4-2.4h65.7c1.3,0,2.4,1.1,2.4,2.4v81.4   C99.2,106,98.2,107.1,96.8,107.1z" fill="#FFFFFF"/><path d="M33.6,34c0-0.4,0.3-0.8,0.8-0.8c1,0,1.1-1,1.1-1.1v-5.7c0-0.4,0.3-0.8,0.8-0.8c0.4,0,0.8,0.3,0.8,0.8v5.7   c0,0.1,0,0.7-0.3,1.3c-0.4,0.9-1.3,1.4-2.3,1.4C33.9,34.8,33.6,34.4,33.6,34z" fill="#84DBFF"/><path d="M38.1,30.2c0-2.5,2-4.6,4.4-4.6s4.4,2,4.4,4.6c0,2.5-2,4.6-4.4,4.6C40,34.8,38.1,32.7,38.1,30.2z    M39.6,30.2c0,1.7,1.3,3,2.8,3c1.6,0,2.9-1.4,2.9-3c0-1.7-1.3-3-2.9-3C40.9,27.2,39.6,28.5,39.6,30.2z" fill="#84DBFF"/><path d="M54,31.9c0,1.8-1.4,2.9-2.7,2.9h-2.7c-0.4,0-0.8-0.3-0.8-0.8v-7.6c0-0.4,0.3-0.8,0.8-0.8h2.1   c0.1,0,0.6,0,1.2,0.3c0.8,0.4,1.3,1.2,1.3,2.2c0,0.5-0.1,1-0.4,1.4C53.6,30.1,54,30.9,54,31.9z M49.4,29.1h1.1c0.2,0,1.1,0,1.1-1   c0-0.9-0.6-1-0.8-1c-0.1,0-0.1,0-0.1,0h-1.3V29.1z M52.5,31.9c0-0.5-0.3-1.3-1.2-1.3h-1.8v2.7h1.8c0,0,0.4,0,0.7-0.2   C52.4,32.8,52.5,32.3,52.5,31.9z" fill="#84DBFF"/><rect fill="#E6E9EE" height="2.2" width="29.2" x="32.4" y="40.2"/><rect fill="#E6E9EE" height="2.2" width="29.2" x="66.4" y="40.2"/><rect fill="#E6E9EE" height="2.2" width="29.2" x="32.4" y="46.7"/><rect fill="#E6E9EE" height="2.2" width="29.2" x="66.4" y="46.7"/><rect fill="#E6E9EE" height="2.2" width="29.2" x="32.4" y="53.3"/><rect fill="#E6E9EE" height="2.2" width="29.2" x="66.4" y="53.3"/><rect fill="#E6E9EE" height="2.2" width="29.2" x="32.4" y="59.9"/><rect fill="#E6E9EE" height="2.2" width="29.2" x="66.4" y="59.9"/><rect fill="#E6E9EE" height="2.2" width="29.2" x="32.4" y="66.5"/><rect fill="#E6E9EE" height="2.2" width="29.2" x="66.4" y="66.5"/><rect fill="#E6E9EE" height="2.2" width="29.2" x="32.4" y="73.1"/><rect fill="#E6E9EE" height="2.2" width="29.2" x="66.4" y="73.1"/><rect fill="#E6E9EE" height="2.2" width="29.2" x="32.4" y="79.7"/><rect fill="#E6E9EE" height="2.2" width="29.2" x="66.4" y="79.7"/><rect fill="#E6E9EE" height="2.2" width="29.2" x="32.4" y="86.3"/><rect fill="#E6E9EE" height="2.2" width="29.2" x="66.4" y="86.3"/><rect fill="#E6E9EE" height="2.2" width="29.2" x="32.4" y="92.9"/><rect fill="#E6E9EE" height="2.2" width="29.2" x="66.4" y="92.9"/><rect fill="#E6E9EE" height="2.2" width="29.2" x="32.4" y="99.5"/><rect fill="#E6E9EE" height="2.2" width="29.2" x="66.4" y="99.5"/></g></svg>