<?xml version="1.0" ?><!DOCTYPE svg  PUBLIC '-//W3C//DTD SVG 1.1//EN'  'http://www.w3.org/Graphics/SVG/1.1/DTD/svg11.dtd'><svg enable-background="new 0 0 128 128" id="Слой_1" version="1.1" viewBox="0 0 128 128" xml:space="preserve" xmlns="http://www.w3.org/2000/svg" xmlns:xlink="http://www.w3.org/1999/xlink"><g><g><g><circle cx="64" cy="64" fill="#E9705B" r="62"/></g></g><g><g><rect fill="#FDFAFA" height="80" width="60" x="34" y="24"/></g></g><g><g><path d="M49.8,43.7h-9c-0.6,0-1.1-0.5-1.1-1.1v-9c0-0.6,0.5-1.1,1.1-1.1h9c0.6,0,1.1,0.5,1.1,1.1v9     C50.9,43.2,50.4,43.7,49.8,43.7z" fill="#FCF2E3"/></g></g><g><g><path d="M45.7,42.7c-0.4,0-0.8-0.2-1.1-0.5L40.5,37l2.2-1.8l3,3.8l5.1-6.5l2.2,1.8l-6.2,7.9     C46.5,42.5,46.1,42.7,45.7,42.7C45.7,42.7,45.7,42.7,45.7,42.7z" fill="#48AA97"/></g></g><g><g><rect fill="#4A4946" height="2" width="31.6" x="56.6" y="33.7"/></g></g><g><g><rect fill="#4A4946" height="2" width="15.8" x="56.6" y="39.3"/></g></g><g><g><path d="M49.8,60.6h-9c-0.6,0-1.1-0.5-1.1-1.1v-9c0-0.6,0.5-1.1,1.1-1.1h9c0.6,0,1.1,0.5,1.1,1.1v9     C50.9,60.1,50.4,60.6,49.8,60.6z" fill="#FCF2E3"/></g></g><g><g><path d="M45.7,59.6c-0.4,0-0.8-0.2-1.1-0.5l-4.1-5.1l2.2-1.8l3,3.8l5.1-6.5l2.2,1.8L46.8,59     C46.5,59.4,46.1,59.6,45.7,59.6C45.7,59.6,45.7,59.6,45.7,59.6z" fill="#48AA97"/></g></g><g><g><rect fill="#4A4946" height="2" width="31.6" x="56.6" y="50.6"/></g></g><g><g><rect fill="#4A4946" height="2" width="15.8" x="56.6" y="56.2"/></g></g><g><g><path d="M49.8,77.5h-9c-0.6,0-1.1-0.5-1.1-1.1v-9c0-0.6,0.5-1.1,1.1-1.1h9c0.6,0,1.1,0.5,1.1,1.1v9     C50.9,77,50.4,77.5,49.8,77.5z" fill="#FCF2E3"/></g></g><g><g><path d="M45.7,76.5c-0.4,0-0.8-0.2-1.1-0.5l-4.1-5.1l2.2-1.8l3,3.8l5.1-6.5l2.2,1.8l-6.2,7.9     C46.5,76.3,46.1,76.5,45.7,76.5C45.7,76.5,45.7,76.5,45.7,76.5z" fill="#48AA97"/></g></g><g><g><rect fill="#4A4946" height="2" width="31.6" x="56.6" y="67.5"/></g></g><g><g><rect fill="#4A4946" height="2" width="15.8" x="56.6" y="73.1"/></g></g><g><g><path d="M49.8,94.5h-9c-0.6,0-1.1-0.5-1.1-1.1v-9c0-0.6,0.5-1.1,1.1-1.1h9c0.6,0,1.1,0.5,1.1,1.1v9     C50.9,93.9,50.4,94.5,49.8,94.5z" fill="#FCF2E3"/></g></g><g><g><rect fill="#4A4946" height="2" width="31.6" x="56.6" y="84.4"/></g></g><g><g><rect fill="#4A4946" height="2" width="15.8" x="56.6" y="90.1"/></g></g></g></svg>