<?xml version="1.0" encoding="utf-8"?>
<!-- Generator: Adobe Illustrator 16.0.0, SVG Export Plug-In . SVG Version: 6.00 Build 0)  -->
<!DOCTYPE svg PUBLIC "-//W3C//DTD SVG 1.1//EN" "http://www.w3.org/Graphics/SVG/1.1/DTD/svg11.dtd">
<svg version="1.1" id="Слой_1" xmlns="http://www.w3.org/2000/svg" xmlns:xlink="http://www.w3.org/1999/xlink" x="0px" y="0px"
	 width="542.5px" height="542.5px" viewBox="208.75 8.75 542.5 542.5" enable-background="new 208.75 8.75 542.5 542.5"
	 xml:space="preserve">
<g>
	<g>
		<g>
			<circle fill="#E9705B" cx="480" cy="280" r="271.25"/>
		</g>
	</g>
	<g>
		<g>
			<rect x="348.75" y="105" fill="#FDFAFA" width="262.5" height="350"/>
		</g>
	</g>
	<g>
		<g>
			<path fill="#FCF2E3" d="M417.875,191.188H378.5c-2.625,0-4.812-2.188-4.812-4.812V147c0-2.625,2.188-4.812,4.812-4.812h39.375
				c2.625,0,4.812,2.188,4.812,4.812v39.375C422.688,189,420.5,191.188,417.875,191.188z"/>
		</g>
	</g>
	<g>
		<g>
			<path fill="#48AA97" d="M399.938,186.812c-1.75,0-3.5-0.875-4.812-2.188l-17.938-22.75l9.625-7.875l13.125,16.625l22.312-28.438
				l9.625,7.875l-27.125,34.562C403.438,185.938,401.688,186.812,399.938,186.812L399.938,186.812z"/>
		</g>
	</g>
	<g>
		<g>
			<rect x="447.625" y="147.438" fill="#4A4946" width="138.25" height="8.75"/>
		</g>
	</g>
	<g>
		<g>
			<rect x="447.625" y="171.938" fill="#4A4946" width="69.125" height="8.75"/>
		</g>
	</g>
	<g>
		<g>
			<path fill="#FCF2E3" d="M417.875,265.125H378.5c-2.625,0-4.812-2.188-4.812-4.812v-39.375c0-2.625,2.188-4.812,4.812-4.812
				h39.375c2.625,0,4.812,2.188,4.812,4.812v39.375C422.688,262.938,420.5,265.125,417.875,265.125z"/>
		</g>
	</g>
	<g>
		<g>
			<path fill="#48AA97" d="M399.938,260.75c-1.75,0-3.5-0.875-4.812-2.188l-17.938-22.312l9.625-7.875L399.938,245l22.312-28.438
				l9.625,7.875l-27.125,33.688C403.438,259.875,401.688,260.75,399.938,260.75L399.938,260.75z"/>
		</g>
	</g>
	<g>
		<g>
			<rect x="447.625" y="221.375" fill="#4A4946" width="138.25" height="8.75"/>
		</g>
	</g>
	<g>
		<g>
			<rect x="447.625" y="245.875" fill="#4A4946" width="69.125" height="8.75"/>
		</g>
	</g>
	<g>
		<g>
			<path fill="#FCF2E3" d="M417.875,339.062H378.5c-2.625,0-4.812-2.188-4.812-4.812v-39.375c0-2.625,2.188-4.812,4.812-4.812
				h39.375c2.625,0,4.812,2.188,4.812,4.812v39.375C422.688,336.875,420.5,339.062,417.875,339.062z"/>
		</g>
	</g>
	<g>
		<g>
			<path fill="#48AA97" d="M399.938,334.688c-1.75,0-3.5-0.875-4.812-2.188l-17.938-22.312l9.625-7.875l13.125,16.625L422.25,290.5
				l9.625,7.875l-27.125,34.562C403.438,333.812,401.688,334.688,399.938,334.688L399.938,334.688z"/>
		</g>
	</g>
	<g>
		<g>
			<rect x="447.625" y="295.312" fill="#4A4946" width="138.25" height="8.75"/>
		</g>
	</g>
	<g>
		<g>
			<rect x="447.625" y="319.812" fill="#4A4946" width="69.125" height="8.75"/>
		</g>
	</g>
	<g>
		<g>
			<path fill="#FCF2E3" d="M417.875,413.438H378.5c-2.625,0-4.812-2.188-4.812-4.812V369.25c0-2.625,2.188-4.812,4.812-4.812h39.375
				c2.625,0,4.812,2.188,4.812,4.812v39.375C422.688,410.812,420.5,413.438,417.875,413.438z"/>
		</g>
	</g>
	<g>
		<g>
			<rect x="447.625" y="369.25" fill="#4A4946" width="138.25" height="8.75"/>
		</g>
	</g>
	<g>
		<g>
			<rect x="447.625" y="394.188" fill="#4A4946" width="69.125" height="8.75"/>
		</g>
	</g>
</g>
</svg>
