<?xml version="1.0" encoding="utf-8"?>
<!-- Generator: Adobe Illustrator 16.0.0, SVG Export Plug-In . SVG Version: 6.00 Build 0)  -->
<!DOCTYPE svg PUBLIC "-//W3C//DTD SVG 1.1//EN" "http://www.w3.org/Graphics/SVG/1.1/DTD/svg11.dtd">
<svg version="1.1" id="Layer_1" xmlns="http://www.w3.org/2000/svg" xmlns:xlink="http://www.w3.org/1999/xlink" x="0px" y="0px"
	 width="1800px" height="1200px" viewBox="0 0 1800 1200" enable-background="new 0 0 1800 1200" xml:space="preserve">
<g>
	<rect display="none" fill="#92CBDE" width="1800" height="1200"/>
	<g>
		<ellipse opacity="0.1" fill="#29302D" cx="1474.688" cy="1123.885" rx="99.046" ry="15.512"/>
		<g>
			<path fill="#FDFFFF" d="M1588.227,353.142c-1.753,0-3.478,0.12-5.175,0.328c-5.595-21.144-24.851-36.733-47.755-36.733
				c-14.237,0-27.063,6.026-36.075,15.665c-7.275-12.617-20.894-21.115-36.504-21.115c-16.04,0-29.982,8.967-37.096,22.16
				c-7.61-7.538-18.079-12.197-29.637-12.197c-17.882,0-33.149,11.148-39.261,26.869c-21.182,2.212-37.693,20.12-37.693,41.886
				c0,23.262,18.857,42.119,42.119,42.119c1.753,0,3.478-0.12,5.175-0.328c5.595,21.144,24.851,36.733,47.754,36.733
				c14.238,0,27.064-6.026,36.076-15.665c7.275,12.617,20.894,21.115,36.504,21.115c16.04,0,29.982-8.967,37.096-22.16
				c7.61,7.538,18.079,12.197,29.637,12.197c17.882,0,33.149-11.148,39.261-26.869c21.182-2.212,37.693-20.12,37.693-41.886
				C1630.346,372,1611.488,353.142,1588.227,353.142z"/>
			<ellipse opacity="0.1" fill="#29302D" cx="1474.688" cy="392.633" rx="113.994" ry="17.45"/>
			<g>
				<polygon fill="#FFCD2E" points="1528.889,359.424 1509.626,359.424 1439.751,359.424 1420.488,359.424 1409.977,389.818 
					1439.751,389.818 1509.626,389.818 1539.4,389.818 				"/>
				<rect x="1454.344" y="308.64" fill="#FFCD2E" width="40.689" height="65.981"/>
				<path fill="#FFCD2E" d="M1568.21,132.448h-43.03h-100.983h-43.03c0,0,0,185.933,93.521,185.933
					C1569.625,318.381,1568.21,132.448,1568.21,132.448z"/>
				<path fill="#FFCD2E" d="M1418.666,258.811c-41.38,0-69.177-32.568-69.177-62.987c0-15.463,7.062-28.15,20.423-36.689
					c11.949-7.636,28.809-11.672,48.754-11.672c19.416,0,37.756,5.526,51.641,15.561c14.593,10.546,22.629,24.792,22.629,40.114
					s-8.036,29.568-22.629,40.114C1456.422,253.285,1438.082,258.811,1418.666,258.811z M1418.666,161.892
					c-17.188,0-31.358,3.251-40.982,9.402c-9.133,5.836-13.765,14.09-13.765,24.53c0,11.568,5.438,23.508,14.918,32.758
					c10.441,10.188,24.586,15.798,39.829,15.798c16.406,0,31.744-4.555,43.188-12.826c10.738-7.76,16.651-17.852,16.651-28.418
					s-5.913-20.658-16.651-28.418C1450.41,166.447,1435.072,161.892,1418.666,161.892z"/>
				<path fill="#FFCD2E" d="M1530.711,258.811c-19.417,0-37.756-5.526-51.642-15.561c-14.592-10.545-22.628-24.792-22.628-40.114
					s8.036-29.568,22.628-40.114c13.886-10.035,32.225-15.561,51.642-15.561c19.945,0,36.805,4.036,48.754,11.672
					c13.36,8.539,20.423,21.226,20.423,36.689C1599.888,226.242,1572.091,258.811,1530.711,258.811z M1530.711,161.892
					c-16.406,0-31.744,4.555-43.188,12.826c-10.738,7.76-16.651,17.852-16.651,28.418s5.913,20.658,16.651,28.418
					c11.444,8.271,26.782,12.826,43.188,12.826c15.242,0,29.388-5.611,39.829-15.798c9.48-9.25,14.917-21.19,14.917-32.758
					c0-10.44-4.631-18.693-13.764-24.53C1562.069,165.143,1547.897,161.892,1530.711,161.892z"/>
				<g opacity="0.2">
					<g>
						<path fill="#29302D" d="M1377.546,171.297c1.712-1.094,3.571-2.095,5.562-3.003c-0.542-5.509-0.942-10.576-1.238-15.065
							c-2.831,1.042-5.501,2.222-7.997,3.536c0.116,4.093,0.377,9.726,0.941,16.458
							C1375.676,172.555,1376.584,171.912,1377.546,171.297z"/>
						<path fill="#29302D" d="M1396.906,240.341c-3.653-1.442-7.129-3.259-10.381-5.426c2.094,6.62,4.531,13.25,7.367,19.734
							c2.888,1.025,5.89,1.876,8.997,2.538C1400.68,251.709,1398.692,246.064,1396.906,240.341z"/>
					</g>
				</g>
				<g opacity="0.2">
					<path fill="#29302D" d="M1571.795,171.385c-1.712-1.094-3.57-2.095-5.562-3.003c0.542-5.509,0.942-10.576,1.238-15.065
						c2.831,1.042,5.501,2.222,7.997,3.536c-0.116,4.093-0.376,9.726-0.941,16.458C1573.665,172.642,1572.757,172,1571.795,171.385z
						"/>
					<path fill="#29302D" d="M1552.435,240.068c3.653-1.442,7.13-3.259,10.381-5.426c-2.094,6.62-4.531,13.25-7.367,19.734
						c-2.888,1.025-5.89,1.876-8.997,2.538C1548.662,251.436,1550.648,245.791,1552.435,240.068z"/>
				</g>
				<polygon fill="#C9981F" points="1474.688,163.313 1488.364,191.024 1518.945,195.467 1496.816,217.037 1502.04,247.494 
					1474.688,233.114 1447.336,247.494 1452.561,217.037 1430.432,195.467 1461.013,191.024 				"/>
				<rect x="1454.344" y="347.139" opacity="0.2" fill="#29302D" width="40.689" height="12.285"/>
			</g>
		</g>
	</g>
	<g>
		<ellipse opacity="0.1" fill="#29302D" cx="440.245" cy="1123.229" rx="359.56" ry="16.167"/>
		<rect x="415.498" y="810.016" fill="#FDFFFF" width="368.442" height="53.04"/>
		<rect x="425.963" y="845.245" fill="#FDFFFF" width="53.041" height="153.083"/>
		<rect x="719.864" y="719.655" fill="#FDFFFF" width="53.041" height="153.083"/>
		<rect x="129.737" y="934.917" fill="#FDFFFF" width="366.217" height="53.041"/>
		<rect x="140.203" y="970.147" fill="#FDFFFF" width="53.041" height="153.082"/>
		<g>
			<g>
				<g>
					<g>
						<path fill="#FCDBCD" d="M711.92,702.104c0,0,36.392,0.638,16.862,5.839c0,0,29.729-0.102,10.74,4.015c0,0,17.392,3.31,0,3.773
							c0,0,12.479,4.423-0.409,3.919c0,0,13.306,5.197-5.612,2.129c0,0-15.611-1.57-27.574-3.873L711.92,702.104z"/>
					</g>
				</g>
				<path fill="#FDFFFF" d="M718.162,699.558l-6.844,22.443c-127.849-37.103-158.65-73.704-158.65-73.704l0.8-13.785
					c18.527,10.413,36.003,18.533,53.007,26.132C669.47,688.796,718.162,699.558,718.162,699.558z"/>
			</g>
			<g>
				<polygon fill="#555555" points="568.048,776.512 551.388,801.793 540.402,796.796 558.563,770.901 556.964,742.313 
					569.112,748.129 				"/>
				<path fill="#555555" d="M568.446,815.677c-1.603,3.02-30.661-15.15-29.056-18.171c1.603-3.021,5.496-4.889,14.911,1.368
					C563.716,805.133,570.05,812.654,568.446,815.677z"/>
			</g>
			<g>
				<polygon fill="#555555" points="521.793,779.826 501.746,802.517 491.57,796.025 513.19,772.939 515.624,744.41 
					526.834,751.875 				"/>
				<path fill="#555555" d="M516.684,818.659c-2.011,2.764-28.228-19.309-26.215-22.073c2.012-2.767,6.129-4.068,14.571,3.449
					C513.482,807.555,518.696,815.893,516.684,818.659z"/>
			</g>
			<path fill="#555555" d="M577.513,739.668l-83.121-5.592l1.394,4.887c0,0,27.84,28.543,90.407,7.298L577.513,739.668z"/>
			<polygon fill="#FDFFFF" points="607.146,656.949 590.84,746.63 485.589,738.135 492.181,624.518 			"/>
			<polygon fill="#E86264" points="572.264,671.354 565.492,664.479 557.303,669.508 561.741,678.228 551.215,720.749 
				558.031,733.668 567.157,721.065 566.44,678.771 			"/>
			<g>
				<polygon fill="#FDFFFF" points="568.597,667.328 575.473,683.082 595.181,664.181 				"/>
				<path fill="#E2E2E2" d="M575.216,666.302c2.206-0.342,4.415-0.65,6.625-0.965c4.417-0.618,8.843-1.198,13.269-1.76l1.809-0.23
					l-1.319,1.271l-4.905,4.745l-4.936,4.718c-1.642,1.571-3.297,3.137-4.958,4.692c-1.654,1.561-3.315,3.117-4.99,4.659
					l-0.518,0.479l-0.267-0.639c-1.108-2.642-2.191-5.291-3.267-7.947c-1.054-2.666-2.142-5.314-3.161-7.997
					C570.801,666.959,573.01,666.637,575.216,666.302z M572.315,675.084c1.213,2.595,2.423,5.193,3.605,7.804l-0.786-0.163
					c1.611-1.604,3.236-3.199,4.865-4.787c1.624-1.596,3.254-3.183,4.894-4.759l4.919-4.73l4.945-4.706l0.495,1.043
					c-4.436,0.489-8.87,0.958-13.315,1.389c-2.22,0.208-4.443,0.428-6.667,0.607c-2.222,0.19-4.442,0.395-6.672,0.547
					C569.872,669.897,571.073,672.499,572.315,675.084z"/>
			</g>
			<g>
				<polygon fill="#FDFFFF" points="560.426,667.416 551.228,681.936 534.638,660.247 				"/>
				<path fill="#E2E2E2" d="M553.915,665.862c-2.172-0.52-4.332-1.075-6.497-1.621c-4.323-1.105-8.635-2.245-12.944-3.408
					l0.645-0.952l4.169,5.401l4.141,5.428c1.381,1.81,2.748,3.628,4.11,5.452c1.366,1.818,2.726,3.64,4.074,5.477l-0.798,0.036
					c1.568-2.397,3.161-4.781,4.755-7.159c1.619-2.367,3.205-4.754,4.856-7.1C558.248,666.927,556.084,666.388,553.915,665.862z
					 M556.083,674.838c-1.47,2.461-2.946,4.918-4.444,7.36l-0.361,0.587l-0.438-0.554c-1.421-1.781-2.823-3.571-4.221-5.364
					c-1.403-1.793-2.802-3.591-4.185-5.395l-4.155-5.417l-4.125-5.437l-1.109-1.461l1.756,0.504
					c4.285,1.231,8.571,2.481,12.842,3.766c2.136,0.647,4.272,1.289,6.397,1.965c2.131,0.669,4.264,1.324,6.386,2.023
					C559.011,669.911,557.529,672.366,556.083,674.838z"/>
			</g>
			<path opacity="0.2" fill="#29302D" d="M495.785,738.963c0,0,1.969,1.727,2.664,2.255c0.65,0.493,5.878,4.398,8.196,5.043h79.547
				L495.785,738.963z"/>
			<g>
				<path fill="#555555" d="M471.373,486.167c0,0-61.759,7.556-24.011,110.386L471.373,486.167z"/>
				<path fill="#555555" d="M489.08,640.065c12.604,5.334,16.742-37.527,15.331-71.691c-1.414-34.166-21.64-57.493-37.759-56.825
					c-16.119,0.667-24.13-29.421-23.522,51.735C443.511,614.248,486.902,639.144,489.08,640.065z"/>
				<path fill="#FCDBCD" d="M442.289,592.06c-1.659-32.334,25.69-27.072,29.521-20.936c7.182,11.508,9.055,53.489,9.055,53.489
					C447.967,623.706,442.289,592.06,442.289,592.06z"/>
				<path fill="#FCDBCD" d="M468.806,590.228c1.911,45.595,48.267,80.683,103.533,78.367c55.271-2.317,86.328-48.164,84.417-93.763
					c-1.91-45.597-24.59-102.832-120.445-102.573C444.295,472.508,466.896,544.629,468.806,590.228z"/>
				<g>
					<path fill="#FDFFFF" d="M520.482,572.255c-3.057,11.529,3.812,23.351,15.342,26.409c11.528,3.059,23.352-3.813,26.41-15.344
						c3.056-11.526-3.809-23.352-15.34-26.409C535.363,553.854,523.538,560.727,520.482,572.255z"/>
					<path fill="#555555" d="M530.533,577.194c-1.893,7.14,2.361,14.465,9.501,16.356c7.141,1.897,14.462-2.358,16.355-9.501
						c1.891-7.138-2.36-14.463-9.5-16.354C539.747,565.805,532.428,570.054,530.533,577.194z"/>
				</g>
				<g>
					<path fill="#FDFFFF" d="M601.223,593.77c7.374,8.997,20.645,10.31,29.643,2.935c8.997-7.375,10.307-20.646,2.932-29.646
						c-7.373-8.994-20.643-10.311-29.641-2.935C595.158,571.501,593.847,584.773,601.223,593.77z"/>
					<path fill="#555555" d="M604.366,590.209c4.685,5.714,13.115,6.549,18.825,1.864c5.717-4.681,6.549-13.11,1.864-18.823
						c-4.683-5.711-13.111-6.547-18.824-1.862C600.52,576.072,599.686,584.497,604.366,590.209z"/>
				</g>
				<path fill="#555555" d="M689.178,452.457c-3.362-22.431-21.488-38.038-33.303-47.506c-10.192-8.17-20.586-12.413-26.11-14.271
					c-2.535-0.851-4.048-1.206-4.048-1.206c0.376,0.677,0.733,1.346,1.076,2.008c3.824,7.345,6.561,13.752,6.367,19.405
					c-0.086,2.5-0.592,4.816-1.446,6.971c-16.974-20.319-59.145-24.209-59.145-24.209c29.975,18.885,11.083,38.246-6.407,48.143
					c-3.313,1.875-6.668,3.24-9.62,4.225c-5.223,0.384-9.264,0.591-11.386,0.79c-59.753,5.591-70.993,29.546-73.783,39.361
					c-9.291,0.784-25.473,14.628-22.656,30.573c-1.029,3.247,1.146,9.476,3.545,17.679c8.127,26.458,28.186,60.713,34.621,60.446
					c7.142-0.296,5.564-41.4,4.376-65.81c45.312,3.456,106.793,2.416,122.879,0.199
					C651.304,524.127,697.174,512.112,689.178,452.457z"/>
			</g>
			<polygon opacity="0.2" fill="#29302D" points="608.382,684.05 602.722,681.279 606.474,660.644 			"/>
			<path fill="#E86264" d="M525.417,625.391l41.479,21.006c0,0-13.358,4.69-25.279,4.124
				C528.905,649.916,517.805,643.523,525.417,625.391z"/>
			<path opacity="0.1" fill="#29302D" d="M467.815,486.98c13.885,18.199,52.832,75.259,40.263,165.54l-47.603-162.695
				C460.475,489.825,466.732,485.561,467.815,486.98z"/>
			<g>
				<g>
					
						<rect x="379.452" y="429.83" transform="matrix(-0.7525 -0.6586 0.6586 -0.7525 357.724 1102.0216)" fill="#555555" width="12.933" height="107.938"/>
					
						<rect x="319.387" y="516.021" transform="matrix(-0.7525 -0.6586 0.6586 -0.7525 257.1019 1156.0109)" fill="#555555" width="52.726" height="27.357"/>
					
						<rect x="311.836" y="491.636" transform="matrix(-0.7525 -0.6586 0.6586 -0.7525 231.1774 1107.6985)" fill="#555555" width="23.751" height="37.555"/>
					<path fill="#555555" d="M393.381,556.099l-1.205-3.948c0,0-29.154,4.943-29.199-21.656l-12.73,3.886
						C350.247,534.38,353.349,570.476,393.381,556.099z"/>
					
						<rect x="331.818" y="506.767" transform="matrix(-0.7525 -0.6586 0.6586 -0.7525 244.6504 1132.8278)" opacity="0.2" fill="#29302D" width="6.715" height="27.358"/>
					
						<rect x="349.97" y="514.938" transform="matrix(-0.7525 -0.6586 0.6586 -0.7525 283.8707 1141.6462)" opacity="0.2" fill="#29302D" width="12.933" height="5.098"/>
					<g opacity="0.2">
						<g>
							<path fill="#29302D" d="M366.034,557.508l7.055-8.062c-2.154-1.107-4.17-2.616-5.839-4.658l-7.68,8.776
								C361.369,555.136,363.504,556.5,366.034,557.508z"/>
						</g>
					</g>
				</g>
				<g>
					<g>
						<g>
							<path fill="#FCDBCD" d="M419.281,480.071c0,0-8.316-5.625-13.616-10.31c-3.929-3.472-19.11-10.913-7.584-23.435
								c3.851-4.183,13.072-4.701,19.441,4.488c0,0,6.686,9.437,16.215,18.355L419.281,480.071z"/>
						</g>
					</g>
				</g>
				<path fill="#FDFFFF" d="M429.659,460.283l-14.438,20.597c0,0,6.449,5.551,17.727,16.188
					c19.681,18.563,48.405,60.698,57.796,152.137l17.267,6.821c0,0,3.914-103.164-47.839-166.575
					C452.266,479.766,440.218,467.406,429.659,460.283z"/>
			</g>
		</g>
		<path fill="#555555" d="M742.974,674.582c0-3.418-3.668-6.189-8.192-6.189s-8.192,2.771-8.192,6.189
			c0,0.627,0.125,1.231,0.354,1.801h5.25v48.007h5.174v-48.007h5.251C742.848,675.813,742.974,675.209,742.974,674.582z"/>
		<rect x="140.203" y="987.958" opacity="0.2" fill="#29302D" width="53.041" height="12.789"/>
		<rect x="425.963" y="863.056" opacity="0.2" fill="#29302D" width="53.041" height="12.789"/>
		<rect x="479.004" y="934.917" opacity="0.2" fill="#29302D" width="6.585" height="53.041"/>
		<rect x="772.905" y="810.016" opacity="0.2" fill="#29302D" width="6.585" height="53.04"/>
		<g>
			<g>
				<circle opacity="0.2" fill="#29302D" cx="464.997" cy="973.86" r="6.253"/>
				<circle opacity="0.2" fill="#29302D" cx="440.245" cy="950.426" r="6.253"/>
			</g>
			<g>
				<circle opacity="0.2" fill="#29302D" cx="176.828" cy="973.86" r="6.253"/>
				<circle opacity="0.2" fill="#29302D" cx="152.076" cy="950.426" r="6.253"/>
			</g>
		</g>
		<g>
			<g>
				<circle opacity="0.2" fill="#29302D" cx="464.997" cy="848.274" r="6.253"/>
				<circle opacity="0.2" fill="#29302D" cx="440.245" cy="824.841" r="6.253"/>
			</g>
			<g>
				<circle opacity="0.2" fill="#29302D" cx="757.543" cy="848.274" r="6.253"/>
				<circle opacity="0.2" fill="#29302D" cx="732.792" cy="824.841" r="6.253"/>
			</g>
		</g>
	</g>
</g>
</svg>
