<?xml version="1.0" encoding="utf-8"?>
<!-- Generator: Adobe Illustrator 16.0.0, SVG Export Plug-In . SVG Version: 6.00 Build 0)  -->
<!DOCTYPE svg PUBLIC "-//W3C//DTD SVG 1.1//EN" "http://www.w3.org/Graphics/SVG/1.1/DTD/svg11.dtd">
<svg version="1.1" id="Layer_1" xmlns="http://www.w3.org/2000/svg" xmlns:xlink="http://www.w3.org/1999/xlink" x="0px" y="0px"
	 width="512px" height="512px" viewBox="0 0 512 512" enable-background="new 0 0 512 512" xml:space="preserve">
<g>
	<defs>
		<rect id="SVGID_1_" width="512" height="512"/>
	</defs>
	<clipPath id="SVGID_2_">
		<use xlink:href="#SVGID_1_"  overflow="visible"/>
	</clipPath>
	<path clip-path="url(#SVGID_2_)" fill="#a9da65" d="M256,496C123.664,496,16,388.336,16,256S123.664,16,256,16s240,107.664,240,240
		S388.336,496,256,496z M256,0C114.616,0,0,114.616,0,256s114.616,256,256,256s256-114.616,256-256S397.384,0,256,0z"/>
</g>
<g>
	<defs>
		<rect id="SVGID_3_" width="512" height="512"/>
	</defs>
	<clipPath id="SVGID_4_">
		<use xlink:href="#SVGID_3_"  overflow="visible"/>
	</clipPath>
	<path clip-path="url(#SVGID_4_)" fill="#a9da65" d="M256,456.336c-110.464,0-200.336-89.872-200.336-200.336
		S145.536,55.664,256,55.664S456.336,145.536,456.336,256S366.464,456.336,256,456.336z M256,39.664
		C136.52,39.664,39.664,136.52,39.664,256c0,119.48,96.856,216.336,216.336,216.336c119.48,0,216.336-96.855,216.336-216.336
		C472.336,136.52,375.48,39.664,256,39.664z"/>
</g>
<g display="none">
	<defs>
		<rect id="SVGID_5_" width="512" height="512"/>
	</defs>
	<clipPath id="SVGID_6_" display="inline">
		<use xlink:href="#SVGID_5_"  overflow="visible"/>
	</clipPath>
	<path display="inline" clip-path="url(#SVGID_6_)" fill="#a9da65" d="M176.312,178.536c-3.128-3.064-7.128-5.392-11.992-6.984
		c-4.872-1.592-10.744-2.392-17.6-2.392c-6.376,0-11.84,0.984-16.408,2.944s-8.32,4.528-11.264,7.72
		c-2.936,3.184-5.104,6.76-6.48,10.712c-1.384,3.944-2.072,7.912-2.072,11.896c0,3.376,0.24,6.488,0.736,9.328
		c0.496,2.848,1.072,5.992,1.752,9.424h18.384v-8.912c0-8.336,1.208-14.72,3.632-19.168c2.416-4.448,6.32-6.664,11.72-6.664
		c2.2,0,4.152,0.272,5.832,0.832c1.68,0.544,3.096,1.488,4.224,2.808c1.136,1.312,1.992,3.064,2.568,5.232
		c0.584,2.176,0.872,4.856,0.872,8.048c0,2.024-0.208,4.288-0.64,6.8c-0.432,2.512-1.208,5.48-2.344,8.872
		c-1.136,3.392-2.696,7.368-4.688,11.896c-1.992,4.536-4.584,9.832-7.768,15.904l-34.656,66.736v13.968h73.168v-18.752h-45.864
		l30.976-58.832c3.128-5.392,5.768-10.168,7.904-14.336c2.152-4.168,3.888-8.016,5.24-11.536c1.344-3.52,2.312-6.832,2.888-9.928
		c0.584-3.096,0.872-6.232,0.872-9.424c0-5.568-0.72-10.568-2.16-14.976C181.72,185.344,179.432,181.6,176.312,178.536z"/>
</g>
<g>
	<defs>
		<rect id="SVGID_7_" width="499.224" height="512"/>
	</defs>
	<clipPath id="SVGID_8_">
		<use xlink:href="#SVGID_7_"  overflow="visible"/>
	</clipPath>
	<path clip-path="url(#SVGID_8_)" fill="#a9da65" d="M248.005,291.775c0,6.496-1.139,11.217-3.409,14.16
		c-2.277,2.943-5.702,4.416-10.304,4.416c-4.719,0-8.237-1.473-10.538-4.416c-2.301-2.936-3.448-7.656-3.448-14.16v-85.023
		c0-6.856,1.147-11.856,3.448-14.984c2.301-3.128,5.811-4.688,10.538-4.688c4.602,0,8.027,1.56,10.304,4.688
		c2.27,3.128,3.409,8.128,3.409,14.984V291.775z M264.901,184.696c-2.006-3.432-4.307-6.168-6.904-8.224
		c-2.605-2.048-5.296-3.608-8.065-4.688c-2.777-1.072-5.53-1.776-8.253-2.112c-2.722-0.336-5.179-0.504-7.387-0.504
		c-2.332,0-4.891,0.184-7.66,0.552c-2.777,0.368-5.562,1.12-8.331,2.248c-2.777,1.136-5.483,2.744-8.112,4.832
		c-2.637,2.08-4.945,4.824-6.95,8.224s-3.619,7.592-4.836,12.584c-1.224,5-1.841,10.928-1.841,17.792v66.368
		c0,6.855,0.601,12.809,1.794,17.832c1.186,5.031,2.769,9.287,4.742,12.783c1.974,3.496,4.259,6.312,6.857,8.457
		c2.605,2.152,5.304,3.816,8.112,5.008s5.616,2.008,8.424,2.439s5.406,0.641,7.8,0.641c2.145,0,4.587-0.209,7.309-0.641
		c2.714-0.432,5.445-1.24,8.199-2.439c2.752-1.191,5.436-2.873,8.064-5.057c2.63-2.168,4.961-5.008,6.989-8.496
		c2.028-3.496,3.658-7.736,4.883-12.736c1.227-4.99,1.834-10.92,1.834-17.783v-66.367c0-6.984-0.607-12.992-1.834-18.016
		C268.512,192.368,266.889,188.128,264.901,184.696z"/>
</g>
<g>
	<defs>
		<rect id="SVGID_9_" y="17.928" width="499.224" height="494.072"/>
	</defs>
	<clipPath id="SVGID_10_">
		<use xlink:href="#SVGID_9_"  overflow="visible"/>
	</clipPath>
	<polygon clip-path="url(#SVGID_10_)" fill="#a9da65" points="355.205,184.06 323.747,300.985 336.188,300.985 367.593,184.06 	"/>
</g>
<g>
	<defs>
		<rect id="SVGID_11_" x="0.158" y="17.928" width="499.065" height="494.072"/>
	</defs>
	<clipPath id="SVGID_12_">
		<use xlink:href="#SVGID_11_"  overflow="visible"/>
	</clipPath>
	<path clip-path="url(#SVGID_12_)" fill="#a9da65" d="M385.272,276.065c0,5.194-0.569,9.017-1.715,11.471
		c-1.139,2.463-3.143,3.697-6.013,3.697c-3.01,0-5.115-1.227-6.332-3.697c-1.209-2.454-1.809-6.276-1.809-11.471v-13.132
		c0-5.234,0.6-9.094,1.809-11.572c1.209-2.485,3.322-3.722,6.332-3.722c2.87,0,4.874,1.237,6.013,3.722
		c1.139,2.479,1.715,6.338,1.715,11.572V276.065z M382.325,237.242c-1.685-0.247-3.307-0.37-4.851-0.37
		c-2.424,0-4.928,0.324-7.524,0.98c-2.597,0.657-4.983,1.991-7.144,3.999c-2.167,2.007-3.945,4.872-5.341,8.592
		c-1.389,3.722-2.09,8.678-2.09,14.869v7.241c0,4.198,0.312,7.852,0.928,10.938c0.608,3.089,1.451,5.713,2.487,7.882
		c1.053,2.162,2.293,3.952,3.735,5.344c1.436,1.403,2.963,2.485,4.577,3.249c1.622,0.772,3.307,1.297,5.062,1.591
		c1.755,0.292,3.493,0.446,5.231,0.446c1.498,0,3.097-0.154,4.78-0.446c1.692-0.294,3.346-0.843,4.968-1.661
		c1.614-0.803,3.15-1.914,4.616-3.318c1.458-1.396,2.745-3.182,3.86-5.344c1.114-2.159,2.003-4.785,2.667-7.857
		c0.662-3.072,0.99-6.678,0.99-10.831v-7.241c0-4.154-0.312-7.742-0.951-10.77c-0.64-3.026-1.505-5.605-2.597-7.72
		c-1.1-2.115-2.379-3.821-3.83-5.11c-1.466-1.29-3.001-2.293-4.623-3.019C385.671,237.982,384.018,237.489,382.325,237.242z"/>
</g>
<g>
	<defs>
		<rect id="SVGID_13_" x="0.153" y="17.928" width="499.07" height="493.757"/>
	</defs>
	<clipPath id="SVGID_14_">
		<use xlink:href="#SVGID_13_"  overflow="visible"/>
	</clipPath>
	<path clip-path="url(#SVGID_14_)" fill="#a9da65" d="M321.671,221.711c0,5.192-0.569,9.011-1.707,11.464
		c-1.139,2.461-3.143,3.695-6.021,3.695c-3.01,0-5.115-1.226-6.324-3.695c-1.208-2.453-1.809-6.272-1.809-11.464v-13.123
		c0-5.231,0.601-9.088,1.809-11.565c1.201-2.484,3.314-3.719,6.324-3.719c2.878,0,4.882,1.234,6.021,3.719
		c1.138,2.477,1.707,6.334,1.707,11.565V221.711z M333.571,233.245c1.411-3.85,2.113-8.864,2.113-15.052v-7.236
		c0-4.151-0.319-7.739-0.959-10.763s-1.497-5.601-2.597-7.715s-2.371-3.819-3.829-5.107c-1.458-1.288-3.002-2.291-4.616-3.016
		c-1.622-0.718-3.275-1.204-4.959-1.451c-1.693-0.247-3.308-0.37-4.859-0.37c-1.637,0-3.313,0.139-5.029,0.409
		c-1.708,0.27-3.384,0.771-5.03,1.481c-1.637,0.725-3.188,1.744-4.646,3.048c-1.467,1.312-2.753,3.032-3.868,5.146
		s-1.996,4.676-2.628,7.677c-0.64,3-0.96,6.557-0.96,10.662v7.236c0,6.272,0.664,11.341,1.981,15.191
		c1.326,3.858,3.049,6.835,5.162,8.934c2.122,2.09,4.492,3.502,7.111,4.228c2.621,0.725,5.232,1.087,7.829,1.087
		c2.285,0,4.711-0.378,7.292-1.119c2.573-0.748,4.943-2.175,7.111-4.305C330.366,240.095,332.16,237.102,333.571,233.245z"/>
</g>
</svg>
