<svg xmlns="http://www.w3.org/2000/svg" viewBox="0 0 621.8 139.7"><defs><style>.cls-1{fill:#ffffff;}</style></defs><title>Ativo 2</title><g id="Camada_2" data-name="Camada 2"><g id="Layer_1" data-name="Layer 1"><path class="cls-1" d="M86.29,61.16,82.6,74.84H54.88l-9.79,45.08H86.48l-3.7,18.67H14.6L41.21,15.15c-14.23.56-24,8.69-24,38.25,0,9.43,2.4,10.9,2.58,12.57C7,66,0,61.35,0,48,0,23.47,17.37,0,63,0,70.4,0,82,2.22,93.69,2.22A55,55,0,0,0,110.32,0c-2.59,7.76-3.15,19-17.56,22.17-8.5,0-17.37-1.66-25.87-3.51l-9,42.5Z"/><path class="cls-1" d="M146.17,17l-6.29,29.2H151l-1.48,7.39H138.4L126.58,109a25.34,25.34,0,0,0-.74,5.92c0,5.17,2.4,6.83,7.57,6.83,7.21,0,13.86-7,16.64-16.26h7.76C147.27,135.63,129,139.7,119,139.7c-11.09,0-19.77-6.66-19.77-22.18a60.22,60.22,0,0,1,1.48-12l11.08-51.92H105.7l1.48-7.39h6.09l5.55-25.5Z"/><path class="cls-1" d="M196.43,62.27c-7.21,0-12.94,11.27-14.05,16.26l-12.75,60.06H143l26.8-125.66,27.35-3.69-10,46.56c7.76-8.86,15.89-10.34,21.62-10.34,11.82,0,20.51,6.09,20.51,20.88,0,15-8.87,37.32-8.87,47.67,0,4.62,1.85,7.76,7.39,7.76,8.13,0,11.46-6.65,15.52-16.26h7.76c-10.34,30.31-24.57,34.19-34.37,34.19-16.07,0-21.8-10.35-21.8-20.88,0-12.57,8.31-35.3,8.31-47.12C203.26,65.6,201.05,62.27,196.43,62.27Z"/><path class="cls-1" d="M290.48,9.24,269.23,109a25.89,25.89,0,0,0-.74,5.92c0,5.17,2.41,6.83,7.58,6.83,7.21,0,13.86-7,16.63-16.26h7.76c-10.53,30.12-28.82,34.19-38.8,34.19-11.09,0-19.77-6.66-19.77-22.18a60.89,60.89,0,0,1,1.47-12l19.78-92.58Z"/><path class="cls-1" d="M381.4,46.2,368.09,109a25.89,25.89,0,0,0-.74,5.92c0,5.17,2.41,7.94,7.58,7.94,7.21,0,12.2-8.13,15-17.37h7.76c-10.53,30.12-27.16,34.19-37.14,34.19-10.35,0-17-5.92-18.11-17-5.73,8.5-14.41,17-27.53,17-12.57,0-24.58-7.76-24.58-29.75,0-25,15.34-64.68,47.49-64.68,10.53,0,15,4.07,15,9.43V56l2-9.79Zm-63.75,61.16c0,14.23,5.91,14.41,9.24,14.41,5.36,0,13.12-5.54,15.33-16.26l8.87-41.76a7.16,7.16,0,0,0-7.57-7C327.81,56.73,317.65,90,317.65,107.36Z"/><path class="cls-1" d="M436.46,62.27c-6.65,0-11.64,7.76-14.41,17l-12.56,59.32H382.88L402.46,46.2h26.61l-2,9.6c7.76-8.86,15.89-10.34,21.62-10.34,11.83,0,20.51,6.09,20.51,20.88,0,15-8.87,37.32-8.87,47.67,0,4.62,1.85,7.76,7.39,7.76,8.13,0,11.46-6.65,15.53-16.26H491c-10.35,30.31-24.58,34.19-34.37,34.19-16.08,0-21.81-10.35-21.81-20.88,0-12.57,8.32-35.3,8.32-47.12C443.12,65.6,440.9,62.27,436.46,62.27Z"/><path class="cls-1" d="M537,61.9c0-4.62-1.66-7.57-5.18-7.57-11.64,0-23.65,33.81-23.65,54.32,0,12.57,4.44,15.52,13.31,15.52,14.59,0,23.46-8.13,32.7-18.66h6.29c-10.54,17-26.24,34.19-50.82,34.19-17.37,0-28.83-8.5-28.83-29.38,0-21.44,12.2-65.79,49.71-65.79C547,44.53,551,53,551,61.53,551,70.59,546.6,75,541.24,75a11.85,11.85,0,0,1-6.47-2.22A32.59,32.59,0,0,0,537,61.9Z"/><path class="cls-1" d="M590.39,122.14c7,0,15.89-4.62,21.81-9.79-3.88,21.06-17.19,27.35-32,27.35-17.19,0-28.64-8.5-28.64-29.38,0-21.25,12-65.79,49.89-65.79,16.44,0,20.32,8.5,20.32,17.74,0,21.44-20.32,37.7-42.5,39-.18,1.85-.36,3.88-.36,5.55C578.94,118.45,583.92,122.14,590.39,122.14ZM603,54.33c-9.24,0-18.48,20.51-22.36,38.06,14.41-.74,27-15,27-30.49C607.58,57.28,606.47,54.33,603,54.33Z"/></g></g></svg>