<?xml version="1.0" encoding="iso-8859-1"?>
<!-- Generator: Adobe Illustrator 19.0.0, SVG Export Plug-In . SVG Version: 6.00 Build 0)  -->
<svg version="1.1" id="Capa_1" xmlns="http://www.w3.org/2000/svg" xmlns:xlink="http://www.w3.org/1999/xlink" x="0px" y="0px"
	 viewBox="0 0 512.002 512.002" style="enable-background:new 0 0 512.002 512.002;" xml:space="preserve">

	<g>
		<path fill="#fff" d="M509.762,274.567c-7.776-23.968-33.504-37.056-57.472-29.28l-45.952,14.944c-10.176-31.36-21.024-64.704-31.2-96
			c27.936-9.088,45.952-14.944,45.952-14.944c23.968-7.776,37.056-33.504,29.28-57.472c-7.776-23.968-33.504-37.056-57.472-29.28
			l-45.952,14.944c-9.088-27.936-14.944-45.952-14.944-45.952c-7.744-23.936-33.472-37.056-57.44-29.28s-37.056,33.504-29.28,57.472
			l14.944,45.952l-96,31.2c-9.056-27.936-14.912-45.952-14.912-45.952c-7.808-23.968-33.536-37.088-57.472-29.28
			c-23.968,7.776-37.088,33.504-29.28,57.44l14.944,45.984l-47.424,15.424c-22.4,8.096-34.976,32.256-28.288,55.488
			c6.976,24.192,32.672,38.944,56.448,31.232c0.192-0.064,18.848-6.112,47.424-15.424l31.2,96l-47.424,15.424
			c-22.368,8.096-34.944,32.256-28.288,55.488c6.976,24.192,32.672,38.976,56.448,31.232c0.192-0.064,18.848-6.112,47.456-15.424
			l15.424,47.424c8.096,22.368,32.256,34.944,55.488,28.288c24.192-6.976,38.976-32.672,31.232-56.448
			c-0.064-0.192-6.112-18.816-15.392-47.424c31.36-10.176,64.704-21.024,96-31.2l15.424,47.424
			c8.096,22.368,32.256,34.944,55.488,28.288c24.192-6.976,38.976-32.672,31.232-56.448c-0.064-0.192-6.112-18.816-15.424-47.424
			c27.936-9.088,45.952-14.944,45.952-14.944C504.418,324.263,517.538,298.535,509.762,274.567z M223.618,319.623
			c-10.208-31.36-21.024-64.704-31.2-96c31.36-10.176,64.704-21.024,96-31.2l31.2,96L223.618,319.623z"/>
	</g>


</svg>
