<?xml version="1.0" encoding="UTF-8" standalone="no"?>
<!-- Created with Inkscape (http://www.inkscape.org/) -->

<svg
   xmlns:dc="http://purl.org/dc/elements/1.1/"
   xmlns:cc="http://creativecommons.org/ns#"
   xmlns:rdf="http://www.w3.org/1999/02/22-rdf-syntax-ns#"
   xmlns:svg="http://www.w3.org/2000/svg"
   xmlns="http://www.w3.org/2000/svg"
   xmlns:sodipodi="http://sodipodi.sourceforge.net/DTD/sodipodi-0.dtd"
   xmlns:inkscape="http://www.inkscape.org/namespaces/inkscape"
   width="128"
   height="128"
   viewBox="0 0 33.866666 33.866668"
   version="1.1"
   id="svg8"
   inkscape:version="0.92.4 (5da689c313, 2019-01-14)"
   sodipodi:docname="ethlance-search-icon.svg">
  <defs
     id="defs2" />
  <sodipodi:namedview
     id="base"
     pagecolor="#ffffff"
     bordercolor="#666666"
     borderopacity="1.0"
     inkscape:pageopacity="0.0"
     inkscape:pageshadow="2"
     inkscape:zoom="5.6568543"
     inkscape:cx="-19.183594"
     inkscape:cy="70.627024"
     inkscape:document-units="px"
     inkscape:current-layer="layer1"
     showgrid="false"
     units="px"
     inkscape:pagecheckerboard="true"
     inkscape:window-width="2820"
     inkscape:window-height="1018"
     inkscape:window-x="-7"
     inkscape:window-y="0"
     inkscape:window-maximized="0" />
  <metadata
     id="metadata5">
    <rdf:RDF>
      <cc:Work
         rdf:about="">
        <dc:format>image/svg+xml</dc:format>
        <dc:type
           rdf:resource="http://purl.org/dc/dcmitype/StillImage" />
        <dc:title></dc:title>
      </cc:Work>
    </rdf:RDF>
  </metadata>
  <g
     inkscape:label="Layer 1"
     inkscape:groupmode="layer"
     id="layer1"
     transform="translate(0,-263.13332)">
    <g
       id="main"
       transform="matrix(2.383858,0,0,2.383858,-20.180207,-391.54295)"
       class="search-icon">
      <path
         style="opacity:0.98999999;fill:#ffffff;fill-opacity:1;stroke:none;stroke-width:0.25731948;stroke-linecap:round;stroke-linejoin:round;stroke-miterlimit:4;stroke-dasharray:none;stroke-opacity:1"
         d="M 69.472656,13.449219 A 44.901278,44.901278 0 0 0 24.572266,58.349609 44.901278,44.901278 0 0 0 69.472656,103.25195 44.901278,44.901278 0 0 0 114.375,58.349609 44.901278,44.901278 0 0 0 69.472656,13.449219 Z m 0,10.429687 A 34.471454,34.471454 0 0 1 103.94531,58.349609 34.471454,34.471454 0 0 1 69.472656,92.820312 34.471454,34.471454 0 0 1 35.001953,58.349609 34.471454,34.471454 0 0 1 69.472656,23.878906 Z"
         transform="matrix(0.13688384,0,0,0.13688384,6.7345824,272.86797)"
         id="glass"
         inkscape:connector-curvature="0" />
      <rect
         style="opacity:0.98999999;fill:#ffffff;fill-opacity:1;stroke:none;stroke-width:0.03362815;stroke-linecap:round;stroke-linejoin:round;stroke-miterlimit:4;stroke-dasharray:none;stroke-opacity:1"
         id="handle"
         width="5.3291121"
         height="1.5044036"
         x="-197.62636"
         y="209.56841"
         ry="0.31457233"
         rx="0.78950924"
         transform="rotate(-45)" />
    </g>
  </g>
</svg>
