<?xml version="1.0" encoding="UTF-8" standalone="no"?>
<svg
   xmlns:dc="http://purl.org/dc/elements/1.1/"
   xmlns:cc="http://creativecommons.org/ns#"
   xmlns:rdf="http://www.w3.org/1999/02/22-rdf-syntax-ns#"
   xmlns:svg="http://www.w3.org/2000/svg"
   xmlns="http://www.w3.org/2000/svg"
   xmlns:sodipodi="http://sodipodi.sourceforge.net/DTD/sodipodi-0.dtd"
   xmlns:inkscape="http://www.inkscape.org/namespaces/inkscape"
   width="2500"
   height="2389"
   viewBox="0 5 1036 990"
   version="1.1"
   id="svg4799"
   sodipodi:docname="linkedin-icon-white.svg"
   inkscape:version="0.92.4 (5da689c313, 2019-01-14)">
  <metadata
     id="metadata4805">
    <rdf:RDF>
      <cc:Work
         rdf:about="">
        <dc:format>image/svg+xml</dc:format>
        <dc:type
           rdf:resource="http://purl.org/dc/dcmitype/StillImage" />
        <dc:title></dc:title>
      </cc:Work>
    </rdf:RDF>
  </metadata>
  <defs
     id="defs4803" />
  <sodipodi:namedview
     pagecolor="#ffffff"
     bordercolor="#666666"
     borderopacity="1"
     objecttolerance="10"
     gridtolerance="10"
     guidetolerance="10"
     inkscape:pageopacity="0"
     inkscape:pageshadow="2"
     inkscape:window-width="1276"
     inkscape:window-height="1009"
     id="namedview4801"
     showgrid="false"
     inkscape:zoom="0.098786103"
     inkscape:cx="-430.39831"
     inkscape:cy="1194.5"
     inkscape:window-x="1280"
     inkscape:window-y="18"
     inkscape:window-maximized="0"
     inkscape:current-layer="svg4799" />
  <path
     d="M0 120c0-33.334 11.667-60.834 35-82.5C58.333 15.833 88.667 5 126 5c36.667 0 66.333 10.666 89 32 23.333 22 35 50.666 35 86 0 32-11.333 58.666-34 80-23.333 22-54 33-92 33h-1c-36.667 0-66.333-11-89-33S0 153.333 0 120zm13 875V327h222v668H13zm345 0h222V622c0-23.334 2.667-41.334 8-54 9.333-22.667 23.5-41.834 42.5-57.5 19-15.667 42.833-23.5 71.5-23.5 74.667 0 112 50.333 112 151v357h222V612c0-98.667-23.333-173.5-70-224.5S857.667 311 781 311c-86 0-153 37-201 111v2h-1l1-2v-95H358c1.333 21.333 2 87.666 2 199 0 111.333-.667 267.666-2 469z"
     id="path4797"
     style="fill:#ffffff;fill-opacity:1" />
</svg>
