<?xml version="1.0" encoding="UTF-8" standalone="no"?>
<!DOCTYPE svg PUBLIC "-//W3C//DTD SVG 1.1//EN"
 "http://www.w3.org/Graphics/SVG/1.1/DTD/svg11.dtd">
<!-- Generated by graphviz version 2.40.1 (20161225.0304)
 -->
<!-- Title: G Pages: 1 -->
<svg width="145pt" height="278pt"
 viewBox="0.00 0.00 144.50 278.00" xmlns="http://www.w3.org/2000/svg" xmlns:xlink="http://www.w3.org/1999/xlink">
<g id="graph0" class="graph" transform="scale(1 1) rotate(0) translate(4 274)">
<title>G</title>
<polygon fill="#ffffff" stroke="transparent" points="-4,4 -4,-274 140.5,-274 140.5,4 -4,4"/>
<g id="clust1" class="cluster">
<title>clusterAnimalImpl</title>
<polygon fill="none" stroke="#000000" points="8,-89 8,-262 112,-262 112,-89 8,-89"/>
<text text-anchor="middle" x="60" y="-251.6" font-family="Bitstream Vera Sans" font-size="8.00" fill="#000000">Package animal.impl</text>
</g>
<!-- Animal -->
<g id="node1" class="node">
<title>Animal</title>
<polygon fill="none" stroke="#000000" points="53.5,-.5 53.5,-60.5 136.5,-60.5 136.5,-.5 53.5,-.5"/>
<text text-anchor="middle" x="95" y="-50.1" font-family="Bitstream Vera Sans" font-size="8.00" fill="#000000">Animal</text>
<polyline fill="none" stroke="#000000" points="53.5,-43.5 136.5,-43.5 "/>
<text text-anchor="start" x="61.5" y="-33.1" font-family="Bitstream Vera Sans" font-size="8.00" fill="#000000">+ name : string</text>
<text text-anchor="start" x="61.5" y="-24.1" font-family="Bitstream Vera Sans" font-size="8.00" fill="#000000">+ age : int</text>
<polyline fill="none" stroke="#000000" points="53.5,-17.5 136.5,-17.5 "/>
<text text-anchor="start" x="61.5" y="-7.1" font-family="Bitstream Vera Sans" font-size="8.00" fill="#000000">+ die() : void</text>
</g>
<!-- Dog -->
<g id="node2" class="node">
<title>Dog</title>
<polygon fill="none" stroke="#000000" points="23,-185.5 23,-236.5 101,-236.5 101,-185.5 23,-185.5"/>
<text text-anchor="middle" x="62" y="-226.1" font-family="Bitstream Vera Sans" font-size="8.00" fill="#000000">Dog</text>
<polyline fill="none" stroke="#000000" points="23,-219.5 101,-219.5 "/>
<text text-anchor="middle" x="62" y="-209.1" font-family="Bitstream Vera Sans" font-size="8.00" fill="#000000"> </text>
<polyline fill="none" stroke="#000000" points="23,-202.5 101,-202.5 "/>
<text text-anchor="start" x="31" y="-192.1" font-family="Bitstream Vera Sans" font-size="8.00" fill="#000000">+ bark() : void</text>
</g>
<!-- Dog&#45;&gt;Animal -->
<g id="edge1" class="edge">
<title>Dog&#45;&gt;Animal</title>
<path fill="none" stroke="#000000" d="M89.1509,-185.4255C98.2392,-175.0904 107.2592,-162.4307 112,-149 120.8982,-123.7915 116.5631,-93.9996 110.0464,-70.5939"/>
<polygon fill="none" stroke="#000000" points="113.3878,-69.5513 107.1521,-60.9858 106.6852,-71.5704 113.3878,-69.5513"/>
</g>
<!-- Cat -->
<g id="node3" class="node">
<title>Cat</title>
<polygon fill="none" stroke="#000000" points="17.5,-97.5 17.5,-148.5 102.5,-148.5 102.5,-97.5 17.5,-97.5"/>
<text text-anchor="middle" x="60" y="-138.1" font-family="Bitstream Vera Sans" font-size="8.00" fill="#000000">Cat</text>
<polyline fill="none" stroke="#000000" points="17.5,-131.5 102.5,-131.5 "/>
<text text-anchor="middle" x="60" y="-121.1" font-family="Bitstream Vera Sans" font-size="8.00" fill="#000000"> </text>
<polyline fill="none" stroke="#000000" points="17.5,-114.5 102.5,-114.5 "/>
<text text-anchor="start" x="25.5" y="-104.1" font-family="Bitstream Vera Sans" font-size="8.00" fill="#000000">+ meow() : void</text>
</g>
<!-- Dog&#45;&gt;Cat -->
<g id="edge3" class="edge">
<title>Dog&#45;&gt;Cat</title>
<path fill="none" stroke="#000000" d="M61.4108,-185.0731C61.1503,-173.6151 60.845,-160.1781 60.585,-148.7416"/>
<text text-anchor="middle" x="52.585" y="-151.3416" font-family="Bitstream Vera Sans" font-size="8.00" fill="#000000">0..*</text>
<text text-anchor="middle" x="53.4108" y="-178.6731" font-family="Bitstream Vera Sans" font-size="8.00" fill="#000000">0..*</text>
</g>
<!-- Cat&#45;&gt;Animal -->
<g id="edge2" class="edge">
<title>Cat&#45;&gt;Animal</title>
<path fill="none" stroke="#000000" d="M69.7495,-97.2336C72.932,-88.8225 76.5432,-79.2787 80.019,-70.0927"/>
<polygon fill="none" stroke="#000000" points="83.303,-71.3035 83.5685,-60.7119 76.756,-68.8262 83.303,-71.3035"/>
</g>
</g>
</svg>
