<svg xmlns="http://www.w3.org/2000/svg" viewBox="0 0 24 24"><defs><style>.cls-1{fill:#2c398f;}</style></defs><title>ic-upload</title><g id="Camada_2" data-name="Camada 2"><g id="Layer_1" data-name="Layer 1"><path class="cls-1" d="M22,24H2a2,2,0,0,1-2-2V12a1,1,0,0,1,2,0V22H22V12a1,1,0,0,1,2,0V22A2,2,0,0,1,22,24ZM17,7a1,1,0,0,1-.71-.29L12,2.41,7.71,6.71A1,1,0,0,1,6.29,5.29l5-5a1,1,0,0,1,1.42,0l5,5a1,1,0,0,1,0,1.42A1,1,0,0,1,17,7ZM12,18a1,1,0,0,1-1-1V1a1,1,0,0,1,2,0V17A1,1,0,0,1,12,18Z"/></g></g></svg>