<svg xmlns="http://www.w3.org/2000/svg" viewBox="0 0 90 90"><defs><style>.cls-1{fill:#68c868;}</style></defs><title>hammer</title><g id="Camada_2" data-name="Camada 2"><g id="Layer_1" data-name="Layer 1"><path class="cls-1" d="M88.28,43.08,87.22,42a5.9,5.9,0,0,0-7.71-.52l-31-31A5.9,5.9,0,0,0,48,2.78L46.92,1.72a5.92,5.92,0,0,0-8.34,0L20.52,19.78a5.92,5.92,0,0,0,0,8.34l1.06,1.06a5.9,5.9,0,0,0,8.34,0l.57-.57,9.89,9.89L2.29,76.59A7.86,7.86,0,1,0,13.41,87.71L51.5,49.62l9.89,9.89-.57.57a5.9,5.9,0,0,0,0,8.34l1.06,1.06a5.92,5.92,0,0,0,8.34,0L88.28,51.42A5.92,5.92,0,0,0,88.28,43.08Z"/></g></g></svg>