<svg xmlns="http://www.w3.org/2000/svg" viewBox="0 0 29.04 29.04"><defs><style>.cls-1{fill:#6352e3;opacity:0;}.cls-2{fill:#fff;fill-rule:evenodd;}</style></defs><title>ic-activity</title><g id="Camada_2" data-name="Camada 2"><g id="Layer_1" data-name="Layer 1"><circle class="cls-1" cx="14.52" cy="14.52" r="14.52"/><path class="cls-2" d="M14.52,21.76A7.23,7.23,0,0,1,9.31,9.5a.56.56,0,0,1,1,.29.55.55,0,0,1-.21.43h0A6.12,6.12,0,1,0,14.51,8.4h0a.56.56,0,0,1,0-1.12h0a7.24,7.24,0,0,1,0,14.48Zm0-8.91h0a.56.56,0,0,1,0-1.12h0a2.78,2.78,0,1,1,0,5.56h0a.56.56,0,1,1,0-1.12h0a1.67,1.67,0,0,0,1.67-1.67A1.65,1.65,0,0,0,14.52,12.85Zm3.89,1.67a3.9,3.9,0,0,0-3.9-3.9h0a.56.56,0,1,1,0-1.12h0a5,5,0,1,1-5,5h0a.56.56,0,0,1,1.12,0h0a3.9,3.9,0,1,0,7.79,0Z"/></g></g></svg>