<svg xmlns="http://www.w3.org/2000/svg" viewBox="0 0 29.03 29.03"><defs><style>.cls-1{fill:#6352e3;opacity:0;}.cls-2{fill:#fff;}</style></defs><title>ic-arbiters</title><g id="Camada_2" data-name="Camada 2"><g id="Layer_1" data-name="Layer 1"><circle class="cls-1" cx="14.52" cy="14.52" r="14.52"/><path class="cls-2" d="M21.48,13.43l-.16-.15a.85.85,0,0,0-1.12-.08L15.69,8.69a.86.86,0,0,0-.07-1.12l-.16-.16a.86.86,0,0,0-1.21,0L11.62,10a.86.86,0,0,0,0,1.21l.16.16a.86.86,0,0,0,1.21,0l.08-.08,1.44,1.43L9,18.3a1.15,1.15,0,0,0,1.62,1.62l5.54-5.54,1.44,1.44-.09.08a.88.88,0,0,0,0,1.22l.16.15a.86.86,0,0,0,1.21,0l2.63-2.63A.86.86,0,0,0,21.48,13.43Z"/></g></g></svg>