<?xml version="1.0" encoding="UTF-8" standalone="no"?>
<!-- Generator: Adobe Illustrator 22.1.0, SVG Export Plug-In . SVG Version: 6.00 Build 0)  -->

<svg
   xmlns:dc="http://purl.org/dc/elements/1.1/"
   xmlns:cc="http://creativecommons.org/ns#"
   xmlns:rdf="http://www.w3.org/1999/02/22-rdf-syntax-ns#"
   xmlns:svg="http://www.w3.org/2000/svg"
   xmlns="http://www.w3.org/2000/svg"
   xmlns:sodipodi="http://sodipodi.sourceforge.net/DTD/sodipodi-0.dtd"
   xmlns:inkscape="http://www.inkscape.org/namespaces/inkscape"
   version="1.1"
   id="Layer_1"
   x="0px"
   y="0px"
   viewBox="0 0 115 28"
   xml:space="preserve"
   sodipodi:docname="ethlance_logo.svg"
   width="115"
   height="28"
   inkscape:version="0.92.3 (2405546, 2018-03-11)"><metadata
   id="metadata5304"><rdf:RDF><cc:Work
       rdf:about=""><dc:format>image/svg+xml</dc:format><dc:type
         rdf:resource="http://purl.org/dc/dcmitype/StillImage" /><dc:title></dc:title></cc:Work></rdf:RDF></metadata><defs
   id="defs5302" /><sodipodi:namedview
   pagecolor="#ffffff"
   bordercolor="#666666"
   borderopacity="1"
   objecttolerance="10"
   gridtolerance="10"
   guidetolerance="10"
   inkscape:pageopacity="0"
   inkscape:pageshadow="2"
   inkscape:window-width="1400"
   inkscape:window-height="958"
   id="namedview5300"
   showgrid="false"
   inkscape:zoom="7.4167644"
   inkscape:cx="53.107914"
   inkscape:cy="30.893284"
   inkscape:window-x="1404"
   inkscape:window-y="18"
   inkscape:window-maximized="0"
   inkscape:current-layer="Layer_1" />
<style
   type="text/css"
   id="style5261">
	.st0{fill:#2C398F;}
	.st1{fill:#6352E3;}
</style>
<g
   id="main"
   transform="translate(-46.785901,-165.62017)"
   style="fill:#000000">
	<path
   class="st0"
   d="m 63.8,177.9 -0.7,2.5 h -5 l -1.8,8.2 h 7.5 L 63.1,192 H 50.8 l 4.8,-22.3 c -2.6,0.1 -4.3,1.6 -4.3,6.9 0,1.7 0.4,2 0.5,2.3 -2.3,0 -3.6,-0.8 -3.6,-3.2 0,-4.4 3.1,-8.7 11.4,-8.7 1.3,0 3.4,0.4 5.5,0.4 1,0 2.1,-0.1 3,-0.4 -0.5,1.4 -0.6,3.4 -3.2,4 -1.5,0 -3.1,-0.3 -4.7,-0.6 l -1.6,7.7 h 5.2 z"
   id="path5263"
   inkscape:connector-curvature="0"
   style="fill:#000000" />
	<path
   class="st0"
   d="m 74.6,169.9 -1.1,5.3 h 2 l -0.3,1.3 h -2 l -2.1,10 c -0.1,0.4 -0.1,0.8 -0.1,1.1 0,0.9 0.4,1.2 1.4,1.2 1.3,0 2.5,-1.3 3,-2.9 h 1.4 c -1.9,5.4 -5.2,6.2 -7,6.2 -2,0 -3.6,-1.2 -3.6,-4 0,-0.6 0.1,-1.4 0.3,-2.2 l 2,-9.4 h -1.1 l 0.3,-1.3 h 1.1 l 1,-4.6 z"
   id="path5265"
   inkscape:connector-curvature="0"
   style="fill:#000000" />
	<path
   class="st0"
   d="m 83.7,178.1 c -1.3,0 -2.3,2 -2.5,2.9 l -2.3,10.9 H 74 l 4.8,-22.7 4.9,-0.7 -1.8,8.4 c 1.4,-1.6 2.9,-1.9 3.9,-1.9 2.1,0 3.7,1.1 3.7,3.8 0,2.7 -1.6,6.8 -1.6,8.6 0,0.8 0.3,1.4 1.3,1.4 1.5,0 2.1,-1.2 2.8,-2.9 h 1.4 c -1.9,5.5 -4.4,6.2 -6.2,6.2 -2.9,0 -3.9,-1.9 -3.9,-3.8 0,-2.3 1.5,-6.4 1.5,-8.5 0.1,-1.1 -0.3,-1.7 -1.1,-1.7 z"
   id="path5267"
   inkscape:connector-curvature="0"
   style="fill:#000000" />
	<path
   class="st0"
   d="m 100.7,168.5 -3.8,18 c -0.1,0.4 -0.1,0.8 -0.1,1.1 0,0.9 0.4,1.2 1.4,1.2 1.3,0 2.5,-1.3 3,-2.9 h 1.4 c -1.9,5.4 -5.2,6.2 -7,6.2 -2,0 -3.6,-1.2 -3.6,-4 0,-0.6 0.1,-1.4 0.3,-2.2 l 3.6,-16.7 z"
   id="path5269"
   inkscape:connector-curvature="0"
   style="fill:#000000" />
	<path
   class="st0"
   d="m 117.1,175.2 -2.4,11.4 c -0.1,0.4 -0.1,0.8 -0.1,1.1 0,0.9 0.4,1.4 1.4,1.4 1.3,0 2.2,-1.5 2.7,-3.1 h 1.4 c -1.9,5.4 -4.9,6.2 -6.7,6.2 -1.9,0 -3.1,-1.1 -3.3,-3.1 -1,1.5 -2.6,3.1 -5,3.1 -2.3,0 -4.4,-1.4 -4.4,-5.4 0,-4.5 2.8,-11.7 8.6,-11.7 1.9,0 2.7,0.7 2.7,1.7 v 0.2 l 0.4,-1.8 z m -11.5,11 c 0,2.6 1.1,2.6 1.7,2.6 1,0 2.4,-1 2.8,-2.9 l 1.6,-7.6 c 0,-0.4 -0.3,-1.3 -1.4,-1.3 -2.9,0.1 -4.7,6.1 -4.7,9.2 z"
   id="path5271"
   inkscape:connector-curvature="0"
   style="fill:#000000" />
	<path
   class="st0"
   d="m 127.1,178.1 c -1.2,0 -2.1,1.4 -2.6,3.1 l -2.3,10.7 h -4.8 l 3.5,-16.7 h 4.8 l -0.4,1.7 c 1.4,-1.6 2.9,-1.9 3.9,-1.9 2.1,0 3.7,1.1 3.7,3.8 0,2.7 -1.6,6.8 -1.6,8.6 0,0.8 0.3,1.4 1.3,1.4 1.5,0 2.1,-1.2 2.8,-2.9 h 1.4 c -1.9,5.5 -4.4,6.2 -6.2,6.2 -2.9,0 -3.9,-1.9 -3.9,-3.8 0,-2.3 1.5,-6.4 1.5,-8.5 0.1,-1.1 -0.3,-1.7 -1.1,-1.7 z"
   id="path5273"
   inkscape:connector-curvature="0"
   style="fill:#000000" />
	<path
   class="st0"
   d="m 145.3,178 c 0,-0.8 -0.3,-1.4 -0.9,-1.4 -2.1,0 -4.3,6.1 -4.3,9.8 0,2.3 0.8,2.8 2.4,2.8 2.6,0 4.2,-1.5 5.9,-3.4 h 1.1 c -1.9,3.1 -4.7,6.2 -9.2,6.2 -3.1,0 -5.2,-1.5 -5.2,-5.3 0,-3.9 2.2,-11.9 9,-11.9 3,0 3.7,1.5 3.7,3.1 0,1.6 -0.8,2.4 -1.8,2.4 -0.4,0 -0.8,-0.1 -1.2,-0.4 0.3,-0.7 0.5,-1.3 0.5,-1.9 z"
   id="path5275"
   inkscape:connector-curvature="0"
   style="fill:#000000" />
	<path
   class="st0"
   d="m 154.9,188.9 c 1.3,0 2.9,-0.8 3.9,-1.8 -0.7,3.8 -3.1,4.9 -5.8,4.9 -3.1,0 -5.2,-1.5 -5.2,-5.3 0,-3.8 2.2,-11.9 9,-11.9 3,0 3.7,1.5 3.7,3.2 0,3.9 -3.7,6.8 -7.7,7.1 0,0.3 -0.1,0.7 -0.1,1 0.2,2.1 1.1,2.8 2.2,2.8 z m 2.3,-12.3 c -1.7,0 -3.3,3.7 -4,6.9 2.6,-0.1 4.9,-2.7 4.9,-5.5 -0.1,-0.8 -0.3,-1.4 -0.9,-1.4 z"
   id="path5277"
   inkscape:connector-curvature="0"
   style="fill:#000000" />
</g>

</svg>